<mxfile host="app.diagrams.net" modified="2024-04-28T18:17:19.790Z" agent="Mozilla/5.0 (Windows NT 10.0; Win64; x64) AppleWebKit/537.36 (KHTML, like Gecko) Chrome/124.0.0.0 Safari/537.36" etag="sJjBx7CKhgzLmOVGy1e3" version="24.2.5" type="device">
  <diagram name="Page-1" id="LYO3NCp86R2hIvRglabS">
    <mxGraphModel dx="7072" dy="3799" grid="1" gridSize="10" guides="1" tooltips="1" connect="1" arrows="1" fold="1" page="1" pageScale="1" pageWidth="3300" pageHeight="2339" background="#000000" math="0" shadow="0">
      <root>
        <mxCell id="0" />
        <mxCell id="1" parent="0" />
        <mxCell id="wwfGKBPIN9AT0zzVKgyh-1" value="START" style="html=1;overflow=block;blockSpacing=1;whiteSpace=wrap;fontSize=26.7;spacing=9;strokeColor=#FFFFFF;rounded=1;absoluteArcSize=1;arcSize=9;fillColor=#unset;strokeWidth=3;lucidId=7QWwkAjT7IHE;fontColor=#FFFFFF;labelBorderColor=none;shadow=0;glass=0;gradientColor=none;perimeterSpacing=8;" vertex="1" parent="1">
          <mxGeometry x="-945" y="240" width="165" height="128" as="geometry" />
        </mxCell>
        <mxCell id="wwfGKBPIN9AT0zzVKgyh-2" value="Web devalopment and design" style="html=1;overflow=block;blockSpacing=1;whiteSpace=wrap;fontSize=20;spacing=9;strokeColor=#FFFFFF;rounded=1;absoluteArcSize=1;arcSize=9;fillColor=#unset;strokeWidth=2;lucidId=CRWwRNarMEnW;fontColor=#FFFFFF;labelBorderColor=default;align=center;verticalAlign=middle;fontFamily=Helvetica;" vertex="1" parent="1">
          <mxGeometry x="-630" y="-315" width="120" height="90" as="geometry" />
        </mxCell>
        <mxCell id="wwfGKBPIN9AT0zzVKgyh-3" value="Course managment" style="html=1;overflow=block;blockSpacing=1;whiteSpace=wrap;fontSize=20;spacing=9;strokeColor=#FFFFFF;rounded=1;absoluteArcSize=1;arcSize=9;fillColor=#unset;strokeWidth=2;lucidId=WRWwbz1kUZq-;fontColor=#FFFFFF;labelBorderColor=default;align=center;verticalAlign=middle;fontFamily=Helvetica;" vertex="1" parent="1">
          <mxGeometry x="-630" y="-30" width="120" height="94" as="geometry" />
        </mxCell>
        <mxCell id="wwfGKBPIN9AT0zzVKgyh-4" value="Initial user interactions" style="html=1;overflow=block;blockSpacing=1;whiteSpace=wrap;fontSize=20;spacing=9;strokeColor=#FFFFFF;rounded=1;absoluteArcSize=1;arcSize=9;fillColor=#unset;strokeWidth=2;lucidId=0RWw7g23bYiG;fontColor=#FFFFFF;labelBorderColor=default;" vertex="1" parent="1">
          <mxGeometry x="-630" y="214" width="120" height="90" as="geometry" />
        </mxCell>
        <mxCell id="wwfGKBPIN9AT0zzVKgyh-109" style="edgeStyle=orthogonalEdgeStyle;rounded=1;orthogonalLoop=1;jettySize=auto;html=1;strokeColor=#ffffff;strokeWidth=2.3;align=center;verticalAlign=middle;arcSize=12;fontFamily=Helvetica;fontSize=13;fontColor=#FFFFFF;labelBorderColor=default;labelBackgroundColor=default;startArrow=none;endArrow=block;endFill=1;" edge="1" parent="1" source="wwfGKBPIN9AT0zzVKgyh-5" target="wwfGKBPIN9AT0zzVKgyh-108">
          <mxGeometry relative="1" as="geometry" />
        </mxCell>
        <mxCell id="wwfGKBPIN9AT0zzVKgyh-5" value="Course Engagement" style="html=1;overflow=block;blockSpacing=1;whiteSpace=wrap;fontSize=20;spacing=9;strokeColor=#FFFFFF;rounded=1;absoluteArcSize=1;arcSize=9;fillColor=#unset;strokeWidth=2;lucidId=5RWwF.XyBdMo;fontColor=#FFFFFF;labelBorderColor=default;align=center;verticalAlign=middle;fontFamily=Helvetica;" vertex="1" parent="1">
          <mxGeometry x="-630" y="454" width="120" height="90" as="geometry" />
        </mxCell>
        <mxCell id="wwfGKBPIN9AT0zzVKgyh-160" style="edgeStyle=orthogonalEdgeStyle;rounded=1;orthogonalLoop=1;jettySize=auto;html=1;entryX=0;entryY=0.5;entryDx=0;entryDy=0;strokeColor=#ffffff;strokeWidth=2.3;align=center;verticalAlign=middle;arcSize=12;fontFamily=Helvetica;fontSize=13;fontColor=#FFFFFF;labelBorderColor=default;labelBackgroundColor=default;startArrow=none;endArrow=block;endFill=1;" edge="1" parent="1" source="wwfGKBPIN9AT0zzVKgyh-6" target="wwfGKBPIN9AT0zzVKgyh-157">
          <mxGeometry relative="1" as="geometry" />
        </mxCell>
        <mxCell id="wwfGKBPIN9AT0zzVKgyh-161" style="edgeStyle=orthogonalEdgeStyle;rounded=1;orthogonalLoop=1;jettySize=auto;html=1;entryX=0;entryY=0.5;entryDx=0;entryDy=0;strokeColor=#ffffff;strokeWidth=2.3;align=center;verticalAlign=middle;arcSize=12;fontFamily=Helvetica;fontSize=13;fontColor=#FFFFFF;labelBorderColor=default;labelBackgroundColor=default;startArrow=none;endArrow=block;endFill=1;" edge="1" parent="1" source="wwfGKBPIN9AT0zzVKgyh-6" target="wwfGKBPIN9AT0zzVKgyh-156">
          <mxGeometry relative="1" as="geometry" />
        </mxCell>
        <mxCell id="wwfGKBPIN9AT0zzVKgyh-6" value="Testing and deployment" style="html=1;overflow=block;blockSpacing=1;whiteSpace=wrap;fontSize=20;spacing=9;strokeColor=#FFFFFF;rounded=1;absoluteArcSize=1;arcSize=9;fillColor=#unset;strokeWidth=2;lucidId=8RWwPccYIDYV;fontColor=#FFFFFF;labelBorderColor=default;align=center;verticalAlign=middle;fontFamily=Helvetica;" vertex="1" parent="1">
          <mxGeometry x="-630" y="885" width="120" height="90" as="geometry" />
        </mxCell>
        <mxCell id="wwfGKBPIN9AT0zzVKgyh-63" value="" style="edgeStyle=orthogonalEdgeStyle;rounded=0;orthogonalLoop=1;jettySize=auto;html=1;fontFamily=Helvetica;fontSize=26.7;fontColor=#FFFFFF;labelBorderColor=none;" edge="1" parent="1" source="wwfGKBPIN9AT0zzVKgyh-7">
          <mxGeometry relative="1" as="geometry">
            <mxPoint x="-539.9411764705883" y="832" as="targetPoint" />
          </mxGeometry>
        </mxCell>
        <mxCell id="wwfGKBPIN9AT0zzVKgyh-138" style="edgeStyle=orthogonalEdgeStyle;rounded=1;orthogonalLoop=1;jettySize=auto;html=1;entryX=0;entryY=0.5;entryDx=0;entryDy=0;strokeColor=#ffffff;strokeWidth=2.3;align=center;verticalAlign=middle;arcSize=12;fontFamily=Helvetica;fontSize=13;fontColor=#FFFFFF;labelBorderColor=default;labelBackgroundColor=default;startArrow=none;endArrow=block;endFill=1;" edge="1" parent="1" source="wwfGKBPIN9AT0zzVKgyh-7" target="wwfGKBPIN9AT0zzVKgyh-136">
          <mxGeometry relative="1" as="geometry" />
        </mxCell>
        <mxCell id="wwfGKBPIN9AT0zzVKgyh-173" style="edgeStyle=orthogonalEdgeStyle;rounded=1;orthogonalLoop=1;jettySize=auto;html=1;entryX=0;entryY=0.5;entryDx=0;entryDy=0;strokeColor=#ffffff;strokeWidth=2.3;align=center;verticalAlign=middle;arcSize=12;fontFamily=Helvetica;fontSize=13;fontColor=#FFFFFF;labelBorderColor=default;labelBackgroundColor=default;startArrow=none;endArrow=block;endFill=1;" edge="1" parent="1" source="wwfGKBPIN9AT0zzVKgyh-7" target="wwfGKBPIN9AT0zzVKgyh-140">
          <mxGeometry relative="1" as="geometry" />
        </mxCell>
        <mxCell id="wwfGKBPIN9AT0zzVKgyh-7" value="Feedback and evolution" style="html=1;overflow=block;blockSpacing=1;whiteSpace=wrap;fontSize=20;spacing=9;strokeColor=#FFFFFF;rounded=1;absoluteArcSize=1;arcSize=9;fillColor=#unset;strokeWidth=2;lucidId=MSWw47peg1jQ;fontColor=#FFFFFF;labelBorderColor=default;align=center;verticalAlign=middle;fontFamily=Helvetica;" vertex="1" parent="1">
          <mxGeometry x="-630" y="662" width="120" height="90" as="geometry" />
        </mxCell>
        <mxCell id="wwfGKBPIN9AT0zzVKgyh-8" value="" style="html=1;jettySize=18;whiteSpace=wrap;fontSize=13;strokeColor=#ffffff;strokeOpacity=100;strokeWidth=2.3;rounded=1;arcSize=12;edgeStyle=orthogonalEdgeStyle;startArrow=none;endArrow=block;endFill=1;exitX=1.005;exitY=0.5;exitPerimeter=0;entryX=-0.006;entryY=0.5;entryPerimeter=0;lucidId=YSWwIrGZ60Uz;fontColor=#FFFFFF;labelBorderColor=default;shadow=0;" edge="1" parent="1" source="wwfGKBPIN9AT0zzVKgyh-1" target="wwfGKBPIN9AT0zzVKgyh-2">
          <mxGeometry width="100" height="100" relative="1" as="geometry">
            <Array as="points" />
          </mxGeometry>
        </mxCell>
        <mxCell id="wwfGKBPIN9AT0zzVKgyh-9" value="Creating HTML framework week 0" style="html=1;overflow=block;blockSpacing=1;whiteSpace=wrap;fontSize=16.7;spacing=9;strokeColor=#fff;rounded=1;absoluteArcSize=1;arcSize=9;fillColor=#unset;strokeWidth=2;lucidId=fVWwxdWhxpgB;fontColor=#FFFFFF;labelBorderColor=default;align=center;verticalAlign=middle;fontFamily=Helvetica;" vertex="1" parent="1">
          <mxGeometry x="-435" y="-323" width="120" height="106" as="geometry" />
        </mxCell>
        <mxCell id="wwfGKBPIN9AT0zzVKgyh-10" value="Integrating Multimedia Elements week 1 to 2" style="html=1;overflow=block;blockSpacing=1;whiteSpace=wrap;fontSize=16.7;spacing=9;strokeColor=#fff;rounded=1;absoluteArcSize=1;arcSize=9;fillColor=#unset;strokeWidth=2;lucidId=u4WwEcM92rI4;fontColor=#FFFFFF;labelBorderColor=default;align=center;verticalAlign=middle;fontFamily=Helvetica;" vertex="1" parent="1">
          <mxGeometry x="-240" y="-375" width="120" height="98" as="geometry" />
        </mxCell>
        <mxCell id="wwfGKBPIN9AT0zzVKgyh-11" value="Designing User Interface week 1 to 2" style="html=1;overflow=block;blockSpacing=1;whiteSpace=wrap;fontSize=16.7;spacing=9;strokeColor=#fff;rounded=1;absoluteArcSize=1;arcSize=9;fillColor=#unset;strokeWidth=2;lucidId=P4WwIU27D9H6;fontColor=#FFFFFF;labelBorderColor=default;align=center;verticalAlign=middle;fontFamily=Helvetica;" vertex="1" parent="1">
          <mxGeometry x="-240" y="-259" width="120" height="98" as="geometry" />
        </mxCell>
        <mxCell id="wwfGKBPIN9AT0zzVKgyh-12" value="" style="html=1;jettySize=18;whiteSpace=wrap;fontSize=13;strokeColor=#ffffff;strokeOpacity=100;strokeWidth=2.3;rounded=1;arcSize=12;edgeStyle=orthogonalEdgeStyle;startArrow=none;endArrow=block;endFill=1;exitX=1.006;exitY=0.5;exitPerimeter=0;entryX=-0.006;entryY=0.5;entryPerimeter=0;lucidId=04WwTnW86UK2;fontColor=#FFFFFF;labelBorderColor=default;" edge="1" parent="1" source="wwfGKBPIN9AT0zzVKgyh-2" target="wwfGKBPIN9AT0zzVKgyh-9">
          <mxGeometry width="100" height="100" relative="1" as="geometry">
            <Array as="points" />
          </mxGeometry>
        </mxCell>
        <mxCell id="wwfGKBPIN9AT0zzVKgyh-13" value="" style="html=1;jettySize=18;whiteSpace=wrap;fontSize=13;strokeColor=#ffffff;strokeOpacity=100;strokeWidth=2.3;rounded=1;arcSize=12;edgeStyle=orthogonalEdgeStyle;startArrow=none;endArrow=block;endFill=1;exitX=1.006;exitY=0.5;exitPerimeter=0;entryX=-0.006;entryY=0.5;entryPerimeter=0;lucidId=24WwUi3hUjHv;fontColor=#FFFFFF;labelBorderColor=default;" edge="1" parent="1" source="wwfGKBPIN9AT0zzVKgyh-9" target="wwfGKBPIN9AT0zzVKgyh-10">
          <mxGeometry width="100" height="100" relative="1" as="geometry">
            <Array as="points" />
          </mxGeometry>
        </mxCell>
        <mxCell id="wwfGKBPIN9AT0zzVKgyh-14" value="" style="html=1;jettySize=18;whiteSpace=wrap;fontSize=13;strokeColor=#ffffff;strokeOpacity=100;strokeWidth=2.3;rounded=1;arcSize=12;edgeStyle=orthogonalEdgeStyle;startArrow=none;endArrow=block;endFill=1;exitX=1.005;exitY=0.5;exitPerimeter=0;entryX=-0.006;entryY=0.5;entryPerimeter=0;lucidId=36WwVzkl_tzB;fontColor=#FFFFFF;labelBorderColor=default;shadow=0;" edge="1" parent="1" source="wwfGKBPIN9AT0zzVKgyh-1" target="wwfGKBPIN9AT0zzVKgyh-4">
          <mxGeometry width="100" height="100" relative="1" as="geometry">
            <Array as="points" />
          </mxGeometry>
        </mxCell>
        <mxCell id="wwfGKBPIN9AT0zzVKgyh-15" value="" style="html=1;jettySize=18;whiteSpace=wrap;fontSize=13;strokeColor=#ffffff;strokeOpacity=100;strokeWidth=2.3;rounded=1;arcSize=12;edgeStyle=orthogonalEdgeStyle;startArrow=none;endArrow=block;endFill=1;exitX=1.005;exitY=0.5;exitPerimeter=0;entryX=-0.006;entryY=0.5;entryPerimeter=0;lucidId=-6Ww~zQLFKCc;fontColor=#FFFFFF;labelBorderColor=default;shadow=0;" edge="1" parent="1" source="wwfGKBPIN9AT0zzVKgyh-1" target="wwfGKBPIN9AT0zzVKgyh-3">
          <mxGeometry width="100" height="100" relative="1" as="geometry">
            <Array as="points" />
          </mxGeometry>
        </mxCell>
        <mxCell id="wwfGKBPIN9AT0zzVKgyh-16" value="" style="html=1;jettySize=18;whiteSpace=wrap;fontSize=13;strokeColor=#ffffff;strokeOpacity=100;strokeWidth=2.3;rounded=1;arcSize=12;edgeStyle=orthogonalEdgeStyle;startArrow=none;endArrow=block;endFill=1;exitX=1.005;exitY=0.5;exitPerimeter=0;entryX=-0.006;entryY=0.5;entryPerimeter=0;lucidId=~6Wwioi8Ltus;fontColor=#FFFFFF;labelBorderColor=default;shadow=0;" edge="1" parent="1" source="wwfGKBPIN9AT0zzVKgyh-1" target="wwfGKBPIN9AT0zzVKgyh-5">
          <mxGeometry width="100" height="100" relative="1" as="geometry">
            <Array as="points" />
          </mxGeometry>
        </mxCell>
        <mxCell id="wwfGKBPIN9AT0zzVKgyh-17" value="`" style="text;html=1;resizable=0;labelBackgroundColor=default;align=center;verticalAlign=middle;fontStyle=1;fontColor=#FFFFFF;fontSize=13.3;labelBorderColor=default;" vertex="1" parent="wwfGKBPIN9AT0zzVKgyh-16">
          <mxGeometry relative="1" as="geometry" />
        </mxCell>
        <mxCell id="wwfGKBPIN9AT0zzVKgyh-18" value="" style="html=1;jettySize=18;whiteSpace=wrap;fontSize=13;strokeColor=#ffffff;strokeOpacity=100;strokeWidth=2.3;rounded=1;arcSize=12;edgeStyle=orthogonalEdgeStyle;startArrow=none;endArrow=block;endFill=1;exitX=1.005;exitY=0.5;exitPerimeter=0;entryX=-0.006;entryY=0.5;entryPerimeter=0;lucidId=e7WwmPgdg1bF;fontColor=#FFFFFF;labelBorderColor=default;shadow=0;" edge="1" parent="1" source="wwfGKBPIN9AT0zzVKgyh-1" target="wwfGKBPIN9AT0zzVKgyh-7">
          <mxGeometry width="100" height="100" relative="1" as="geometry">
            <Array as="points" />
          </mxGeometry>
        </mxCell>
        <mxCell id="wwfGKBPIN9AT0zzVKgyh-19" value="" style="html=1;jettySize=18;whiteSpace=wrap;fontSize=13;strokeColor=#ffffff;strokeOpacity=100;strokeWidth=2.3;rounded=1;arcSize=12;edgeStyle=orthogonalEdgeStyle;startArrow=none;endArrow=block;endFill=1;exitX=1.005;exitY=0.5;exitPerimeter=0;entryX=-0.006;entryY=0.5;entryPerimeter=0;lucidId=l7Ww8v5D2~IP;fontColor=#FFFFFF;labelBorderColor=default;shadow=0;" edge="1" parent="1" source="wwfGKBPIN9AT0zzVKgyh-1" target="wwfGKBPIN9AT0zzVKgyh-6">
          <mxGeometry width="100" height="100" relative="1" as="geometry">
            <Array as="points" />
          </mxGeometry>
        </mxCell>
        <mxCell id="wwfGKBPIN9AT0zzVKgyh-20" value="" style="html=1;jettySize=18;whiteSpace=wrap;fontSize=13;strokeColor=#ffffff;strokeOpacity=100;strokeWidth=2.3;rounded=1;arcSize=12;edgeStyle=orthogonalEdgeStyle;startArrow=none;endArrow=block;endFill=1;exitX=1.006;exitY=0.5;exitPerimeter=0;entryX=-0.006;entryY=0.5;entryPerimeter=0;lucidId=R7WwN6VCyxMW;fontColor=#FFFFFF;labelBorderColor=default;" edge="1" parent="1" source="wwfGKBPIN9AT0zzVKgyh-9" target="wwfGKBPIN9AT0zzVKgyh-11">
          <mxGeometry width="100" height="100" relative="1" as="geometry">
            <Array as="points" />
          </mxGeometry>
        </mxCell>
        <mxCell id="wwfGKBPIN9AT0zzVKgyh-21" value="implementing JavaScript Functions week 3 to 5" style="html=1;overflow=block;blockSpacing=1;whiteSpace=wrap;fontSize=16.7;spacing=9;strokeColor=#fff;rounded=1;absoluteArcSize=1;arcSize=9;fillColor=#unset;strokeWidth=2;lucidId=q_Wwz7gSpk9k;fontColor=#FFFFFF;labelBorderColor=default;align=center;verticalAlign=middle;fontFamily=Helvetica;" vertex="1" parent="1">
          <mxGeometry x="160" y="-323.5" width="210" height="102" as="geometry" />
        </mxCell>
        <mxCell id="wwfGKBPIN9AT0zzVKgyh-22" value="Applying CSS Styling week 3 to 5" style="html=1;overflow=block;blockSpacing=1;whiteSpace=wrap;fontSize=16.7;spacing=9;strokeColor=#fff;rounded=1;absoluteArcSize=1;arcSize=9;fillColor=#unset;strokeWidth=2;lucidId=s_Wwy78iVG4K;fontColor=#FFFFFF;labelBorderColor=default;align=center;verticalAlign=middle;fontFamily=Helvetica;" vertex="1" parent="1">
          <mxGeometry x="160" y="-444.5" width="210" height="94" as="geometry" />
        </mxCell>
        <mxCell id="wwfGKBPIN9AT0zzVKgyh-23" value="Establishing Database Connections week 3 to 5" style="html=1;overflow=block;blockSpacing=1;whiteSpace=wrap;fontSize=16.7;spacing=9;strokeColor=#fff;rounded=1;absoluteArcSize=1;arcSize=9;fillColor=#unset;strokeWidth=2;lucidId=v_WwgO.2-N5L;fontColor=#FFFFFF;labelBorderColor=default;align=center;verticalAlign=middle;fontFamily=Helvetica;" vertex="1" parent="1">
          <mxGeometry x="160" y="-197.5" width="210" height="102" as="geometry" />
        </mxCell>
        <mxCell id="wwfGKBPIN9AT0zzVKgyh-24" value="" style="html=1;jettySize=18;whiteSpace=wrap;fontSize=13;strokeColor=#3a414a;strokeOpacity=100;strokeWidth=2.3;rounded=1;arcSize=12;edgeStyle=orthogonalEdgeStyle;startArrow=none;endArrow=block;endFill=1;exitX=1.006;exitY=0.5;exitPerimeter=0;entryX=-0.004;entryY=0.5;entryPerimeter=0;lucidId=C~WwT9MRfIEK;fontColor=#FFFFFF;labelBorderColor=default;" edge="1" parent="1" source="wwfGKBPIN9AT0zzVKgyh-10" target="wwfGKBPIN9AT0zzVKgyh-21">
          <mxGeometry width="100" height="100" relative="1" as="geometry">
            <Array as="points" />
          </mxGeometry>
        </mxCell>
        <mxCell id="wwfGKBPIN9AT0zzVKgyh-25" value="" style="html=1;jettySize=18;whiteSpace=wrap;fontSize=13;strokeColor=#3a414a;strokeOpacity=100;strokeWidth=2.3;rounded=1;arcSize=12;edgeStyle=orthogonalEdgeStyle;startArrow=none;endArrow=block;endFill=1;exitX=1.006;exitY=0.5;exitPerimeter=0;entryX=-0.004;entryY=0.5;entryPerimeter=0;lucidId=H~Wwwb2uKfCZ;fontColor=#FFFFFF;labelBorderColor=default;" edge="1" parent="1" source="wwfGKBPIN9AT0zzVKgyh-10" target="wwfGKBPIN9AT0zzVKgyh-23">
          <mxGeometry width="100" height="100" relative="1" as="geometry">
            <Array as="points" />
          </mxGeometry>
        </mxCell>
        <mxCell id="wwfGKBPIN9AT0zzVKgyh-26" value="" style="html=1;jettySize=18;whiteSpace=wrap;fontSize=13;strokeColor=#3a414a;strokeOpacity=100;strokeWidth=2.3;rounded=1;arcSize=12;edgeStyle=orthogonalEdgeStyle;startArrow=none;endArrow=block;endFill=1;exitX=1.006;exitY=0.5;exitPerimeter=0;entryX=-0.004;entryY=0.5;entryPerimeter=0;lucidId=X~WwsiyL9Adn;fontColor=#FFFFFF;labelBorderColor=default;" edge="1" parent="1" source="wwfGKBPIN9AT0zzVKgyh-10" target="wwfGKBPIN9AT0zzVKgyh-22">
          <mxGeometry width="100" height="100" relative="1" as="geometry">
            <Array as="points" />
          </mxGeometry>
        </mxCell>
        <mxCell id="wwfGKBPIN9AT0zzVKgyh-27" value="" style="html=1;jettySize=18;whiteSpace=wrap;fontSize=13;strokeColor=#FFFFFF;strokeOpacity=100;strokeWidth=2.3;rounded=1;arcSize=12;edgeStyle=orthogonalEdgeStyle;startArrow=none;endArrow=block;endFill=1;exitX=1.006;exitY=0.5;exitPerimeter=0;entryX=-0.004;entryY=0.5;entryPerimeter=0;lucidId=0~WwxIV1meO2;fontColor=#FFFFFF;labelBorderColor=default;" edge="1" parent="1" source="wwfGKBPIN9AT0zzVKgyh-11" target="wwfGKBPIN9AT0zzVKgyh-22">
          <mxGeometry width="100" height="100" relative="1" as="geometry">
            <Array as="points" />
          </mxGeometry>
        </mxCell>
        <mxCell id="wwfGKBPIN9AT0zzVKgyh-28" value="" style="html=1;jettySize=18;whiteSpace=wrap;fontSize=13;strokeColor=#FFFFFF;strokeOpacity=100;strokeWidth=2.3;rounded=1;arcSize=12;edgeStyle=orthogonalEdgeStyle;startArrow=none;endArrow=block;endFill=1;exitX=1.006;exitY=0.5;exitPerimeter=0;entryX=-0.004;entryY=0.5;entryPerimeter=0;lucidId=caXwZ3tZxYw-;fontColor=#FFFFFF;labelBorderColor=default;" edge="1" parent="1" source="wwfGKBPIN9AT0zzVKgyh-11" target="wwfGKBPIN9AT0zzVKgyh-21">
          <mxGeometry width="100" height="100" relative="1" as="geometry">
            <Array as="points" />
          </mxGeometry>
        </mxCell>
        <mxCell id="wwfGKBPIN9AT0zzVKgyh-29" value="" style="html=1;jettySize=18;whiteSpace=wrap;fontSize=13;strokeColor=#FFFFFF;strokeOpacity=100;strokeWidth=2.3;rounded=1;arcSize=12;edgeStyle=orthogonalEdgeStyle;startArrow=none;endArrow=block;endFill=1;exitX=1.006;exitY=0.5;exitPerimeter=0;entryX=-0.004;entryY=0.5;entryPerimeter=0;lucidId=iaXwv.EcjnFe;fontColor=#FFFFFF;labelBorderColor=default;" edge="1" parent="1" source="wwfGKBPIN9AT0zzVKgyh-11" target="wwfGKBPIN9AT0zzVKgyh-23">
          <mxGeometry width="100" height="100" relative="1" as="geometry">
            <Array as="points" />
          </mxGeometry>
        </mxCell>
        <mxCell id="wwfGKBPIN9AT0zzVKgyh-183" style="edgeStyle=orthogonalEdgeStyle;rounded=1;orthogonalLoop=1;jettySize=auto;html=1;entryX=0.5;entryY=0;entryDx=0;entryDy=0;strokeColor=#ffffff;strokeWidth=2.3;align=center;verticalAlign=middle;arcSize=12;fontFamily=Helvetica;fontSize=13;fontColor=#FFFFFF;labelBorderColor=default;labelBackgroundColor=default;startArrow=none;endArrow=block;endFill=1;" edge="1" parent="1" source="wwfGKBPIN9AT0zzVKgyh-30" target="wwfGKBPIN9AT0zzVKgyh-178">
          <mxGeometry relative="1" as="geometry">
            <Array as="points">
              <mxPoint x="1490" y="-289" />
              <mxPoint x="1490" y="314" />
              <mxPoint x="1395" y="314" />
            </Array>
          </mxGeometry>
        </mxCell>
        <mxCell id="wwfGKBPIN9AT0zzVKgyh-30" value="Setting Up Server-Side Scripting week 29 to 32" style="html=1;overflow=block;blockSpacing=1;whiteSpace=wrap;fontSize=16.7;spacing=9;strokeColor=#fff;rounded=1;absoluteArcSize=1;arcSize=9;fillColor=#unset;strokeWidth=2;lucidId=xaXwqu1xT6aE;fontColor=#FFFFFF;labelBorderColor=default;align=center;verticalAlign=middle;fontFamily=Helvetica;" vertex="1" parent="1">
          <mxGeometry x="1150" y="-356" width="240" height="134" as="geometry" />
        </mxCell>
        <mxCell id="wwfGKBPIN9AT0zzVKgyh-31" value="" style="html=1;jettySize=18;whiteSpace=wrap;fontSize=13;strokeColor=#ffffff;strokeOpacity=100;strokeWidth=2.3;rounded=1;arcSize=12;edgeStyle=orthogonalEdgeStyle;startArrow=none;endArrow=block;endFill=1;exitX=1.004;exitY=0.5;exitPerimeter=0;entryX=-0.003;entryY=0.5;entryPerimeter=0;lucidId=_aXw-rAT58jd;fontColor=#FFFFFF;labelBorderColor=default;" edge="1" parent="1" source="wwfGKBPIN9AT0zzVKgyh-22" target="wwfGKBPIN9AT0zzVKgyh-30">
          <mxGeometry width="100" height="100" relative="1" as="geometry">
            <Array as="points" />
          </mxGeometry>
        </mxCell>
        <mxCell id="wwfGKBPIN9AT0zzVKgyh-32" value="" style="html=1;jettySize=18;whiteSpace=wrap;fontSize=13;strokeColor=#ffffff;strokeOpacity=100;strokeWidth=2.3;rounded=1;arcSize=12;edgeStyle=orthogonalEdgeStyle;startArrow=none;endArrow=block;endFill=1;exitX=1.004;exitY=0.5;exitPerimeter=0;entryX=-0.003;entryY=0.5;entryPerimeter=0;lucidId=~aXwqGwUXMOK;fontColor=#FFFFFF;labelBorderColor=default;" edge="1" parent="1" source="wwfGKBPIN9AT0zzVKgyh-21" target="wwfGKBPIN9AT0zzVKgyh-30">
          <mxGeometry width="100" height="100" relative="1" as="geometry">
            <Array as="points" />
          </mxGeometry>
        </mxCell>
        <mxCell id="wwfGKBPIN9AT0zzVKgyh-33" value="" style="html=1;jettySize=18;whiteSpace=wrap;fontSize=13;strokeColor=#ffffff;strokeOpacity=100;strokeWidth=2.3;rounded=1;arcSize=12;edgeStyle=orthogonalEdgeStyle;startArrow=none;endArrow=block;endFill=1;exitX=1.004;exitY=0.5;exitPerimeter=0;entryX=-0.003;entryY=0.5;entryPerimeter=0;lucidId=bbXwTyQICqyS;fontColor=#FFFFFF;labelBorderColor=default;" edge="1" parent="1" source="wwfGKBPIN9AT0zzVKgyh-23" target="wwfGKBPIN9AT0zzVKgyh-30">
          <mxGeometry width="100" height="100" relative="1" as="geometry">
            <Array as="points" />
          </mxGeometry>
        </mxCell>
        <mxCell id="wwfGKBPIN9AT0zzVKgyh-34" value="Course Creation week 6 to 7" style="html=1;overflow=block;blockSpacing=1;whiteSpace=wrap;fontSize=16.7;spacing=9;strokeColor=#fff;rounded=1;absoluteArcSize=1;arcSize=9;fillColor=#unset;strokeWidth=2;lucidId=nbXwz~CWfo2K;fontColor=#FFFFFF;labelBorderColor=default;align=center;verticalAlign=middle;fontFamily=Helvetica;" vertex="1" parent="1">
          <mxGeometry x="-420" y="-30" width="120" height="90" as="geometry" />
        </mxCell>
        <mxCell id="wwfGKBPIN9AT0zzVKgyh-35" value="" style="html=1;jettySize=18;whiteSpace=wrap;fontSize=13;strokeColor=#ffffff;strokeOpacity=100;strokeWidth=2.3;rounded=1;arcSize=12;edgeStyle=orthogonalEdgeStyle;startArrow=none;endArrow=block;endFill=1;exitX=1.006;exitY=0.5;exitPerimeter=0;entryX=-0.006;entryY=0.5;entryPerimeter=0;lucidId=ZbXwPBj7xnwB;fontColor=#FFFFFF;labelBorderColor=default;" edge="1" parent="1" source="wwfGKBPIN9AT0zzVKgyh-3" target="wwfGKBPIN9AT0zzVKgyh-34">
          <mxGeometry width="100" height="100" relative="1" as="geometry">
            <Array as="points" />
          </mxGeometry>
        </mxCell>
        <mxCell id="wwfGKBPIN9AT0zzVKgyh-36" value="Course Description Writing week 8 to 8.5" style="html=1;overflow=block;blockSpacing=1;whiteSpace=wrap;fontSize=16.7;spacing=9;strokeColor=#fff;rounded=1;absoluteArcSize=1;arcSize=9;fillColor=#unset;strokeWidth=2;lucidId=HdXwfL1GC3cv;fontColor=#FFFFFF;labelBorderColor=default;align=center;verticalAlign=middle;fontFamily=Helvetica;" vertex="1" parent="1">
          <mxGeometry x="-225" y="-105" width="180" height="60" as="geometry" />
        </mxCell>
        <mxCell id="wwfGKBPIN9AT0zzVKgyh-37" value="Assignment week 8" style="html=1;overflow=block;blockSpacing=1;whiteSpace=wrap;fontSize=16.7;spacing=9;strokeColor=#fff;rounded=1;absoluteArcSize=1;arcSize=9;fillColor=#unset;strokeWidth=2;lucidId=ZdXwweveCj7J;fontColor=#FFFFFF;labelBorderColor=default;align=center;verticalAlign=middle;fontFamily=Helvetica;" vertex="1" parent="1">
          <mxGeometry x="-225" y="-30" width="180" height="60" as="geometry" />
        </mxCell>
        <mxCell id="wwfGKBPIN9AT0zzVKgyh-38" value="Quiz and Test Set Up week 8" style="html=1;overflow=block;blockSpacing=1;whiteSpace=wrap;fontSize=16.7;spacing=9;strokeColor=#fff;rounded=1;absoluteArcSize=1;arcSize=9;fillColor=#unset;strokeWidth=2;lucidId=0dXwEiZ8F8B8;fontColor=#FFFFFF;labelBorderColor=default;align=center;verticalAlign=middle;fontFamily=Helvetica;" vertex="1" parent="1">
          <mxGeometry x="-225" y="45" width="180" height="60" as="geometry" />
        </mxCell>
        <mxCell id="wwfGKBPIN9AT0zzVKgyh-39" value="Assignment Distribution week 8" style="html=1;overflow=block;blockSpacing=1;whiteSpace=wrap;fontSize=16.7;spacing=9;strokeColor=#fff;rounded=1;absoluteArcSize=1;arcSize=9;fillColor=#unset;strokeWidth=2;lucidId=0dXwlqodynDd;fontColor=#FFFFFF;labelBorderColor=default;align=center;verticalAlign=middle;fontFamily=Helvetica;" vertex="1" parent="1">
          <mxGeometry x="-225" y="120" width="180" height="60" as="geometry" />
        </mxCell>
        <mxCell id="wwfGKBPIN9AT0zzVKgyh-40" value="" style="html=1;jettySize=18;whiteSpace=wrap;fontSize=13;strokeColor=#ffffff;strokeOpacity=100;strokeWidth=2.3;rounded=1;arcSize=12;edgeStyle=orthogonalEdgeStyle;startArrow=none;endArrow=block;endFill=1;exitX=1.006;exitY=0.5;exitPerimeter=0;entryX=-0.004;entryY=0.5;entryPerimeter=0;lucidId=LfXwT70a8j6p;fontColor=#FFFFFF;labelBorderColor=default;" edge="1" parent="1" source="wwfGKBPIN9AT0zzVKgyh-34" target="wwfGKBPIN9AT0zzVKgyh-36">
          <mxGeometry width="100" height="100" relative="1" as="geometry">
            <Array as="points" />
          </mxGeometry>
        </mxCell>
        <mxCell id="wwfGKBPIN9AT0zzVKgyh-41" value="" style="html=1;jettySize=18;whiteSpace=wrap;fontSize=13;strokeColor=#ffffff;strokeOpacity=100;strokeWidth=2.3;rounded=1;arcSize=12;edgeStyle=orthogonalEdgeStyle;startArrow=none;endArrow=block;endFill=1;exitX=1.006;exitY=0.5;exitPerimeter=0;entryX=-0.004;entryY=0.5;entryPerimeter=0;lucidId=OfXwQFNfLlZv;fontColor=#FFFFFF;labelBorderColor=default;" edge="1" parent="1" source="wwfGKBPIN9AT0zzVKgyh-34" target="wwfGKBPIN9AT0zzVKgyh-37">
          <mxGeometry width="100" height="100" relative="1" as="geometry">
            <Array as="points" />
          </mxGeometry>
        </mxCell>
        <mxCell id="wwfGKBPIN9AT0zzVKgyh-42" value="" style="html=1;jettySize=18;whiteSpace=wrap;fontSize=13;strokeColor=#ffffff;strokeOpacity=100;strokeWidth=2.3;rounded=1;arcSize=12;edgeStyle=orthogonalEdgeStyle;startArrow=none;endArrow=block;endFill=1;exitX=1.006;exitY=0.5;exitPerimeter=0;entryX=-0.004;entryY=0.5;entryPerimeter=0;lucidId=QfXwIs5HDcie;fontColor=#FFFFFF;labelBorderColor=default;" edge="1" parent="1" source="wwfGKBPIN9AT0zzVKgyh-34" target="wwfGKBPIN9AT0zzVKgyh-38">
          <mxGeometry width="100" height="100" relative="1" as="geometry">
            <Array as="points" />
          </mxGeometry>
        </mxCell>
        <mxCell id="wwfGKBPIN9AT0zzVKgyh-43" value="" style="html=1;jettySize=18;whiteSpace=wrap;fontSize=13;strokeColor=#ffffff;strokeOpacity=100;strokeWidth=2.3;rounded=1;arcSize=12;edgeStyle=orthogonalEdgeStyle;startArrow=none;endArrow=block;endFill=1;exitX=1.006;exitY=0.5;exitPerimeter=0;entryX=-0.004;entryY=0.5;entryPerimeter=0;lucidId=TfXw6b0PjS4b;fontColor=#FFFFFF;labelBorderColor=default;" edge="1" parent="1" source="wwfGKBPIN9AT0zzVKgyh-34" target="wwfGKBPIN9AT0zzVKgyh-39">
          <mxGeometry width="100" height="100" relative="1" as="geometry">
            <Array as="points" />
          </mxGeometry>
        </mxCell>
        <mxCell id="wwfGKBPIN9AT0zzVKgyh-44" value="Course Content Upload week 9" style="html=1;overflow=block;blockSpacing=1;whiteSpace=wrap;fontSize=16.7;spacing=9;strokeColor=#fff;rounded=1;absoluteArcSize=1;arcSize=9;fillColor=#unset;strokeWidth=2;lucidId=agXwA_L-jVMt;fontColor=#FFFFFF;labelBorderColor=default;align=center;verticalAlign=middle;fontFamily=Helvetica;" vertex="1" parent="1">
          <mxGeometry x="120" y="-19" width="195" height="102" as="geometry" />
        </mxCell>
        <mxCell id="wwfGKBPIN9AT0zzVKgyh-45" value="" style="html=1;jettySize=18;whiteSpace=wrap;fontSize=13;strokeColor=#ffffff;strokeOpacity=100;strokeWidth=2.3;rounded=1;arcSize=12;edgeStyle=orthogonalEdgeStyle;startArrow=none;endArrow=block;endFill=1;exitX=1.004;exitY=0.5;exitPerimeter=0;entryX=-0.004;entryY=0.5;entryPerimeter=0;lucidId=ugXwbtHk9.Fa;fontColor=#FFFFFF;labelBorderColor=default;" edge="1" parent="1" source="wwfGKBPIN9AT0zzVKgyh-36" target="wwfGKBPIN9AT0zzVKgyh-44">
          <mxGeometry width="100" height="100" relative="1" as="geometry">
            <Array as="points" />
          </mxGeometry>
        </mxCell>
        <mxCell id="wwfGKBPIN9AT0zzVKgyh-46" value="" style="html=1;jettySize=18;whiteSpace=wrap;fontSize=13;strokeColor=#ffffff;strokeOpacity=100;strokeWidth=2.3;rounded=1;arcSize=12;edgeStyle=orthogonalEdgeStyle;startArrow=none;endArrow=block;endFill=1;exitX=1.004;exitY=0.5;exitPerimeter=0;entryX=-0.004;entryY=0.5;entryPerimeter=0;lucidId=wgXwgXA2iIJe;fontColor=#FFFFFF;labelBorderColor=default;" edge="1" parent="1" source="wwfGKBPIN9AT0zzVKgyh-37" target="wwfGKBPIN9AT0zzVKgyh-44">
          <mxGeometry width="100" height="100" relative="1" as="geometry">
            <Array as="points" />
          </mxGeometry>
        </mxCell>
        <mxCell id="wwfGKBPIN9AT0zzVKgyh-47" value="" style="html=1;jettySize=18;whiteSpace=wrap;fontSize=13;strokeColor=#ffffff;strokeOpacity=100;strokeWidth=2.3;rounded=1;arcSize=12;edgeStyle=orthogonalEdgeStyle;startArrow=none;endArrow=block;endFill=1;exitX=1.004;exitY=0.5;exitPerimeter=0;entryX=-0.004;entryY=0.5;entryPerimeter=0;lucidId=xgXwigSr5u_B;fontColor=#FFFFFF;labelBorderColor=default;" edge="1" parent="1" source="wwfGKBPIN9AT0zzVKgyh-38" target="wwfGKBPIN9AT0zzVKgyh-44">
          <mxGeometry width="100" height="100" relative="1" as="geometry">
            <Array as="points" />
          </mxGeometry>
        </mxCell>
        <mxCell id="wwfGKBPIN9AT0zzVKgyh-48" value="" style="html=1;jettySize=18;whiteSpace=wrap;fontSize=13;strokeColor=#ffffff;strokeOpacity=100;strokeWidth=2.3;rounded=1;arcSize=12;edgeStyle=orthogonalEdgeStyle;startArrow=none;endArrow=block;endFill=1;exitX=1.004;exitY=0.5;exitPerimeter=0;entryX=-0.004;entryY=0.5;entryPerimeter=0;lucidId=zgXw494s_LPo;fontColor=#FFFFFF;labelBorderColor=default;" edge="1" parent="1" source="wwfGKBPIN9AT0zzVKgyh-39" target="wwfGKBPIN9AT0zzVKgyh-44">
          <mxGeometry width="100" height="100" relative="1" as="geometry">
            <Array as="points" />
          </mxGeometry>
        </mxCell>
        <mxCell id="wwfGKBPIN9AT0zzVKgyh-169" style="edgeStyle=orthogonalEdgeStyle;rounded=1;orthogonalLoop=1;jettySize=auto;html=1;entryX=0;entryY=0.5;entryDx=0;entryDy=0;strokeColor=#ffffff;strokeWidth=2.3;align=center;verticalAlign=middle;arcSize=12;fontFamily=Helvetica;fontSize=13;fontColor=#FFFFFF;labelBorderColor=default;labelBackgroundColor=default;startArrow=none;endArrow=block;endFill=1;" edge="1" parent="1" source="wwfGKBPIN9AT0zzVKgyh-49" target="wwfGKBPIN9AT0zzVKgyh-93">
          <mxGeometry relative="1" as="geometry" />
        </mxCell>
        <mxCell id="wwfGKBPIN9AT0zzVKgyh-170" style="edgeStyle=orthogonalEdgeStyle;rounded=1;orthogonalLoop=1;jettySize=auto;html=1;entryX=0;entryY=0.5;entryDx=0;entryDy=0;strokeColor=#ffffff;strokeWidth=2.3;align=center;verticalAlign=middle;arcSize=12;fontFamily=Helvetica;fontSize=13;fontColor=#FFFFFF;labelBorderColor=default;labelBackgroundColor=default;startArrow=none;endArrow=block;endFill=1;" edge="1" parent="1" source="wwfGKBPIN9AT0zzVKgyh-49" target="wwfGKBPIN9AT0zzVKgyh-94">
          <mxGeometry relative="1" as="geometry" />
        </mxCell>
        <mxCell id="wwfGKBPIN9AT0zzVKgyh-49" value="Learner Management week 10" style="html=1;overflow=block;blockSpacing=1;whiteSpace=wrap;fontSize=16.7;spacing=9;strokeColor=#fff;rounded=1;absoluteArcSize=1;arcSize=9;fillColor=#unset;strokeWidth=2;lucidId=EgXwhM0OylRJ;fontColor=#FFFFFF;labelBorderColor=default;align=center;verticalAlign=middle;fontFamily=Helvetica;" vertex="1" parent="1">
          <mxGeometry x="450" y="-105" width="120" height="90" as="geometry" />
        </mxCell>
        <mxCell id="wwfGKBPIN9AT0zzVKgyh-171" style="edgeStyle=orthogonalEdgeStyle;rounded=1;orthogonalLoop=1;jettySize=auto;html=1;entryX=0;entryY=0.5;entryDx=0;entryDy=0;strokeColor=#ffffff;strokeWidth=2.3;align=center;verticalAlign=middle;arcSize=12;fontFamily=Helvetica;fontSize=13;fontColor=#FFFFFF;labelBorderColor=default;labelBackgroundColor=default;startArrow=none;endArrow=block;endFill=1;" edge="1" parent="1" source="wwfGKBPIN9AT0zzVKgyh-50" target="wwfGKBPIN9AT0zzVKgyh-93">
          <mxGeometry relative="1" as="geometry" />
        </mxCell>
        <mxCell id="wwfGKBPIN9AT0zzVKgyh-172" style="edgeStyle=orthogonalEdgeStyle;rounded=1;orthogonalLoop=1;jettySize=auto;html=1;entryX=0;entryY=0.5;entryDx=0;entryDy=0;strokeColor=#ffffff;strokeWidth=2.3;align=center;verticalAlign=middle;arcSize=12;fontFamily=Helvetica;fontSize=13;fontColor=#FFFFFF;labelBorderColor=default;labelBackgroundColor=default;startArrow=none;endArrow=block;endFill=1;" edge="1" parent="1" source="wwfGKBPIN9AT0zzVKgyh-50" target="wwfGKBPIN9AT0zzVKgyh-94">
          <mxGeometry relative="1" as="geometry" />
        </mxCell>
        <mxCell id="wwfGKBPIN9AT0zzVKgyh-50" value="Course Deletion week 10" style="html=1;overflow=block;blockSpacing=1;whiteSpace=wrap;fontSize=16.7;spacing=9;strokeColor=#fff;rounded=1;absoluteArcSize=1;arcSize=9;fillColor=#unset;strokeWidth=2;lucidId=UgXwEJfHbdwM;fontColor=#FFFFFF;labelBorderColor=default;align=center;verticalAlign=middle;fontFamily=Helvetica;" vertex="1" parent="1">
          <mxGeometry x="450" y="15" width="120" height="90" as="geometry" />
        </mxCell>
        <mxCell id="wwfGKBPIN9AT0zzVKgyh-51" value="" style="html=1;jettySize=18;whiteSpace=wrap;fontSize=13;strokeColor=#ffffff;strokeOpacity=100;strokeWidth=2.3;rounded=1;arcSize=12;edgeStyle=orthogonalEdgeStyle;startArrow=none;endArrow=block;endFill=1;exitX=1.004;exitY=0.5;exitPerimeter=0;entryX=-0.006;entryY=0.5;entryPerimeter=0;lucidId=fhXw00qEVeyT;fontColor=#FFFFFF;labelBorderColor=default;" edge="1" parent="1" source="wwfGKBPIN9AT0zzVKgyh-44" target="wwfGKBPIN9AT0zzVKgyh-49">
          <mxGeometry width="100" height="100" relative="1" as="geometry">
            <Array as="points" />
          </mxGeometry>
        </mxCell>
        <mxCell id="wwfGKBPIN9AT0zzVKgyh-52" value="" style="html=1;jettySize=18;whiteSpace=wrap;fontSize=13;strokeColor=#ffffff;strokeOpacity=100;strokeWidth=2.3;rounded=1;arcSize=12;edgeStyle=orthogonalEdgeStyle;startArrow=none;endArrow=block;endFill=1;exitX=1.004;exitY=0.5;exitPerimeter=0;entryX=-0.006;entryY=0.5;entryPerimeter=0;lucidId=ihXw_zmfKt7_;fontColor=#FFFFFF;labelBorderColor=default;" edge="1" parent="1" source="wwfGKBPIN9AT0zzVKgyh-44" target="wwfGKBPIN9AT0zzVKgyh-50">
          <mxGeometry width="100" height="100" relative="1" as="geometry">
            <Array as="points" />
          </mxGeometry>
        </mxCell>
        <mxCell id="wwfGKBPIN9AT0zzVKgyh-66" style="edgeStyle=orthogonalEdgeStyle;rounded=0;orthogonalLoop=1;jettySize=auto;html=1;fontFamily=Helvetica;fontSize=26.7;fontColor=#FFFFFF;labelBorderColor=none;" edge="1" parent="1" source="wwfGKBPIN9AT0zzVKgyh-53" target="wwfGKBPIN9AT0zzVKgyh-59">
          <mxGeometry relative="1" as="geometry" />
        </mxCell>
        <mxCell id="wwfGKBPIN9AT0zzVKgyh-67" style="edgeStyle=orthogonalEdgeStyle;rounded=0;orthogonalLoop=1;jettySize=auto;html=1;fontFamily=Helvetica;fontSize=26.7;fontColor=#FFFFFF;labelBorderColor=none;" edge="1" parent="1" source="wwfGKBPIN9AT0zzVKgyh-53" target="wwfGKBPIN9AT0zzVKgyh-59">
          <mxGeometry relative="1" as="geometry" />
        </mxCell>
        <mxCell id="wwfGKBPIN9AT0zzVKgyh-80" style="edgeStyle=orthogonalEdgeStyle;rounded=1;orthogonalLoop=1;jettySize=auto;html=1;entryX=0;entryY=0.5;entryDx=0;entryDy=0;strokeColor=#ffffff;strokeWidth=2.3;align=center;verticalAlign=middle;arcSize=12;fontFamily=Helvetica;fontSize=13;fontColor=#FFFFFF;labelBorderColor=default;labelBackgroundColor=default;startArrow=none;endArrow=block;endFill=1;" edge="1" parent="1" source="wwfGKBPIN9AT0zzVKgyh-53" target="wwfGKBPIN9AT0zzVKgyh-59">
          <mxGeometry relative="1" as="geometry" />
        </mxCell>
        <mxCell id="wwfGKBPIN9AT0zzVKgyh-81" style="edgeStyle=orthogonalEdgeStyle;rounded=1;orthogonalLoop=1;jettySize=auto;html=1;entryX=0;entryY=0.5;entryDx=0;entryDy=0;strokeColor=#ffffff;strokeWidth=2.3;align=center;verticalAlign=middle;arcSize=12;fontFamily=Helvetica;fontSize=13;fontColor=#FFFFFF;labelBorderColor=default;labelBackgroundColor=default;startArrow=none;endArrow=block;endFill=1;" edge="1" parent="1" source="wwfGKBPIN9AT0zzVKgyh-53" target="wwfGKBPIN9AT0zzVKgyh-71">
          <mxGeometry relative="1" as="geometry" />
        </mxCell>
        <mxCell id="wwfGKBPIN9AT0zzVKgyh-82" style="edgeStyle=orthogonalEdgeStyle;rounded=1;orthogonalLoop=1;jettySize=auto;html=1;entryX=0;entryY=0.5;entryDx=0;entryDy=0;strokeColor=#ffffff;strokeWidth=2.3;align=center;verticalAlign=middle;arcSize=12;fontFamily=Helvetica;fontSize=13;fontColor=#FFFFFF;labelBorderColor=default;labelBackgroundColor=default;startArrow=none;endArrow=block;endFill=1;" edge="1" parent="1" source="wwfGKBPIN9AT0zzVKgyh-53" target="wwfGKBPIN9AT0zzVKgyh-72">
          <mxGeometry relative="1" as="geometry" />
        </mxCell>
        <mxCell id="wwfGKBPIN9AT0zzVKgyh-83" style="edgeStyle=orthogonalEdgeStyle;rounded=1;orthogonalLoop=1;jettySize=auto;html=1;entryX=0;entryY=0.5;entryDx=0;entryDy=0;strokeColor=#ffffff;strokeWidth=2.3;align=center;verticalAlign=middle;arcSize=12;fontFamily=Helvetica;fontSize=13;fontColor=#FFFFFF;labelBorderColor=default;labelBackgroundColor=default;startArrow=none;endArrow=block;endFill=1;" edge="1" parent="1" source="wwfGKBPIN9AT0zzVKgyh-53" target="wwfGKBPIN9AT0zzVKgyh-73">
          <mxGeometry relative="1" as="geometry" />
        </mxCell>
        <mxCell id="wwfGKBPIN9AT0zzVKgyh-53" value="User Registration week 6" style="html=1;overflow=block;blockSpacing=1;whiteSpace=wrap;fontSize=16.7;spacing=9;strokeColor=#fff;rounded=1;absoluteArcSize=1;arcSize=9;fillColor=#unset;strokeWidth=2;lucidId=UhXw6~Vt_834;fontColor=#FFFFFF;labelBorderColor=default;align=center;verticalAlign=middle;fontFamily=Helvetica;" vertex="1" parent="1">
          <mxGeometry x="-390" y="195" width="225" height="45" as="geometry" />
        </mxCell>
        <mxCell id="wwfGKBPIN9AT0zzVKgyh-75" style="edgeStyle=orthogonalEdgeStyle;rounded=1;orthogonalLoop=1;jettySize=auto;html=1;entryX=0;entryY=0.5;entryDx=0;entryDy=0;strokeColor=#ffffff;strokeWidth=2.3;align=center;verticalAlign=middle;arcSize=12;fontFamily=Helvetica;fontSize=13;fontColor=#FFFFFF;labelBorderColor=default;labelBackgroundColor=default;startArrow=none;endArrow=block;endFill=1;" edge="1" parent="1" source="wwfGKBPIN9AT0zzVKgyh-54" target="wwfGKBPIN9AT0zzVKgyh-71">
          <mxGeometry relative="1" as="geometry" />
        </mxCell>
        <mxCell id="wwfGKBPIN9AT0zzVKgyh-76" style="edgeStyle=orthogonalEdgeStyle;rounded=1;orthogonalLoop=1;jettySize=auto;html=1;strokeColor=#ffffff;strokeWidth=2.3;align=center;verticalAlign=middle;arcSize=12;fontFamily=Helvetica;fontSize=13;fontColor=#FFFFFF;labelBorderColor=default;labelBackgroundColor=default;startArrow=none;endArrow=block;endFill=1;" edge="1" parent="1" source="wwfGKBPIN9AT0zzVKgyh-54" target="wwfGKBPIN9AT0zzVKgyh-72">
          <mxGeometry relative="1" as="geometry" />
        </mxCell>
        <mxCell id="wwfGKBPIN9AT0zzVKgyh-78" style="edgeStyle=orthogonalEdgeStyle;rounded=1;orthogonalLoop=1;jettySize=auto;html=1;entryX=0;entryY=0.5;entryDx=0;entryDy=0;strokeColor=#ffffff;strokeWidth=2.3;align=center;verticalAlign=middle;arcSize=12;fontFamily=Helvetica;fontSize=13;fontColor=#FFFFFF;labelBorderColor=default;labelBackgroundColor=default;startArrow=none;endArrow=block;endFill=1;" edge="1" parent="1" source="wwfGKBPIN9AT0zzVKgyh-54" target="wwfGKBPIN9AT0zzVKgyh-73">
          <mxGeometry relative="1" as="geometry" />
        </mxCell>
        <mxCell id="wwfGKBPIN9AT0zzVKgyh-79" style="edgeStyle=orthogonalEdgeStyle;rounded=1;orthogonalLoop=1;jettySize=auto;html=1;entryX=0;entryY=0.5;entryDx=0;entryDy=0;strokeColor=#ffffff;strokeWidth=2.3;align=center;verticalAlign=middle;arcSize=12;fontFamily=Helvetica;fontSize=13;fontColor=#FFFFFF;labelBorderColor=default;labelBackgroundColor=default;startArrow=none;endArrow=block;endFill=1;" edge="1" parent="1" source="wwfGKBPIN9AT0zzVKgyh-54" target="wwfGKBPIN9AT0zzVKgyh-59">
          <mxGeometry relative="1" as="geometry" />
        </mxCell>
        <mxCell id="wwfGKBPIN9AT0zzVKgyh-54" value="Account Verification week 6 to 7.5" style="html=1;overflow=block;blockSpacing=1;whiteSpace=wrap;fontSize=16.7;spacing=9;strokeColor=#fff;rounded=1;absoluteArcSize=1;arcSize=9;fillColor=#unset;strokeWidth=2;lucidId=3hXwF-RyQWHk;fontColor=#FFFFFF;labelBorderColor=default;align=center;verticalAlign=middle;fontFamily=Helvetica;" vertex="1" parent="1">
          <mxGeometry x="-390" y="249" width="225" height="58" as="geometry" />
        </mxCell>
        <mxCell id="wwfGKBPIN9AT0zzVKgyh-84" style="edgeStyle=orthogonalEdgeStyle;rounded=1;orthogonalLoop=1;jettySize=auto;html=1;entryX=0;entryY=0.5;entryDx=0;entryDy=0;strokeColor=#ffffff;strokeWidth=2.3;align=center;verticalAlign=middle;arcSize=12;fontFamily=Helvetica;fontSize=13;fontColor=#FFFFFF;labelBorderColor=default;labelBackgroundColor=default;startArrow=none;endArrow=block;endFill=1;" edge="1" parent="1" source="wwfGKBPIN9AT0zzVKgyh-55" target="wwfGKBPIN9AT0zzVKgyh-59">
          <mxGeometry relative="1" as="geometry" />
        </mxCell>
        <mxCell id="wwfGKBPIN9AT0zzVKgyh-85" style="edgeStyle=orthogonalEdgeStyle;rounded=1;orthogonalLoop=1;jettySize=auto;html=1;entryX=0;entryY=0.5;entryDx=0;entryDy=0;strokeColor=#ffffff;strokeWidth=2.3;align=center;verticalAlign=middle;arcSize=12;fontFamily=Helvetica;fontSize=13;fontColor=#FFFFFF;labelBorderColor=default;labelBackgroundColor=default;startArrow=none;endArrow=block;endFill=1;" edge="1" parent="1" source="wwfGKBPIN9AT0zzVKgyh-55" target="wwfGKBPIN9AT0zzVKgyh-71">
          <mxGeometry relative="1" as="geometry" />
        </mxCell>
        <mxCell id="wwfGKBPIN9AT0zzVKgyh-86" style="edgeStyle=orthogonalEdgeStyle;rounded=1;orthogonalLoop=1;jettySize=auto;html=1;entryX=0;entryY=0.5;entryDx=0;entryDy=0;strokeColor=#ffffff;strokeWidth=2.3;align=center;verticalAlign=middle;arcSize=12;fontFamily=Helvetica;fontSize=13;fontColor=#FFFFFF;labelBorderColor=default;labelBackgroundColor=default;startArrow=none;endArrow=block;endFill=1;" edge="1" parent="1" source="wwfGKBPIN9AT0zzVKgyh-55" target="wwfGKBPIN9AT0zzVKgyh-72">
          <mxGeometry relative="1" as="geometry" />
        </mxCell>
        <mxCell id="wwfGKBPIN9AT0zzVKgyh-87" style="edgeStyle=orthogonalEdgeStyle;rounded=1;orthogonalLoop=1;jettySize=auto;html=1;entryX=0;entryY=0.5;entryDx=0;entryDy=0;strokeColor=#ffffff;strokeWidth=2.3;align=center;verticalAlign=middle;arcSize=12;fontFamily=Helvetica;fontSize=13;fontColor=#FFFFFF;labelBorderColor=default;labelBackgroundColor=default;startArrow=none;endArrow=block;endFill=1;" edge="1" parent="1" source="wwfGKBPIN9AT0zzVKgyh-55" target="wwfGKBPIN9AT0zzVKgyh-73">
          <mxGeometry relative="1" as="geometry" />
        </mxCell>
        <mxCell id="wwfGKBPIN9AT0zzVKgyh-55" value="Multi-factor Authentication Setup week6" style="html=1;overflow=block;blockSpacing=1;whiteSpace=wrap;fontSize=16.7;spacing=9;strokeColor=#fff;rounded=1;absoluteArcSize=1;arcSize=9;fillColor=#unset;strokeWidth=2;lucidId=6hXwYlWiubw_;fontColor=#FFFFFF;labelBorderColor=default;align=center;verticalAlign=middle;fontFamily=Helvetica;" vertex="1" parent="1">
          <mxGeometry x="-390" y="315" width="225" height="58" as="geometry" />
        </mxCell>
        <mxCell id="wwfGKBPIN9AT0zzVKgyh-56" value="" style="html=1;jettySize=18;whiteSpace=wrap;fontSize=13;strokeColor=#ffffff;strokeOpacity=100;strokeWidth=2.3;rounded=1;arcSize=12;edgeStyle=orthogonalEdgeStyle;startArrow=none;endArrow=block;endFill=1;exitX=1.006;exitY=0.5;exitPerimeter=0;entryX=-0.003;entryY=0.5;entryPerimeter=0;lucidId=5iXwkR2r0KsJ;fontColor=#FFFFFF;labelBorderColor=default;" edge="1" parent="1" source="wwfGKBPIN9AT0zzVKgyh-4" target="wwfGKBPIN9AT0zzVKgyh-53">
          <mxGeometry width="100" height="100" relative="1" as="geometry">
            <Array as="points" />
          </mxGeometry>
        </mxCell>
        <mxCell id="wwfGKBPIN9AT0zzVKgyh-57" value="" style="html=1;jettySize=18;whiteSpace=wrap;fontSize=13;strokeColor=#ffffff;strokeOpacity=100;strokeWidth=2.3;rounded=1;arcSize=12;edgeStyle=orthogonalEdgeStyle;startArrow=none;endArrow=block;endFill=1;exitX=1.006;exitY=0.5;exitPerimeter=0;entryX=-0.003;entryY=0.5;entryPerimeter=0;lucidId=8iXwRTSM3o8p;fontColor=#FFFFFF;labelBorderColor=default;" edge="1" parent="1" source="wwfGKBPIN9AT0zzVKgyh-4" target="wwfGKBPIN9AT0zzVKgyh-54">
          <mxGeometry width="100" height="100" relative="1" as="geometry">
            <Array as="points" />
          </mxGeometry>
        </mxCell>
        <mxCell id="wwfGKBPIN9AT0zzVKgyh-58" value="" style="html=1;jettySize=18;whiteSpace=wrap;fontSize=13;strokeColor=#ffffff;strokeOpacity=100;strokeWidth=2.3;rounded=1;arcSize=12;edgeStyle=orthogonalEdgeStyle;startArrow=none;endArrow=block;endFill=1;exitX=1.006;exitY=0.5;exitPerimeter=0;entryX=-0.003;entryY=0.5;entryPerimeter=0;lucidId=_iXwDXbhE7wv;fontColor=#FFFFFF;labelBorderColor=default;" edge="1" parent="1" source="wwfGKBPIN9AT0zzVKgyh-4" target="wwfGKBPIN9AT0zzVKgyh-55">
          <mxGeometry width="100" height="100" relative="1" as="geometry">
            <Array as="points" />
          </mxGeometry>
        </mxCell>
        <mxCell id="wwfGKBPIN9AT0zzVKgyh-89" style="edgeStyle=orthogonalEdgeStyle;rounded=1;orthogonalLoop=1;jettySize=auto;html=1;entryX=0;entryY=0.5;entryDx=0;entryDy=0;strokeColor=#ffffff;strokeWidth=2.3;align=center;verticalAlign=middle;arcSize=12;fontFamily=Helvetica;fontSize=13;fontColor=#FFFFFF;labelBorderColor=default;labelBackgroundColor=default;startArrow=none;endArrow=block;endFill=1;" edge="1" parent="1" source="wwfGKBPIN9AT0zzVKgyh-59" target="wwfGKBPIN9AT0zzVKgyh-88">
          <mxGeometry relative="1" as="geometry" />
        </mxCell>
        <mxCell id="wwfGKBPIN9AT0zzVKgyh-59" value="User Preference Configuration week 7.5 to 8" style="overflow=block;blockSpacing=1;fontSize=16.7;spacing=9;strokeColor=#fff;rounded=1;absoluteArcSize=1;arcSize=9;fillColor=#unset;strokeWidth=2;lucidId=CjXwEdFr0lg.;fontColor=#FFFFFF;labelBorderColor=default;align=center;verticalAlign=top;fontFamily=Helvetica;whiteSpace=wrap;" vertex="1" parent="1">
          <mxGeometry x="30" y="169" width="260" height="51" as="geometry" />
        </mxCell>
        <mxCell id="wwfGKBPIN9AT0zzVKgyh-90" style="edgeStyle=orthogonalEdgeStyle;rounded=1;orthogonalLoop=1;jettySize=auto;html=1;entryX=0;entryY=0.5;entryDx=0;entryDy=0;strokeColor=#ffffff;strokeWidth=2.3;align=center;verticalAlign=middle;arcSize=12;fontFamily=Helvetica;fontSize=13;fontColor=#FFFFFF;labelBorderColor=default;labelBackgroundColor=default;startArrow=none;endArrow=block;endFill=1;" edge="1" parent="1" source="wwfGKBPIN9AT0zzVKgyh-71" target="wwfGKBPIN9AT0zzVKgyh-88">
          <mxGeometry relative="1" as="geometry" />
        </mxCell>
        <mxCell id="wwfGKBPIN9AT0zzVKgyh-71" value="Privacy Settings Update&#xa; week 7.5 to 8" style="overflow=block;blockSpacing=1;fontSize=16.7;spacing=9;strokeColor=#fff;rounded=1;absoluteArcSize=1;arcSize=9;fillColor=#unset;strokeWidth=2;lucidId=CjXwEdFr0lg.;fontColor=#FFFFFF;labelBorderColor=default;align=center;verticalAlign=top;fontFamily=Helvetica;whiteSpace=wrap;" vertex="1" parent="1">
          <mxGeometry x="30" y="233.5" width="260" height="51" as="geometry" />
        </mxCell>
        <mxCell id="wwfGKBPIN9AT0zzVKgyh-91" style="edgeStyle=orthogonalEdgeStyle;rounded=1;orthogonalLoop=1;jettySize=auto;html=1;entryX=0;entryY=0.5;entryDx=0;entryDy=0;strokeColor=#ffffff;strokeWidth=2.3;align=center;verticalAlign=middle;arcSize=12;fontFamily=Helvetica;fontSize=13;fontColor=#FFFFFF;labelBorderColor=default;labelBackgroundColor=default;startArrow=none;endArrow=block;endFill=1;" edge="1" parent="1" source="wwfGKBPIN9AT0zzVKgyh-72" target="wwfGKBPIN9AT0zzVKgyh-88">
          <mxGeometry relative="1" as="geometry" />
        </mxCell>
        <mxCell id="wwfGKBPIN9AT0zzVKgyh-72" value="User Login&#xa; week 7 to 8" style="overflow=block;blockSpacing=1;fontSize=16.7;spacing=9;strokeColor=#fff;rounded=1;absoluteArcSize=1;arcSize=9;fillColor=#unset;strokeWidth=2;lucidId=CjXwEdFr0lg.;fontColor=#FFFFFF;labelBorderColor=default;align=center;verticalAlign=top;fontFamily=Helvetica;whiteSpace=wrap;" vertex="1" parent="1">
          <mxGeometry x="30" y="300" width="260" height="51" as="geometry" />
        </mxCell>
        <mxCell id="wwfGKBPIN9AT0zzVKgyh-92" style="edgeStyle=orthogonalEdgeStyle;rounded=1;orthogonalLoop=1;jettySize=auto;html=1;entryX=0;entryY=0.5;entryDx=0;entryDy=0;strokeColor=#ffffff;strokeWidth=2.3;align=center;verticalAlign=middle;arcSize=12;fontFamily=Helvetica;fontSize=13;fontColor=#FFFFFF;labelBorderColor=default;labelBackgroundColor=default;startArrow=none;endArrow=block;endFill=1;" edge="1" parent="1" source="wwfGKBPIN9AT0zzVKgyh-73" target="wwfGKBPIN9AT0zzVKgyh-88">
          <mxGeometry relative="1" as="geometry" />
        </mxCell>
        <mxCell id="wwfGKBPIN9AT0zzVKgyh-73" value="Profile Setup&#xa; week 7.5 to 8" style="overflow=block;blockSpacing=1;fontSize=16.7;spacing=9;strokeColor=#fff;rounded=1;absoluteArcSize=1;arcSize=9;fillColor=#unset;strokeWidth=2;lucidId=CjXwEdFr0lg.;fontColor=#FFFFFF;labelBorderColor=default;align=center;verticalAlign=top;fontFamily=Helvetica;whiteSpace=wrap;" vertex="1" parent="1">
          <mxGeometry x="30" y="360" width="260" height="51" as="geometry" />
        </mxCell>
        <mxCell id="wwfGKBPIN9AT0zzVKgyh-95" style="edgeStyle=orthogonalEdgeStyle;rounded=1;orthogonalLoop=1;jettySize=auto;html=1;entryX=0;entryY=0.5;entryDx=0;entryDy=0;strokeColor=#ffffff;strokeWidth=2.3;align=center;verticalAlign=middle;arcSize=12;fontFamily=Helvetica;fontSize=13;fontColor=#FFFFFF;labelBorderColor=default;labelBackgroundColor=default;startArrow=none;endArrow=block;endFill=1;" edge="1" parent="1" source="wwfGKBPIN9AT0zzVKgyh-88" target="wwfGKBPIN9AT0zzVKgyh-93">
          <mxGeometry relative="1" as="geometry" />
        </mxCell>
        <mxCell id="wwfGKBPIN9AT0zzVKgyh-96" style="edgeStyle=orthogonalEdgeStyle;rounded=1;orthogonalLoop=1;jettySize=auto;html=1;entryX=0;entryY=0.5;entryDx=0;entryDy=0;strokeColor=#ffffff;strokeWidth=2.3;align=center;verticalAlign=middle;arcSize=12;fontFamily=Helvetica;fontSize=13;fontColor=#FFFFFF;labelBorderColor=default;labelBackgroundColor=default;startArrow=none;endArrow=block;endFill=1;" edge="1" parent="1" source="wwfGKBPIN9AT0zzVKgyh-88" target="wwfGKBPIN9AT0zzVKgyh-94">
          <mxGeometry relative="1" as="geometry" />
        </mxCell>
        <mxCell id="wwfGKBPIN9AT0zzVKgyh-88" value="Email Notifications Setup&lt;div&gt;week 9&lt;/div&gt;" style="html=1;overflow=block;blockSpacing=1;whiteSpace=wrap;fontSize=16.7;spacing=9;strokeColor=#fff;rounded=1;absoluteArcSize=1;arcSize=9;fillColor=#unset;strokeWidth=2;lucidId=UgXwEJfHbdwM;fontColor=#FFFFFF;labelBorderColor=default;align=center;verticalAlign=middle;fontFamily=Helvetica;" vertex="1" parent="1">
          <mxGeometry x="370" y="249" width="120" height="90" as="geometry" />
        </mxCell>
        <mxCell id="wwfGKBPIN9AT0zzVKgyh-104" style="edgeStyle=orthogonalEdgeStyle;rounded=1;orthogonalLoop=1;jettySize=auto;html=1;strokeColor=#ffffff;strokeWidth=2.3;align=center;verticalAlign=middle;arcSize=12;fontFamily=Helvetica;fontSize=13;fontColor=#FFFFFF;labelBorderColor=default;labelBackgroundColor=default;startArrow=none;endArrow=block;endFill=1;" edge="1" parent="1" source="wwfGKBPIN9AT0zzVKgyh-93" target="wwfGKBPIN9AT0zzVKgyh-97">
          <mxGeometry relative="1" as="geometry" />
        </mxCell>
        <mxCell id="wwfGKBPIN9AT0zzVKgyh-93" value="Course Browsing and Selection&lt;br&gt;&lt;div&gt;week 11 to 12&lt;/div&gt;" style="html=1;overflow=block;blockSpacing=1;whiteSpace=wrap;fontSize=16.7;spacing=9;strokeColor=#fff;rounded=1;absoluteArcSize=1;arcSize=9;fillColor=#unset;strokeWidth=2;lucidId=UgXwEJfHbdwM;fontColor=#FFFFFF;labelBorderColor=default;align=center;verticalAlign=middle;fontFamily=Helvetica;" vertex="1" parent="1">
          <mxGeometry x="660" y="175" width="120" height="120" as="geometry" />
        </mxCell>
        <mxCell id="wwfGKBPIN9AT0zzVKgyh-107" style="edgeStyle=orthogonalEdgeStyle;rounded=1;orthogonalLoop=1;jettySize=auto;html=1;strokeColor=#ffffff;strokeWidth=2.3;align=center;verticalAlign=middle;arcSize=12;fontFamily=Helvetica;fontSize=13;fontColor=#FFFFFF;labelBorderColor=default;labelBackgroundColor=default;startArrow=none;endArrow=block;endFill=1;" edge="1" parent="1" source="wwfGKBPIN9AT0zzVKgyh-94" target="wwfGKBPIN9AT0zzVKgyh-102">
          <mxGeometry relative="1" as="geometry" />
        </mxCell>
        <mxCell id="wwfGKBPIN9AT0zzVKgyh-94" value="Payment Integration&amp;nbsp;&lt;br&gt;&lt;div&gt;week 11 to 14&lt;/div&gt;" style="html=1;overflow=block;blockSpacing=1;whiteSpace=wrap;fontSize=16.7;spacing=9;strokeColor=#fff;rounded=1;absoluteArcSize=1;arcSize=9;fillColor=#unset;strokeWidth=2;lucidId=UgXwEJfHbdwM;fontColor=#FFFFFF;labelBorderColor=default;align=center;verticalAlign=middle;fontFamily=Helvetica;" vertex="1" parent="1">
          <mxGeometry x="660" y="316" width="290" height="52" as="geometry" />
        </mxCell>
        <mxCell id="wwfGKBPIN9AT0zzVKgyh-105" style="edgeStyle=orthogonalEdgeStyle;rounded=1;orthogonalLoop=1;jettySize=auto;html=1;strokeColor=#ffffff;strokeWidth=2.3;align=center;verticalAlign=middle;arcSize=12;fontFamily=Helvetica;fontSize=13;fontColor=#FFFFFF;labelBorderColor=default;labelBackgroundColor=default;startArrow=none;endArrow=block;endFill=1;" edge="1" parent="1" source="wwfGKBPIN9AT0zzVKgyh-97" target="wwfGKBPIN9AT0zzVKgyh-98">
          <mxGeometry relative="1" as="geometry" />
        </mxCell>
        <mxCell id="wwfGKBPIN9AT0zzVKgyh-97" value="Course Enrollment&amp;nbsp;&lt;div&gt;13&lt;/div&gt;" style="html=1;overflow=block;blockSpacing=1;whiteSpace=wrap;fontSize=16.7;spacing=9;strokeColor=#fff;rounded=1;absoluteArcSize=1;arcSize=9;fillColor=#unset;strokeWidth=2;lucidId=UgXwEJfHbdwM;fontColor=#FFFFFF;labelBorderColor=default;align=center;verticalAlign=middle;fontFamily=Helvetica;" vertex="1" parent="1">
          <mxGeometry x="830" y="175" width="120" height="120" as="geometry" />
        </mxCell>
        <mxCell id="wwfGKBPIN9AT0zzVKgyh-106" style="edgeStyle=orthogonalEdgeStyle;rounded=1;orthogonalLoop=1;jettySize=auto;html=1;strokeColor=#ffffff;strokeWidth=2.3;align=center;verticalAlign=middle;arcSize=12;fontFamily=Helvetica;fontSize=13;fontColor=#FFFFFF;labelBorderColor=default;labelBackgroundColor=default;startArrow=none;endArrow=block;endFill=1;" edge="1" parent="1" source="wwfGKBPIN9AT0zzVKgyh-98" target="wwfGKBPIN9AT0zzVKgyh-103">
          <mxGeometry relative="1" as="geometry" />
        </mxCell>
        <mxCell id="wwfGKBPIN9AT0zzVKgyh-98" value="Tutorial Navigation week 14" style="html=1;overflow=block;blockSpacing=1;whiteSpace=wrap;fontSize=16.7;spacing=9;strokeColor=#fff;rounded=1;absoluteArcSize=1;arcSize=9;fillColor=#unset;strokeWidth=2;lucidId=UgXwEJfHbdwM;fontColor=#FFFFFF;labelBorderColor=default;align=center;verticalAlign=middle;fontFamily=Helvetica;" vertex="1" parent="1">
          <mxGeometry x="1000" y="175" width="120" height="120" as="geometry" />
        </mxCell>
        <mxCell id="wwfGKBPIN9AT0zzVKgyh-176" style="edgeStyle=orthogonalEdgeStyle;rounded=1;orthogonalLoop=1;jettySize=auto;html=1;entryX=0.5;entryY=0;entryDx=0;entryDy=0;strokeColor=#ffffff;strokeWidth=2.3;align=center;verticalAlign=middle;arcSize=12;fontFamily=Helvetica;fontSize=13;fontColor=#FFFFFF;labelBorderColor=default;labelBackgroundColor=default;startArrow=none;endArrow=block;endFill=1;" edge="1" parent="1" source="wwfGKBPIN9AT0zzVKgyh-102" target="wwfGKBPIN9AT0zzVKgyh-108">
          <mxGeometry relative="1" as="geometry">
            <Array as="points">
              <mxPoint x="1165" y="420" />
              <mxPoint x="-322" y="420" />
            </Array>
          </mxGeometry>
        </mxCell>
        <mxCell id="wwfGKBPIN9AT0zzVKgyh-102" value="Accessibility Options Setup&lt;br&gt;&lt;div&gt;week 14 to 15&lt;/div&gt;" style="html=1;overflow=block;blockSpacing=1;whiteSpace=wrap;fontSize=16.7;spacing=9;strokeColor=#fff;rounded=1;absoluteArcSize=1;arcSize=9;fillColor=#unset;strokeWidth=2;lucidId=UgXwEJfHbdwM;fontColor=#FFFFFF;labelBorderColor=default;align=center;verticalAlign=middle;fontFamily=Helvetica;" vertex="1" parent="1">
          <mxGeometry x="1010" y="316" width="310" height="52" as="geometry" />
        </mxCell>
        <mxCell id="wwfGKBPIN9AT0zzVKgyh-175" style="edgeStyle=orthogonalEdgeStyle;rounded=1;orthogonalLoop=1;jettySize=auto;html=1;entryX=0.5;entryY=0;entryDx=0;entryDy=0;strokeColor=#ffffff;strokeWidth=2.3;align=center;verticalAlign=middle;arcSize=12;fontFamily=Helvetica;fontSize=13;fontColor=#FFFFFF;labelBorderColor=default;labelBackgroundColor=default;startArrow=none;endArrow=block;endFill=1;" edge="1" parent="1" source="wwfGKBPIN9AT0zzVKgyh-103" target="wwfGKBPIN9AT0zzVKgyh-108">
          <mxGeometry relative="1" as="geometry">
            <Array as="points">
              <mxPoint x="1360" y="235" />
              <mxPoint x="1360" y="420" />
              <mxPoint x="-322" y="420" />
            </Array>
          </mxGeometry>
        </mxCell>
        <mxCell id="wwfGKBPIN9AT0zzVKgyh-103" value="&lt;div&gt;Account Recovery Options Setup&lt;/div&gt;&lt;div&gt;week 15&lt;/div&gt;" style="html=1;overflow=block;blockSpacing=1;whiteSpace=wrap;fontSize=16.7;spacing=9;strokeColor=#fff;rounded=1;absoluteArcSize=1;arcSize=9;fillColor=#unset;strokeWidth=2;lucidId=UgXwEJfHbdwM;fontColor=#FFFFFF;labelBorderColor=default;align=center;verticalAlign=middle;fontFamily=Helvetica;" vertex="1" parent="1">
          <mxGeometry x="1180" y="175" width="120" height="120" as="geometry" />
        </mxCell>
        <mxCell id="wwfGKBPIN9AT0zzVKgyh-117" style="edgeStyle=orthogonalEdgeStyle;rounded=1;orthogonalLoop=1;jettySize=auto;html=1;entryX=0;entryY=0.5;entryDx=0;entryDy=0;strokeColor=#ffffff;strokeWidth=2.3;align=center;verticalAlign=middle;arcSize=12;fontFamily=Helvetica;fontSize=13;fontColor=#FFFFFF;labelBorderColor=default;labelBackgroundColor=default;startArrow=none;endArrow=block;endFill=1;" edge="1" parent="1" source="wwfGKBPIN9AT0zzVKgyh-108" target="wwfGKBPIN9AT0zzVKgyh-113">
          <mxGeometry relative="1" as="geometry" />
        </mxCell>
        <mxCell id="wwfGKBPIN9AT0zzVKgyh-118" style="edgeStyle=orthogonalEdgeStyle;rounded=1;orthogonalLoop=1;jettySize=auto;html=1;entryX=0;entryY=0.5;entryDx=0;entryDy=0;strokeColor=#ffffff;strokeWidth=2.3;align=center;verticalAlign=middle;arcSize=12;fontFamily=Helvetica;fontSize=13;fontColor=#FFFFFF;labelBorderColor=default;labelBackgroundColor=default;startArrow=none;endArrow=block;endFill=1;" edge="1" parent="1" source="wwfGKBPIN9AT0zzVKgyh-108" target="wwfGKBPIN9AT0zzVKgyh-114">
          <mxGeometry relative="1" as="geometry" />
        </mxCell>
        <mxCell id="wwfGKBPIN9AT0zzVKgyh-119" style="edgeStyle=orthogonalEdgeStyle;rounded=1;orthogonalLoop=1;jettySize=auto;html=1;entryX=0;entryY=0.5;entryDx=0;entryDy=0;strokeColor=#ffffff;strokeWidth=2.3;align=center;verticalAlign=middle;arcSize=12;fontFamily=Helvetica;fontSize=13;fontColor=#FFFFFF;labelBorderColor=default;labelBackgroundColor=default;startArrow=none;endArrow=block;endFill=1;" edge="1" parent="1" source="wwfGKBPIN9AT0zzVKgyh-108" target="wwfGKBPIN9AT0zzVKgyh-115">
          <mxGeometry relative="1" as="geometry" />
        </mxCell>
        <mxCell id="wwfGKBPIN9AT0zzVKgyh-108" value="Accessing Course Content week 16 to 17" style="html=1;overflow=block;blockSpacing=1;whiteSpace=wrap;fontSize=16.7;spacing=9;strokeColor=#fff;rounded=1;absoluteArcSize=1;arcSize=9;fillColor=#unset;strokeWidth=2;lucidId=6hXwYlWiubw_;fontColor=#FFFFFF;labelBorderColor=default;align=center;verticalAlign=middle;fontFamily=Helvetica;" vertex="1" parent="1">
          <mxGeometry x="-435" y="514" width="225" height="58" as="geometry" />
        </mxCell>
        <mxCell id="wwfGKBPIN9AT0zzVKgyh-124" style="edgeStyle=orthogonalEdgeStyle;rounded=1;orthogonalLoop=1;jettySize=auto;html=1;entryX=0;entryY=0.5;entryDx=0;entryDy=0;strokeColor=#ffffff;strokeWidth=2.3;align=center;verticalAlign=middle;arcSize=12;fontFamily=Helvetica;fontSize=13;fontColor=#FFFFFF;labelBorderColor=default;labelBackgroundColor=default;startArrow=none;endArrow=block;endFill=1;" edge="1" parent="1" source="wwfGKBPIN9AT0zzVKgyh-113" target="wwfGKBPIN9AT0zzVKgyh-120">
          <mxGeometry relative="1" as="geometry" />
        </mxCell>
        <mxCell id="wwfGKBPIN9AT0zzVKgyh-125" style="edgeStyle=orthogonalEdgeStyle;rounded=1;orthogonalLoop=1;jettySize=auto;html=1;entryX=0;entryY=0.5;entryDx=0;entryDy=0;strokeColor=#ffffff;strokeWidth=2.3;align=center;verticalAlign=middle;arcSize=12;fontFamily=Helvetica;fontSize=13;fontColor=#FFFFFF;labelBorderColor=default;labelBackgroundColor=default;startArrow=none;endArrow=block;endFill=1;" edge="1" parent="1" source="wwfGKBPIN9AT0zzVKgyh-113" target="wwfGKBPIN9AT0zzVKgyh-121">
          <mxGeometry relative="1" as="geometry" />
        </mxCell>
        <mxCell id="wwfGKBPIN9AT0zzVKgyh-113" value="Participating in Assignments week18" style="html=1;overflow=block;blockSpacing=1;whiteSpace=wrap;fontSize=16.7;spacing=9;strokeColor=#fff;rounded=1;absoluteArcSize=1;arcSize=9;fillColor=#unset;strokeWidth=2;lucidId=6hXwYlWiubw_;fontColor=#FFFFFF;labelBorderColor=default;align=center;verticalAlign=middle;fontFamily=Helvetica;" vertex="1" parent="1">
          <mxGeometry x="-161" y="454" width="225" height="50" as="geometry" />
        </mxCell>
        <mxCell id="wwfGKBPIN9AT0zzVKgyh-126" style="edgeStyle=orthogonalEdgeStyle;rounded=1;orthogonalLoop=1;jettySize=auto;html=1;entryX=0;entryY=0.5;entryDx=0;entryDy=0;strokeColor=#ffffff;strokeWidth=2.3;align=center;verticalAlign=middle;arcSize=12;fontFamily=Helvetica;fontSize=13;fontColor=#FFFFFF;labelBorderColor=default;labelBackgroundColor=default;startArrow=none;endArrow=block;endFill=1;" edge="1" parent="1" source="wwfGKBPIN9AT0zzVKgyh-114" target="wwfGKBPIN9AT0zzVKgyh-120">
          <mxGeometry relative="1" as="geometry" />
        </mxCell>
        <mxCell id="wwfGKBPIN9AT0zzVKgyh-127" style="edgeStyle=orthogonalEdgeStyle;rounded=1;orthogonalLoop=1;jettySize=auto;html=1;entryX=0;entryY=0.5;entryDx=0;entryDy=0;strokeColor=#ffffff;strokeWidth=2.3;align=center;verticalAlign=middle;arcSize=12;fontFamily=Helvetica;fontSize=13;fontColor=#FFFFFF;labelBorderColor=default;labelBackgroundColor=default;startArrow=none;endArrow=block;endFill=1;" edge="1" parent="1" source="wwfGKBPIN9AT0zzVKgyh-114" target="wwfGKBPIN9AT0zzVKgyh-121">
          <mxGeometry relative="1" as="geometry" />
        </mxCell>
        <mxCell id="wwfGKBPIN9AT0zzVKgyh-114" value="Attempting Quizzes week 18" style="html=1;overflow=block;blockSpacing=1;whiteSpace=wrap;fontSize=16.7;spacing=9;strokeColor=#fff;rounded=1;absoluteArcSize=1;arcSize=9;fillColor=#unset;strokeWidth=2;lucidId=6hXwYlWiubw_;fontColor=#FFFFFF;labelBorderColor=default;align=center;verticalAlign=middle;fontFamily=Helvetica;" vertex="1" parent="1">
          <mxGeometry x="-161" y="514" width="225" height="50" as="geometry" />
        </mxCell>
        <mxCell id="wwfGKBPIN9AT0zzVKgyh-128" style="edgeStyle=orthogonalEdgeStyle;rounded=1;orthogonalLoop=1;jettySize=auto;html=1;entryX=0;entryY=0.5;entryDx=0;entryDy=0;strokeColor=#ffffff;strokeWidth=2.3;align=center;verticalAlign=middle;arcSize=12;fontFamily=Helvetica;fontSize=13;fontColor=#FFFFFF;labelBorderColor=default;labelBackgroundColor=default;startArrow=none;endArrow=block;endFill=1;" edge="1" parent="1" source="wwfGKBPIN9AT0zzVKgyh-115" target="wwfGKBPIN9AT0zzVKgyh-120">
          <mxGeometry relative="1" as="geometry" />
        </mxCell>
        <mxCell id="wwfGKBPIN9AT0zzVKgyh-129" value="" style="edgeStyle=orthogonalEdgeStyle;rounded=1;orthogonalLoop=1;jettySize=auto;html=1;strokeColor=#ffffff;strokeWidth=2.3;align=center;verticalAlign=middle;arcSize=12;fontFamily=Helvetica;fontSize=13;fontColor=#FFFFFF;labelBorderColor=default;labelBackgroundColor=default;startArrow=none;endArrow=block;endFill=1;" edge="1" parent="1" source="wwfGKBPIN9AT0zzVKgyh-115" target="wwfGKBPIN9AT0zzVKgyh-121">
          <mxGeometry relative="1" as="geometry" />
        </mxCell>
        <mxCell id="wwfGKBPIN9AT0zzVKgyh-115" value="Taking Exams week 18" style="html=1;overflow=block;blockSpacing=1;whiteSpace=wrap;fontSize=16.7;spacing=9;strokeColor=#fff;rounded=1;absoluteArcSize=1;arcSize=9;fillColor=#unset;strokeWidth=2;lucidId=6hXwYlWiubw_;fontColor=#FFFFFF;labelBorderColor=default;align=center;verticalAlign=middle;fontFamily=Helvetica;" vertex="1" parent="1">
          <mxGeometry x="-159" y="574" width="225" height="50" as="geometry" />
        </mxCell>
        <mxCell id="wwfGKBPIN9AT0zzVKgyh-132" style="edgeStyle=orthogonalEdgeStyle;rounded=1;orthogonalLoop=1;jettySize=auto;html=1;strokeColor=#ffffff;strokeWidth=2.3;align=center;verticalAlign=middle;arcSize=12;fontFamily=Helvetica;fontSize=13;fontColor=#FFFFFF;labelBorderColor=default;labelBackgroundColor=default;startArrow=none;endArrow=block;endFill=1;" edge="1" parent="1" source="wwfGKBPIN9AT0zzVKgyh-120" target="wwfGKBPIN9AT0zzVKgyh-131">
          <mxGeometry relative="1" as="geometry" />
        </mxCell>
        <mxCell id="wwfGKBPIN9AT0zzVKgyh-120" value="Submitting Completed Work week 19" style="html=1;overflow=block;blockSpacing=1;whiteSpace=wrap;fontSize=16.7;spacing=9;strokeColor=#fff;rounded=1;absoluteArcSize=1;arcSize=9;fillColor=#unset;strokeWidth=2;lucidId=6hXwYlWiubw_;fontColor=#FFFFFF;labelBorderColor=default;align=center;verticalAlign=middle;fontFamily=Helvetica;" vertex="1" parent="1">
          <mxGeometry x="120" y="474" width="350" height="50" as="geometry" />
        </mxCell>
        <mxCell id="wwfGKBPIN9AT0zzVKgyh-130" style="edgeStyle=orthogonalEdgeStyle;rounded=1;orthogonalLoop=1;jettySize=auto;html=1;strokeColor=#ffffff;strokeWidth=2.3;align=center;verticalAlign=middle;arcSize=12;fontFamily=Helvetica;fontSize=13;fontColor=#FFFFFF;labelBorderColor=default;labelBackgroundColor=default;startArrow=none;endArrow=block;endFill=1;" edge="1" parent="1" source="wwfGKBPIN9AT0zzVKgyh-121" target="wwfGKBPIN9AT0zzVKgyh-123">
          <mxGeometry relative="1" as="geometry" />
        </mxCell>
        <mxCell id="wwfGKBPIN9AT0zzVKgyh-121" value="Receiving Grades week18 to 18.5" style="html=1;overflow=block;blockSpacing=1;whiteSpace=wrap;fontSize=16.7;spacing=9;strokeColor=#fff;rounded=1;absoluteArcSize=1;arcSize=9;fillColor=#unset;strokeWidth=2;lucidId=6hXwYlWiubw_;fontColor=#FFFFFF;labelBorderColor=default;align=center;verticalAlign=middle;fontFamily=Helvetica;" vertex="1" parent="1">
          <mxGeometry x="120" y="534" width="156" height="100" as="geometry" />
        </mxCell>
        <mxCell id="wwfGKBPIN9AT0zzVKgyh-133" style="edgeStyle=orthogonalEdgeStyle;rounded=1;orthogonalLoop=1;jettySize=auto;html=1;entryX=0;entryY=0.5;entryDx=0;entryDy=0;strokeColor=#ffffff;strokeWidth=2.3;align=center;verticalAlign=middle;arcSize=12;fontFamily=Helvetica;fontSize=13;fontColor=#FFFFFF;labelBorderColor=default;labelBackgroundColor=default;startArrow=none;endArrow=block;endFill=1;" edge="1" parent="1" source="wwfGKBPIN9AT0zzVKgyh-123" target="wwfGKBPIN9AT0zzVKgyh-131">
          <mxGeometry relative="1" as="geometry" />
        </mxCell>
        <mxCell id="wwfGKBPIN9AT0zzVKgyh-123" value="&lt;div&gt;Reviewing Feedback&lt;/div&gt;&lt;div&gt;week 18.5 to 19&lt;/div&gt;" style="html=1;overflow=block;blockSpacing=1;whiteSpace=wrap;fontSize=16.7;spacing=9;strokeColor=#fff;rounded=1;absoluteArcSize=1;arcSize=9;fillColor=#unset;strokeWidth=2;lucidId=6hXwYlWiubw_;fontColor=#FFFFFF;labelBorderColor=default;align=center;verticalAlign=middle;fontFamily=Helvetica;" vertex="1" parent="1">
          <mxGeometry x="315" y="534" width="156" height="100" as="geometry" />
        </mxCell>
        <mxCell id="wwfGKBPIN9AT0zzVKgyh-135" style="edgeStyle=orthogonalEdgeStyle;rounded=1;orthogonalLoop=1;jettySize=auto;html=1;strokeColor=#ffffff;strokeWidth=2.3;align=center;verticalAlign=middle;arcSize=12;fontFamily=Helvetica;fontSize=13;fontColor=#FFFFFF;labelBorderColor=default;labelBackgroundColor=default;startArrow=none;endArrow=block;endFill=1;" edge="1" parent="1" source="wwfGKBPIN9AT0zzVKgyh-131" target="wwfGKBPIN9AT0zzVKgyh-134">
          <mxGeometry relative="1" as="geometry" />
        </mxCell>
        <mxCell id="wwfGKBPIN9AT0zzVKgyh-131" value="Discussion and Interaction&amp;nbsp;&lt;div&gt;week 20&lt;/div&gt;" style="html=1;overflow=block;blockSpacing=1;whiteSpace=wrap;fontSize=16.7;spacing=9;strokeColor=#fff;rounded=1;absoluteArcSize=1;arcSize=9;fillColor=#unset;strokeWidth=2;lucidId=6hXwYlWiubw_;fontColor=#FFFFFF;labelBorderColor=default;align=center;verticalAlign=middle;fontFamily=Helvetica;" vertex="1" parent="1">
          <mxGeometry x="542" y="493" width="156" height="100" as="geometry" />
        </mxCell>
        <mxCell id="wwfGKBPIN9AT0zzVKgyh-177" style="edgeStyle=orthogonalEdgeStyle;rounded=1;orthogonalLoop=1;jettySize=auto;html=1;entryX=0.5;entryY=0;entryDx=0;entryDy=0;strokeColor=#ffffff;strokeWidth=2.3;align=center;verticalAlign=middle;arcSize=12;fontFamily=Helvetica;fontSize=13;fontColor=#FFFFFF;labelBorderColor=default;labelBackgroundColor=default;startArrow=none;endArrow=block;endFill=1;" edge="1" parent="1" source="wwfGKBPIN9AT0zzVKgyh-134" target="wwfGKBPIN9AT0zzVKgyh-7">
          <mxGeometry relative="1" as="geometry">
            <Array as="points">
              <mxPoint x="838" y="640" />
              <mxPoint x="-570" y="640" />
            </Array>
          </mxGeometry>
        </mxCell>
        <mxCell id="wwfGKBPIN9AT0zzVKgyh-134" value="payment Method week 21 to 22" style="html=1;overflow=block;blockSpacing=1;whiteSpace=wrap;fontSize=16.7;spacing=9;strokeColor=#fff;rounded=1;absoluteArcSize=1;arcSize=9;fillColor=#unset;strokeWidth=2;lucidId=6hXwYlWiubw_;fontColor=#FFFFFF;labelBorderColor=default;align=center;verticalAlign=middle;fontFamily=Helvetica;" vertex="1" parent="1">
          <mxGeometry x="760" y="493" width="156" height="100" as="geometry" />
        </mxCell>
        <mxCell id="wwfGKBPIN9AT0zzVKgyh-142" style="edgeStyle=orthogonalEdgeStyle;rounded=1;orthogonalLoop=1;jettySize=auto;html=1;entryX=0;entryY=0.5;entryDx=0;entryDy=0;strokeColor=#ffffff;strokeWidth=2.3;align=center;verticalAlign=middle;arcSize=12;fontFamily=Helvetica;fontSize=13;fontColor=#FFFFFF;labelBorderColor=default;labelBackgroundColor=default;startArrow=none;endArrow=block;endFill=1;" edge="1" parent="1" source="wwfGKBPIN9AT0zzVKgyh-136" target="wwfGKBPIN9AT0zzVKgyh-141">
          <mxGeometry relative="1" as="geometry" />
        </mxCell>
        <mxCell id="wwfGKBPIN9AT0zzVKgyh-136" value="Collecting Student Submissions&amp;nbsp;&lt;div&gt;week 23&lt;/div&gt;" style="html=1;overflow=block;blockSpacing=1;whiteSpace=wrap;fontSize=16.7;spacing=9;strokeColor=#fff;rounded=1;absoluteArcSize=1;arcSize=9;fillColor=#unset;strokeWidth=2;lucidId=6hXwYlWiubw_;fontColor=#FFFFFF;labelBorderColor=default;align=center;verticalAlign=middle;fontFamily=Helvetica;" vertex="1" parent="1">
          <mxGeometry x="-270" y="662" width="270" height="56" as="geometry" />
        </mxCell>
        <mxCell id="wwfGKBPIN9AT0zzVKgyh-143" style="edgeStyle=orthogonalEdgeStyle;rounded=1;orthogonalLoop=1;jettySize=auto;html=1;entryX=0;entryY=0.5;entryDx=0;entryDy=0;strokeColor=#ffffff;strokeWidth=2.3;align=center;verticalAlign=middle;arcSize=12;fontFamily=Helvetica;fontSize=13;fontColor=#FFFFFF;labelBorderColor=default;labelBackgroundColor=default;startArrow=none;endArrow=block;endFill=1;" edge="1" parent="1" source="wwfGKBPIN9AT0zzVKgyh-140" target="wwfGKBPIN9AT0zzVKgyh-141">
          <mxGeometry relative="1" as="geometry" />
        </mxCell>
        <mxCell id="wwfGKBPIN9AT0zzVKgyh-140" value="&lt;div&gt;Grading Assignments&amp;nbsp;&lt;/div&gt;&lt;div&gt;week 23&lt;/div&gt;" style="html=1;overflow=block;blockSpacing=1;whiteSpace=wrap;fontSize=16.7;spacing=9;strokeColor=#fff;rounded=1;absoluteArcSize=1;arcSize=9;fillColor=#unset;strokeWidth=2;lucidId=6hXwYlWiubw_;fontColor=#FFFFFF;labelBorderColor=default;align=center;verticalAlign=middle;fontFamily=Helvetica;" vertex="1" parent="1">
          <mxGeometry x="-270" y="754" width="270" height="56" as="geometry" />
        </mxCell>
        <mxCell id="wwfGKBPIN9AT0zzVKgyh-149" style="edgeStyle=orthogonalEdgeStyle;rounded=1;orthogonalLoop=1;jettySize=auto;html=1;entryX=0;entryY=0.5;entryDx=0;entryDy=0;strokeColor=#ffffff;strokeWidth=2.3;align=center;verticalAlign=middle;arcSize=12;fontFamily=Helvetica;fontSize=13;fontColor=#FFFFFF;labelBorderColor=default;labelBackgroundColor=default;startArrow=none;endArrow=block;endFill=1;" edge="1" parent="1" source="wwfGKBPIN9AT0zzVKgyh-141" target="wwfGKBPIN9AT0zzVKgyh-146">
          <mxGeometry relative="1" as="geometry" />
        </mxCell>
        <mxCell id="wwfGKBPIN9AT0zzVKgyh-150" style="edgeStyle=orthogonalEdgeStyle;rounded=1;orthogonalLoop=1;jettySize=auto;html=1;entryX=0;entryY=0.5;entryDx=0;entryDy=0;strokeColor=#ffffff;strokeWidth=2.3;align=center;verticalAlign=middle;arcSize=12;fontFamily=Helvetica;fontSize=13;fontColor=#FFFFFF;labelBorderColor=default;labelBackgroundColor=default;startArrow=none;endArrow=block;endFill=1;" edge="1" parent="1" source="wwfGKBPIN9AT0zzVKgyh-141" target="wwfGKBPIN9AT0zzVKgyh-147">
          <mxGeometry relative="1" as="geometry" />
        </mxCell>
        <mxCell id="wwfGKBPIN9AT0zzVKgyh-151" style="edgeStyle=orthogonalEdgeStyle;rounded=1;orthogonalLoop=1;jettySize=auto;html=1;entryX=0;entryY=0.5;entryDx=0;entryDy=0;strokeColor=#ffffff;strokeWidth=2.3;align=center;verticalAlign=middle;arcSize=12;fontFamily=Helvetica;fontSize=13;fontColor=#FFFFFF;labelBorderColor=default;labelBackgroundColor=default;startArrow=none;endArrow=block;endFill=1;" edge="1" parent="1" source="wwfGKBPIN9AT0zzVKgyh-141" target="wwfGKBPIN9AT0zzVKgyh-148">
          <mxGeometry relative="1" as="geometry" />
        </mxCell>
        <mxCell id="wwfGKBPIN9AT0zzVKgyh-141" value="Grading Quizzes&amp;nbsp;&lt;div&gt;week 24&lt;/div&gt;" style="html=1;overflow=block;blockSpacing=1;whiteSpace=wrap;fontSize=16.7;spacing=9;strokeColor=#fff;rounded=1;absoluteArcSize=1;arcSize=9;fillColor=#unset;strokeWidth=2;lucidId=6hXwYlWiubw_;fontColor=#FFFFFF;labelBorderColor=default;align=center;verticalAlign=middle;fontFamily=Helvetica;" vertex="1" parent="1">
          <mxGeometry x="70" y="688" width="156" height="100" as="geometry" />
        </mxCell>
        <mxCell id="wwfGKBPIN9AT0zzVKgyh-153" style="edgeStyle=orthogonalEdgeStyle;rounded=1;orthogonalLoop=1;jettySize=auto;html=1;entryX=0;entryY=0.5;entryDx=0;entryDy=0;strokeColor=#ffffff;strokeWidth=2.3;align=center;verticalAlign=middle;arcSize=12;fontFamily=Helvetica;fontSize=13;fontColor=#FFFFFF;labelBorderColor=default;labelBackgroundColor=default;startArrow=none;endArrow=block;endFill=1;" edge="1" parent="1" source="wwfGKBPIN9AT0zzVKgyh-146" target="wwfGKBPIN9AT0zzVKgyh-152">
          <mxGeometry relative="1" as="geometry" />
        </mxCell>
        <mxCell id="wwfGKBPIN9AT0zzVKgyh-146" value="&lt;div&gt;Grading Exams&lt;span style=&quot;background-color: initial;&quot;&gt;&amp;nbsp;&lt;/span&gt;&lt;/div&gt;&lt;div&gt;week 25&lt;/div&gt;" style="html=1;overflow=block;blockSpacing=1;whiteSpace=wrap;fontSize=16.7;spacing=9;strokeColor=#fff;rounded=1;absoluteArcSize=1;arcSize=9;fillColor=#unset;strokeWidth=2;lucidId=6hXwYlWiubw_;fontColor=#FFFFFF;labelBorderColor=default;align=center;verticalAlign=middle;fontFamily=Helvetica;" vertex="1" parent="1">
          <mxGeometry x="322.5" y="662" width="225" height="50" as="geometry" />
        </mxCell>
        <mxCell id="wwfGKBPIN9AT0zzVKgyh-154" style="edgeStyle=orthogonalEdgeStyle;rounded=1;orthogonalLoop=1;jettySize=auto;html=1;strokeColor=#ffffff;strokeWidth=2.3;align=center;verticalAlign=middle;arcSize=12;fontFamily=Helvetica;fontSize=13;fontColor=#FFFFFF;labelBorderColor=default;labelBackgroundColor=default;startArrow=none;endArrow=block;endFill=1;" edge="1" parent="1" source="wwfGKBPIN9AT0zzVKgyh-147" target="wwfGKBPIN9AT0zzVKgyh-152">
          <mxGeometry relative="1" as="geometry" />
        </mxCell>
        <mxCell id="wwfGKBPIN9AT0zzVKgyh-147" value="Providing Feedback on Submissions week 25" style="html=1;overflow=block;blockSpacing=1;whiteSpace=wrap;fontSize=16.7;spacing=9;strokeColor=#fff;rounded=1;absoluteArcSize=1;arcSize=9;fillColor=#unset;strokeWidth=2;lucidId=6hXwYlWiubw_;fontColor=#FFFFFF;labelBorderColor=default;align=center;verticalAlign=middle;fontFamily=Helvetica;" vertex="1" parent="1">
          <mxGeometry x="322.5" y="718" width="225" height="50" as="geometry" />
        </mxCell>
        <mxCell id="wwfGKBPIN9AT0zzVKgyh-155" style="edgeStyle=orthogonalEdgeStyle;rounded=1;orthogonalLoop=1;jettySize=auto;html=1;strokeColor=#ffffff;strokeWidth=2.3;align=center;verticalAlign=middle;arcSize=12;fontFamily=Helvetica;fontSize=13;fontColor=#FFFFFF;labelBorderColor=default;labelBackgroundColor=default;startArrow=none;endArrow=block;endFill=1;" edge="1" parent="1" source="wwfGKBPIN9AT0zzVKgyh-148" target="wwfGKBPIN9AT0zzVKgyh-152">
          <mxGeometry relative="1" as="geometry" />
        </mxCell>
        <mxCell id="wwfGKBPIN9AT0zzVKgyh-148" value="Updating Grade Records&amp;nbsp;&lt;div&gt;week 25&lt;/div&gt;" style="html=1;overflow=block;blockSpacing=1;whiteSpace=wrap;fontSize=16.7;spacing=9;strokeColor=#fff;rounded=1;absoluteArcSize=1;arcSize=9;fillColor=#unset;strokeWidth=2;lucidId=6hXwYlWiubw_;fontColor=#FFFFFF;labelBorderColor=default;align=center;verticalAlign=middle;fontFamily=Helvetica;" vertex="1" parent="1">
          <mxGeometry x="325" y="778" width="225" height="50" as="geometry" />
        </mxCell>
        <mxCell id="wwfGKBPIN9AT0zzVKgyh-188" style="edgeStyle=orthogonalEdgeStyle;rounded=1;orthogonalLoop=1;jettySize=auto;html=1;entryX=0;entryY=0.5;entryDx=0;entryDy=0;strokeColor=#ffffff;strokeWidth=2.3;align=center;verticalAlign=middle;arcSize=12;fontFamily=Helvetica;fontSize=13;fontColor=#FFFFFF;labelBorderColor=default;labelBackgroundColor=default;startArrow=none;endArrow=block;endFill=1;" edge="1" parent="1" source="wwfGKBPIN9AT0zzVKgyh-152" target="wwfGKBPIN9AT0zzVKgyh-178">
          <mxGeometry relative="1" as="geometry" />
        </mxCell>
        <mxCell id="wwfGKBPIN9AT0zzVKgyh-152" value="Sharing Grades with Students&amp;nbsp;&lt;br&gt;&lt;div&gt;week 26&lt;/div&gt;" style="html=1;overflow=block;blockSpacing=1;whiteSpace=wrap;fontSize=16.7;spacing=9;strokeColor=#fff;rounded=1;absoluteArcSize=1;arcSize=9;fillColor=#unset;strokeWidth=2;lucidId=6hXwYlWiubw_;fontColor=#FFFFFF;labelBorderColor=default;align=center;verticalAlign=middle;fontFamily=Helvetica;" vertex="1" parent="1">
          <mxGeometry x="650" y="693" width="156" height="100" as="geometry" />
        </mxCell>
        <mxCell id="wwfGKBPIN9AT0zzVKgyh-159" style="edgeStyle=orthogonalEdgeStyle;rounded=1;orthogonalLoop=1;jettySize=auto;html=1;entryX=0;entryY=0.5;entryDx=0;entryDy=0;strokeColor=#ffffff;strokeWidth=2.3;align=center;verticalAlign=middle;arcSize=12;fontFamily=Helvetica;fontSize=13;fontColor=#FFFFFF;labelBorderColor=default;labelBackgroundColor=default;startArrow=none;endArrow=block;endFill=1;" edge="1" parent="1" source="wwfGKBPIN9AT0zzVKgyh-156" target="wwfGKBPIN9AT0zzVKgyh-158">
          <mxGeometry relative="1" as="geometry" />
        </mxCell>
        <mxCell id="wwfGKBPIN9AT0zzVKgyh-164" style="edgeStyle=orthogonalEdgeStyle;rounded=1;orthogonalLoop=1;jettySize=auto;html=1;entryX=0;entryY=0.5;entryDx=0;entryDy=0;strokeColor=#ffffff;strokeWidth=2.3;align=center;verticalAlign=middle;arcSize=12;fontFamily=Helvetica;fontSize=13;fontColor=#FFFFFF;labelBorderColor=default;labelBackgroundColor=default;startArrow=none;endArrow=block;endFill=1;" edge="1" parent="1" source="wwfGKBPIN9AT0zzVKgyh-156" target="wwfGKBPIN9AT0zzVKgyh-163">
          <mxGeometry relative="1" as="geometry" />
        </mxCell>
        <mxCell id="wwfGKBPIN9AT0zzVKgyh-156" value="&lt;div&gt;Initial Code Review&lt;/div&gt;&lt;div&gt;week 27 to 28&lt;/div&gt;" style="html=1;overflow=block;blockSpacing=1;whiteSpace=wrap;fontSize=16.7;spacing=9;strokeColor=#fff;rounded=1;absoluteArcSize=1;arcSize=9;fillColor=#unset;strokeWidth=2;lucidId=6hXwYlWiubw_;fontColor=#FFFFFF;labelBorderColor=default;align=center;verticalAlign=middle;fontFamily=Helvetica;" vertex="1" parent="1">
          <mxGeometry x="246" y="840" width="270" height="56" as="geometry" />
        </mxCell>
        <mxCell id="wwfGKBPIN9AT0zzVKgyh-165" style="edgeStyle=orthogonalEdgeStyle;rounded=1;orthogonalLoop=1;jettySize=auto;html=1;entryX=0;entryY=0.5;entryDx=0;entryDy=0;strokeColor=#ffffff;strokeWidth=2.3;align=center;verticalAlign=middle;arcSize=12;fontFamily=Helvetica;fontSize=13;fontColor=#FFFFFF;labelBorderColor=default;labelBackgroundColor=default;startArrow=none;endArrow=block;endFill=1;" edge="1" parent="1" source="wwfGKBPIN9AT0zzVKgyh-157" target="wwfGKBPIN9AT0zzVKgyh-158">
          <mxGeometry relative="1" as="geometry" />
        </mxCell>
        <mxCell id="wwfGKBPIN9AT0zzVKgyh-166" value="" style="edgeStyle=orthogonalEdgeStyle;rounded=1;orthogonalLoop=1;jettySize=auto;html=1;strokeColor=#ffffff;strokeWidth=2.3;align=center;verticalAlign=middle;arcSize=12;fontFamily=Helvetica;fontSize=13;fontColor=#FFFFFF;labelBorderColor=default;labelBackgroundColor=default;startArrow=none;endArrow=block;endFill=1;" edge="1" parent="1" source="wwfGKBPIN9AT0zzVKgyh-157" target="wwfGKBPIN9AT0zzVKgyh-163">
          <mxGeometry relative="1" as="geometry" />
        </mxCell>
        <mxCell id="wwfGKBPIN9AT0zzVKgyh-167" style="edgeStyle=orthogonalEdgeStyle;rounded=1;orthogonalLoop=1;jettySize=auto;html=1;entryX=0;entryY=0.5;entryDx=0;entryDy=0;strokeColor=#ffffff;strokeWidth=2.3;align=center;verticalAlign=middle;arcSize=12;fontFamily=Helvetica;fontSize=13;fontColor=#FFFFFF;labelBorderColor=default;labelBackgroundColor=default;startArrow=none;endArrow=block;endFill=1;" edge="1" parent="1" source="wwfGKBPIN9AT0zzVKgyh-157" target="wwfGKBPIN9AT0zzVKgyh-163">
          <mxGeometry relative="1" as="geometry" />
        </mxCell>
        <mxCell id="wwfGKBPIN9AT0zzVKgyh-157" value="Unit Testing week 0 to 28" style="html=1;overflow=block;blockSpacing=1;whiteSpace=wrap;fontSize=16.7;spacing=9;strokeColor=#fff;rounded=1;absoluteArcSize=1;arcSize=9;fillColor=#unset;strokeWidth=2;lucidId=6hXwYlWiubw_;fontColor=#FFFFFF;labelBorderColor=default;align=center;verticalAlign=middle;fontFamily=Helvetica;" vertex="1" parent="1">
          <mxGeometry x="-435" y="944" width="955" height="31" as="geometry" />
        </mxCell>
        <mxCell id="wwfGKBPIN9AT0zzVKgyh-168" style="edgeStyle=orthogonalEdgeStyle;rounded=1;orthogonalLoop=1;jettySize=auto;html=1;entryX=0;entryY=0.5;entryDx=0;entryDy=0;strokeColor=#ffffff;strokeWidth=2.3;align=center;verticalAlign=middle;arcSize=12;fontFamily=Helvetica;fontSize=13;fontColor=#FFFFFF;labelBorderColor=default;labelBackgroundColor=default;startArrow=none;endArrow=block;endFill=1;" edge="1" parent="1" source="wwfGKBPIN9AT0zzVKgyh-158" target="wwfGKBPIN9AT0zzVKgyh-162">
          <mxGeometry relative="1" as="geometry" />
        </mxCell>
        <mxCell id="wwfGKBPIN9AT0zzVKgyh-158" value="integration Testing week 29 to 30" style="html=1;overflow=block;blockSpacing=1;whiteSpace=wrap;fontSize=16.7;spacing=9;strokeColor=#fff;rounded=1;absoluteArcSize=1;arcSize=9;fillColor=#unset;strokeWidth=2;lucidId=6hXwYlWiubw_;fontColor=#FFFFFF;labelBorderColor=default;align=center;verticalAlign=middle;fontFamily=Helvetica;" vertex="1" parent="1">
          <mxGeometry x="600" y="840" width="270" height="56" as="geometry" />
        </mxCell>
        <mxCell id="wwfGKBPIN9AT0zzVKgyh-179" style="edgeStyle=orthogonalEdgeStyle;rounded=1;orthogonalLoop=1;jettySize=auto;html=1;entryX=0;entryY=0.5;entryDx=0;entryDy=0;strokeColor=#ffffff;strokeWidth=2.3;align=center;verticalAlign=middle;arcSize=12;fontFamily=Helvetica;fontSize=13;fontColor=#FFFFFF;labelBorderColor=default;labelBackgroundColor=default;startArrow=none;endArrow=block;endFill=1;" edge="1" parent="1" source="wwfGKBPIN9AT0zzVKgyh-162" target="wwfGKBPIN9AT0zzVKgyh-178">
          <mxGeometry relative="1" as="geometry" />
        </mxCell>
        <mxCell id="wwfGKBPIN9AT0zzVKgyh-162" value="System Testing week 31 to 32" style="html=1;overflow=block;blockSpacing=1;whiteSpace=wrap;fontSize=16.7;spacing=9;strokeColor=#fff;rounded=1;absoluteArcSize=1;arcSize=9;fillColor=#unset;strokeWidth=2;lucidId=6hXwYlWiubw_;fontColor=#FFFFFF;labelBorderColor=default;align=center;verticalAlign=middle;fontFamily=Helvetica;" vertex="1" parent="1">
          <mxGeometry x="930" y="840" width="270" height="56" as="geometry" />
        </mxCell>
        <mxCell id="wwfGKBPIN9AT0zzVKgyh-180" style="edgeStyle=orthogonalEdgeStyle;rounded=1;orthogonalLoop=1;jettySize=auto;html=1;entryX=0;entryY=0.5;entryDx=0;entryDy=0;strokeColor=#ffffff;strokeWidth=2.3;align=center;verticalAlign=middle;arcSize=12;fontFamily=Helvetica;fontSize=13;fontColor=#FFFFFF;labelBorderColor=default;labelBackgroundColor=default;startArrow=none;endArrow=block;endFill=1;" edge="1" parent="1" source="wwfGKBPIN9AT0zzVKgyh-163" target="wwfGKBPIN9AT0zzVKgyh-178">
          <mxGeometry relative="1" as="geometry" />
        </mxCell>
        <mxCell id="wwfGKBPIN9AT0zzVKgyh-163" value="Debugging and error fixing&lt;div&gt;&amp;nbsp;week 29 to 32&lt;/div&gt;" style="html=1;overflow=block;blockSpacing=1;whiteSpace=wrap;fontSize=16.7;spacing=9;strokeColor=#fff;rounded=1;absoluteArcSize=1;arcSize=9;fillColor=#unset;strokeWidth=2;lucidId=6hXwYlWiubw_;fontColor=#FFFFFF;labelBorderColor=default;align=center;verticalAlign=middle;fontFamily=Helvetica;" vertex="1" parent="1">
          <mxGeometry x="600" y="919" width="600" height="56" as="geometry" />
        </mxCell>
        <mxCell id="wwfGKBPIN9AT0zzVKgyh-185" value="" style="edgeStyle=orthogonalEdgeStyle;rounded=1;orthogonalLoop=1;jettySize=auto;html=1;strokeColor=#ffffff;strokeWidth=2.3;align=center;verticalAlign=middle;arcSize=12;fontFamily=Helvetica;fontSize=13;fontColor=#FFFFFF;labelBorderColor=default;labelBackgroundColor=default;startArrow=none;endArrow=block;endFill=1;" edge="1" parent="1" source="wwfGKBPIN9AT0zzVKgyh-178" target="wwfGKBPIN9AT0zzVKgyh-184">
          <mxGeometry relative="1" as="geometry" />
        </mxCell>
        <mxCell id="wwfGKBPIN9AT0zzVKgyh-178" value="Deployment operation week 33" style="html=1;overflow=block;blockSpacing=1;whiteSpace=wrap;fontSize=16.7;spacing=9;strokeColor=#fff;rounded=1;absoluteArcSize=1;arcSize=9;fillColor=#unset;strokeWidth=2;lucidId=6hXwYlWiubw_;fontColor=#FFFFFF;labelBorderColor=default;align=center;verticalAlign=middle;fontFamily=Helvetica;" vertex="1" parent="1">
          <mxGeometry x="1135" y="554" width="210" height="90" as="geometry" />
        </mxCell>
        <mxCell id="wwfGKBPIN9AT0zzVKgyh-187" value="" style="edgeStyle=orthogonalEdgeStyle;rounded=1;orthogonalLoop=1;jettySize=auto;html=1;strokeColor=#ffffff;strokeWidth=2.3;align=center;verticalAlign=middle;arcSize=12;fontFamily=Helvetica;fontSize=13;fontColor=#FFFFFF;labelBorderColor=default;labelBackgroundColor=default;startArrow=none;endArrow=block;endFill=1;" edge="1" parent="1" source="wwfGKBPIN9AT0zzVKgyh-184" target="wwfGKBPIN9AT0zzVKgyh-186">
          <mxGeometry relative="1" as="geometry" />
        </mxCell>
        <mxCell id="wwfGKBPIN9AT0zzVKgyh-184" value="User Acceptance Testing week 34" style="whiteSpace=wrap;html=1;fontSize=16.7;fillColor=#unset;strokeColor=#fff;fontColor=#FFFFFF;spacing=9;rounded=1;arcSize=9;strokeWidth=2;labelBorderColor=default;" vertex="1" parent="1">
          <mxGeometry x="1112.5" y="718" width="255" height="85" as="geometry" />
        </mxCell>
        <mxCell id="wwfGKBPIN9AT0zzVKgyh-190" value="" style="edgeStyle=orthogonalEdgeStyle;rounded=1;orthogonalLoop=1;jettySize=auto;html=1;strokeColor=#ffffff;strokeWidth=2.3;align=center;verticalAlign=middle;arcSize=12;fontFamily=Helvetica;fontSize=13;fontColor=#FFFFFF;labelBorderColor=default;labelBackgroundColor=default;startArrow=none;endArrow=block;endFill=1;" edge="1" parent="1" source="wwfGKBPIN9AT0zzVKgyh-186" target="wwfGKBPIN9AT0zzVKgyh-189">
          <mxGeometry relative="1" as="geometry" />
        </mxCell>
        <mxCell id="wwfGKBPIN9AT0zzVKgyh-186" value="Live Deployment week 35" style="whiteSpace=wrap;html=1;fontSize=16.7;fillColor=#unset;strokeColor=#fff;fontColor=#FFFFFF;spacing=9;rounded=1;arcSize=9;strokeWidth=2;labelBorderColor=default;" vertex="1" parent="1">
          <mxGeometry x="1440" y="690.5" width="147.5" height="140" as="geometry" />
        </mxCell>
        <mxCell id="wwfGKBPIN9AT0zzVKgyh-189" value="FINISH" style="whiteSpace=wrap;html=1;fontSize=26.7;fillColor=#unset;strokeColor=#FFFFFF;fontColor=#FFFFFF;spacing=9;rounded=1;arcSize=9;strokeWidth=3;labelBorderColor=none;shadow=0;glass=0;align=center;verticalAlign=middle;fontFamily=Helvetica;gradientColor=none;" vertex="1" parent="1">
          <mxGeometry x="1453.75" y="915" width="120" height="60" as="geometry" />
        </mxCell>
        <mxCell id="wwfGKBPIN9AT0zzVKgyh-192" value="START" style="html=1;overflow=block;blockSpacing=1;whiteSpace=wrap;fontSize=26.7;spacing=9;strokeColor=#FFFFFF;rounded=1;absoluteArcSize=1;arcSize=9;fillColor=#unset;strokeWidth=3;lucidId=7QWwkAjT7IHE;fontColor=#FFFFFF;labelBorderColor=none;shadow=0;glass=0;gradientColor=none;perimeterSpacing=8;" vertex="1" parent="1">
          <mxGeometry x="-945" y="240" width="165" height="128" as="geometry" />
        </mxCell>
        <mxCell id="wwfGKBPIN9AT0zzVKgyh-193" value="Web devalopment and design" style="html=1;overflow=block;blockSpacing=1;whiteSpace=wrap;fontSize=20;spacing=9;strokeColor=#FFFFFF;rounded=1;absoluteArcSize=1;arcSize=9;fillColor=#unset;strokeWidth=2;lucidId=CRWwRNarMEnW;fontColor=#FFFFFF;labelBorderColor=default;align=center;verticalAlign=middle;fontFamily=Helvetica;" vertex="1" parent="1">
          <mxGeometry x="-630" y="-315" width="120" height="90" as="geometry" />
        </mxCell>
        <mxCell id="wwfGKBPIN9AT0zzVKgyh-194" value="Course managment" style="html=1;overflow=block;blockSpacing=1;whiteSpace=wrap;fontSize=20;spacing=9;strokeColor=#FFFFFF;rounded=1;absoluteArcSize=1;arcSize=9;fillColor=#unset;strokeWidth=2;lucidId=WRWwbz1kUZq-;fontColor=#FFFFFF;labelBorderColor=default;align=center;verticalAlign=middle;fontFamily=Helvetica;" vertex="1" parent="1">
          <mxGeometry x="-630" y="-30" width="120" height="94" as="geometry" />
        </mxCell>
        <mxCell id="wwfGKBPIN9AT0zzVKgyh-195" value="Initial user interactions" style="html=1;overflow=block;blockSpacing=1;whiteSpace=wrap;fontSize=20;spacing=9;strokeColor=#FFFFFF;rounded=1;absoluteArcSize=1;arcSize=9;fillColor=#unset;strokeWidth=2;lucidId=0RWw7g23bYiG;fontColor=#FFFFFF;labelBorderColor=default;" vertex="1" parent="1">
          <mxGeometry x="-630" y="214" width="120" height="90" as="geometry" />
        </mxCell>
        <mxCell id="wwfGKBPIN9AT0zzVKgyh-196" style="edgeStyle=orthogonalEdgeStyle;rounded=1;orthogonalLoop=1;jettySize=auto;html=1;strokeColor=#ffffff;strokeWidth=2.3;align=center;verticalAlign=middle;arcSize=12;fontFamily=Helvetica;fontSize=13;fontColor=#FFFFFF;labelBorderColor=default;labelBackgroundColor=default;startArrow=none;endArrow=block;endFill=1;" edge="1" parent="1" source="wwfGKBPIN9AT0zzVKgyh-197" target="wwfGKBPIN9AT0zzVKgyh-301">
          <mxGeometry relative="1" as="geometry" />
        </mxCell>
        <mxCell id="wwfGKBPIN9AT0zzVKgyh-197" value="Course Engagement" style="html=1;overflow=block;blockSpacing=1;whiteSpace=wrap;fontSize=20;spacing=9;strokeColor=#FFFFFF;rounded=1;absoluteArcSize=1;arcSize=9;fillColor=#unset;strokeWidth=2;lucidId=5RWwF.XyBdMo;fontColor=#FFFFFF;labelBorderColor=default;align=center;verticalAlign=middle;fontFamily=Helvetica;" vertex="1" parent="1">
          <mxGeometry x="-630" y="454" width="120" height="90" as="geometry" />
        </mxCell>
        <mxCell id="wwfGKBPIN9AT0zzVKgyh-198" style="edgeStyle=orthogonalEdgeStyle;rounded=1;orthogonalLoop=1;jettySize=auto;html=1;entryX=0;entryY=0.5;entryDx=0;entryDy=0;strokeColor=#ffffff;strokeWidth=2.3;align=center;verticalAlign=middle;arcSize=12;fontFamily=Helvetica;fontSize=13;fontColor=#FFFFFF;labelBorderColor=default;labelBackgroundColor=default;startArrow=none;endArrow=block;endFill=1;" edge="1" parent="1" source="wwfGKBPIN9AT0zzVKgyh-200" target="wwfGKBPIN9AT0zzVKgyh-343">
          <mxGeometry relative="1" as="geometry" />
        </mxCell>
        <mxCell id="wwfGKBPIN9AT0zzVKgyh-199" style="edgeStyle=orthogonalEdgeStyle;rounded=1;orthogonalLoop=1;jettySize=auto;html=1;entryX=0;entryY=0.5;entryDx=0;entryDy=0;strokeColor=#ffffff;strokeWidth=2.3;align=center;verticalAlign=middle;arcSize=12;fontFamily=Helvetica;fontSize=13;fontColor=#FFFFFF;labelBorderColor=default;labelBackgroundColor=default;startArrow=none;endArrow=block;endFill=1;" edge="1" parent="1" source="wwfGKBPIN9AT0zzVKgyh-200" target="wwfGKBPIN9AT0zzVKgyh-339">
          <mxGeometry relative="1" as="geometry" />
        </mxCell>
        <mxCell id="wwfGKBPIN9AT0zzVKgyh-200" value="Testing and deployment" style="html=1;overflow=block;blockSpacing=1;whiteSpace=wrap;fontSize=20;spacing=9;strokeColor=#FFFFFF;rounded=1;absoluteArcSize=1;arcSize=9;fillColor=#unset;strokeWidth=2;lucidId=8RWwPccYIDYV;fontColor=#FFFFFF;labelBorderColor=default;align=center;verticalAlign=middle;fontFamily=Helvetica;" vertex="1" parent="1">
          <mxGeometry x="-630" y="885" width="120" height="90" as="geometry" />
        </mxCell>
        <mxCell id="wwfGKBPIN9AT0zzVKgyh-201" value="" style="edgeStyle=orthogonalEdgeStyle;rounded=0;orthogonalLoop=1;jettySize=auto;html=1;fontFamily=Helvetica;fontSize=26.7;fontColor=#FFFFFF;labelBorderColor=none;" edge="1" parent="1" source="wwfGKBPIN9AT0zzVKgyh-204">
          <mxGeometry relative="1" as="geometry">
            <mxPoint x="-539.9411764705883" y="832" as="targetPoint" />
          </mxGeometry>
        </mxCell>
        <mxCell id="wwfGKBPIN9AT0zzVKgyh-202" style="edgeStyle=orthogonalEdgeStyle;rounded=1;orthogonalLoop=1;jettySize=auto;html=1;entryX=0;entryY=0.5;entryDx=0;entryDy=0;strokeColor=#ffffff;strokeWidth=2.3;align=center;verticalAlign=middle;arcSize=12;fontFamily=Helvetica;fontSize=13;fontColor=#FFFFFF;labelBorderColor=default;labelBackgroundColor=default;startArrow=none;endArrow=block;endFill=1;" edge="1" parent="1" source="wwfGKBPIN9AT0zzVKgyh-204" target="wwfGKBPIN9AT0zzVKgyh-322">
          <mxGeometry relative="1" as="geometry" />
        </mxCell>
        <mxCell id="wwfGKBPIN9AT0zzVKgyh-203" style="edgeStyle=orthogonalEdgeStyle;rounded=1;orthogonalLoop=1;jettySize=auto;html=1;entryX=0;entryY=0.5;entryDx=0;entryDy=0;strokeColor=#ffffff;strokeWidth=2.3;align=center;verticalAlign=middle;arcSize=12;fontFamily=Helvetica;fontSize=13;fontColor=#FFFFFF;labelBorderColor=default;labelBackgroundColor=default;startArrow=none;endArrow=block;endFill=1;" edge="1" parent="1" source="wwfGKBPIN9AT0zzVKgyh-204" target="wwfGKBPIN9AT0zzVKgyh-324">
          <mxGeometry relative="1" as="geometry" />
        </mxCell>
        <mxCell id="wwfGKBPIN9AT0zzVKgyh-204" value="Feedback and evolution" style="html=1;overflow=block;blockSpacing=1;whiteSpace=wrap;fontSize=20;spacing=9;strokeColor=#FFFFFF;rounded=1;absoluteArcSize=1;arcSize=9;fillColor=#unset;strokeWidth=2;lucidId=MSWw47peg1jQ;fontColor=#FFFFFF;labelBorderColor=default;align=center;verticalAlign=middle;fontFamily=Helvetica;" vertex="1" parent="1">
          <mxGeometry x="-630" y="662" width="120" height="90" as="geometry" />
        </mxCell>
        <mxCell id="wwfGKBPIN9AT0zzVKgyh-205" value="" style="html=1;jettySize=18;whiteSpace=wrap;fontSize=13;strokeColor=#ffffff;strokeOpacity=100;strokeWidth=2.3;rounded=1;arcSize=12;edgeStyle=orthogonalEdgeStyle;startArrow=none;endArrow=block;endFill=1;exitX=1.005;exitY=0.5;exitPerimeter=0;entryX=-0.006;entryY=0.5;entryPerimeter=0;lucidId=YSWwIrGZ60Uz;fontColor=#FFFFFF;labelBorderColor=default;shadow=0;" edge="1" parent="1" source="wwfGKBPIN9AT0zzVKgyh-192" target="wwfGKBPIN9AT0zzVKgyh-193">
          <mxGeometry width="100" height="100" relative="1" as="geometry">
            <Array as="points" />
          </mxGeometry>
        </mxCell>
        <mxCell id="wwfGKBPIN9AT0zzVKgyh-206" value="Creating HTML framework week 0" style="html=1;overflow=block;blockSpacing=1;whiteSpace=wrap;fontSize=16.7;spacing=9;strokeColor=#fff;rounded=1;absoluteArcSize=1;arcSize=9;fillColor=#unset;strokeWidth=2;lucidId=fVWwxdWhxpgB;fontColor=#FFFFFF;labelBorderColor=default;align=center;verticalAlign=middle;fontFamily=Helvetica;" vertex="1" parent="1">
          <mxGeometry x="-435" y="-323" width="120" height="106" as="geometry" />
        </mxCell>
        <mxCell id="wwfGKBPIN9AT0zzVKgyh-207" value="Integrating Multimedia Elements week 1 to 2" style="html=1;overflow=block;blockSpacing=1;whiteSpace=wrap;fontSize=16.7;spacing=9;strokeColor=#fff;rounded=1;absoluteArcSize=1;arcSize=9;fillColor=#unset;strokeWidth=2;lucidId=u4WwEcM92rI4;fontColor=#FFFFFF;labelBorderColor=default;align=center;verticalAlign=middle;fontFamily=Helvetica;" vertex="1" parent="1">
          <mxGeometry x="-240" y="-375" width="120" height="98" as="geometry" />
        </mxCell>
        <mxCell id="wwfGKBPIN9AT0zzVKgyh-208" value="Designing User Interface week 1 to 2" style="html=1;overflow=block;blockSpacing=1;whiteSpace=wrap;fontSize=16.7;spacing=9;strokeColor=#fff;rounded=1;absoluteArcSize=1;arcSize=9;fillColor=#unset;strokeWidth=2;lucidId=P4WwIU27D9H6;fontColor=#FFFFFF;labelBorderColor=default;align=center;verticalAlign=middle;fontFamily=Helvetica;" vertex="1" parent="1">
          <mxGeometry x="-240" y="-259" width="120" height="98" as="geometry" />
        </mxCell>
        <mxCell id="wwfGKBPIN9AT0zzVKgyh-209" value="" style="html=1;jettySize=18;whiteSpace=wrap;fontSize=13;strokeColor=#ffffff;strokeOpacity=100;strokeWidth=2.3;rounded=1;arcSize=12;edgeStyle=orthogonalEdgeStyle;startArrow=none;endArrow=block;endFill=1;exitX=1.006;exitY=0.5;exitPerimeter=0;entryX=-0.006;entryY=0.5;entryPerimeter=0;lucidId=04WwTnW86UK2;fontColor=#FFFFFF;labelBorderColor=default;" edge="1" parent="1" source="wwfGKBPIN9AT0zzVKgyh-193" target="wwfGKBPIN9AT0zzVKgyh-206">
          <mxGeometry width="100" height="100" relative="1" as="geometry">
            <Array as="points" />
          </mxGeometry>
        </mxCell>
        <mxCell id="wwfGKBPIN9AT0zzVKgyh-210" value="" style="html=1;jettySize=18;whiteSpace=wrap;fontSize=13;strokeColor=#ffffff;strokeOpacity=100;strokeWidth=2.3;rounded=1;arcSize=12;edgeStyle=orthogonalEdgeStyle;startArrow=none;endArrow=block;endFill=1;exitX=1.006;exitY=0.5;exitPerimeter=0;entryX=-0.006;entryY=0.5;entryPerimeter=0;lucidId=24WwUi3hUjHv;fontColor=#FFFFFF;labelBorderColor=default;" edge="1" parent="1" source="wwfGKBPIN9AT0zzVKgyh-206" target="wwfGKBPIN9AT0zzVKgyh-207">
          <mxGeometry width="100" height="100" relative="1" as="geometry">
            <Array as="points" />
          </mxGeometry>
        </mxCell>
        <mxCell id="wwfGKBPIN9AT0zzVKgyh-211" value="" style="html=1;jettySize=18;whiteSpace=wrap;fontSize=13;strokeColor=#ffffff;strokeOpacity=100;strokeWidth=2.3;rounded=1;arcSize=12;edgeStyle=orthogonalEdgeStyle;startArrow=none;endArrow=block;endFill=1;exitX=1.005;exitY=0.5;exitPerimeter=0;entryX=-0.006;entryY=0.5;entryPerimeter=0;lucidId=36WwVzkl_tzB;fontColor=#FFFFFF;labelBorderColor=default;shadow=0;" edge="1" parent="1" source="wwfGKBPIN9AT0zzVKgyh-192" target="wwfGKBPIN9AT0zzVKgyh-195">
          <mxGeometry width="100" height="100" relative="1" as="geometry">
            <Array as="points" />
          </mxGeometry>
        </mxCell>
        <mxCell id="wwfGKBPIN9AT0zzVKgyh-212" value="" style="html=1;jettySize=18;whiteSpace=wrap;fontSize=13;strokeColor=#ffffff;strokeOpacity=100;strokeWidth=2.3;rounded=1;arcSize=12;edgeStyle=orthogonalEdgeStyle;startArrow=none;endArrow=block;endFill=1;exitX=1.005;exitY=0.5;exitPerimeter=0;entryX=-0.006;entryY=0.5;entryPerimeter=0;lucidId=-6Ww~zQLFKCc;fontColor=#FFFFFF;labelBorderColor=default;shadow=0;" edge="1" parent="1" source="wwfGKBPIN9AT0zzVKgyh-192" target="wwfGKBPIN9AT0zzVKgyh-194">
          <mxGeometry width="100" height="100" relative="1" as="geometry">
            <Array as="points" />
          </mxGeometry>
        </mxCell>
        <mxCell id="wwfGKBPIN9AT0zzVKgyh-213" value="" style="html=1;jettySize=18;whiteSpace=wrap;fontSize=13;strokeColor=#ffffff;strokeOpacity=100;strokeWidth=2.3;rounded=1;arcSize=12;edgeStyle=orthogonalEdgeStyle;startArrow=none;endArrow=block;endFill=1;exitX=1.005;exitY=0.5;exitPerimeter=0;entryX=-0.006;entryY=0.5;entryPerimeter=0;lucidId=~6Wwioi8Ltus;fontColor=#FFFFFF;labelBorderColor=default;shadow=0;" edge="1" parent="1" source="wwfGKBPIN9AT0zzVKgyh-192" target="wwfGKBPIN9AT0zzVKgyh-197">
          <mxGeometry width="100" height="100" relative="1" as="geometry">
            <Array as="points" />
          </mxGeometry>
        </mxCell>
        <mxCell id="wwfGKBPIN9AT0zzVKgyh-214" value="`" style="text;html=1;resizable=0;labelBackgroundColor=default;align=center;verticalAlign=middle;fontStyle=1;fontColor=#FFFFFF;fontSize=13.3;labelBorderColor=default;" vertex="1" parent="wwfGKBPIN9AT0zzVKgyh-213">
          <mxGeometry relative="1" as="geometry" />
        </mxCell>
        <mxCell id="wwfGKBPIN9AT0zzVKgyh-215" value="" style="html=1;jettySize=18;whiteSpace=wrap;fontSize=13;strokeColor=#ffffff;strokeOpacity=100;strokeWidth=2.3;rounded=1;arcSize=12;edgeStyle=orthogonalEdgeStyle;startArrow=none;endArrow=block;endFill=1;exitX=1.005;exitY=0.5;exitPerimeter=0;entryX=-0.006;entryY=0.5;entryPerimeter=0;lucidId=e7WwmPgdg1bF;fontColor=#FFFFFF;labelBorderColor=default;shadow=0;" edge="1" parent="1" source="wwfGKBPIN9AT0zzVKgyh-192" target="wwfGKBPIN9AT0zzVKgyh-204">
          <mxGeometry width="100" height="100" relative="1" as="geometry">
            <Array as="points" />
          </mxGeometry>
        </mxCell>
        <mxCell id="wwfGKBPIN9AT0zzVKgyh-216" value="" style="html=1;jettySize=18;whiteSpace=wrap;fontSize=13;strokeColor=#ffffff;strokeOpacity=100;strokeWidth=2.3;rounded=1;arcSize=12;edgeStyle=orthogonalEdgeStyle;startArrow=none;endArrow=block;endFill=1;exitX=1.005;exitY=0.5;exitPerimeter=0;entryX=-0.006;entryY=0.5;entryPerimeter=0;lucidId=l7Ww8v5D2~IP;fontColor=#FFFFFF;labelBorderColor=default;shadow=0;" edge="1" parent="1" source="wwfGKBPIN9AT0zzVKgyh-192" target="wwfGKBPIN9AT0zzVKgyh-200">
          <mxGeometry width="100" height="100" relative="1" as="geometry">
            <Array as="points" />
          </mxGeometry>
        </mxCell>
        <mxCell id="wwfGKBPIN9AT0zzVKgyh-217" value="" style="html=1;jettySize=18;whiteSpace=wrap;fontSize=13;strokeColor=#ffffff;strokeOpacity=100;strokeWidth=2.3;rounded=1;arcSize=12;edgeStyle=orthogonalEdgeStyle;startArrow=none;endArrow=block;endFill=1;exitX=1.006;exitY=0.5;exitPerimeter=0;entryX=-0.006;entryY=0.5;entryPerimeter=0;lucidId=R7WwN6VCyxMW;fontColor=#FFFFFF;labelBorderColor=default;" edge="1" parent="1" source="wwfGKBPIN9AT0zzVKgyh-206" target="wwfGKBPIN9AT0zzVKgyh-208">
          <mxGeometry width="100" height="100" relative="1" as="geometry">
            <Array as="points" />
          </mxGeometry>
        </mxCell>
        <mxCell id="wwfGKBPIN9AT0zzVKgyh-218" value="implementing JavaScript Functions week 3 to 5" style="html=1;overflow=block;blockSpacing=1;whiteSpace=wrap;fontSize=16.7;spacing=9;strokeColor=#fff;rounded=1;absoluteArcSize=1;arcSize=9;fillColor=#unset;strokeWidth=2;lucidId=q_Wwz7gSpk9k;fontColor=#FFFFFF;labelBorderColor=default;align=center;verticalAlign=middle;fontFamily=Helvetica;" vertex="1" parent="1">
          <mxGeometry x="160" y="-323.5" width="210" height="102" as="geometry" />
        </mxCell>
        <mxCell id="wwfGKBPIN9AT0zzVKgyh-219" value="Applying CSS Styling week 3 to 5" style="html=1;overflow=block;blockSpacing=1;whiteSpace=wrap;fontSize=16.7;spacing=9;strokeColor=#fff;rounded=1;absoluteArcSize=1;arcSize=9;fillColor=#unset;strokeWidth=2;lucidId=s_Wwy78iVG4K;fontColor=#FFFFFF;labelBorderColor=default;align=center;verticalAlign=middle;fontFamily=Helvetica;" vertex="1" parent="1">
          <mxGeometry x="160" y="-444.5" width="210" height="94" as="geometry" />
        </mxCell>
        <mxCell id="wwfGKBPIN9AT0zzVKgyh-220" value="Establishing Database Connections week 3 to 5" style="html=1;overflow=block;blockSpacing=1;whiteSpace=wrap;fontSize=16.7;spacing=9;strokeColor=#fff;rounded=1;absoluteArcSize=1;arcSize=9;fillColor=#unset;strokeWidth=2;lucidId=v_WwgO.2-N5L;fontColor=#FFFFFF;labelBorderColor=default;align=center;verticalAlign=middle;fontFamily=Helvetica;" vertex="1" parent="1">
          <mxGeometry x="160" y="-197.5" width="210" height="102" as="geometry" />
        </mxCell>
        <mxCell id="wwfGKBPIN9AT0zzVKgyh-221" value="" style="html=1;jettySize=18;whiteSpace=wrap;fontSize=13;strokeColor=#3a414a;strokeOpacity=100;strokeWidth=2.3;rounded=1;arcSize=12;edgeStyle=orthogonalEdgeStyle;startArrow=none;endArrow=block;endFill=1;exitX=1.006;exitY=0.5;exitPerimeter=0;entryX=-0.004;entryY=0.5;entryPerimeter=0;lucidId=C~WwT9MRfIEK;fontColor=#FFFFFF;labelBorderColor=default;" edge="1" parent="1" source="wwfGKBPIN9AT0zzVKgyh-207" target="wwfGKBPIN9AT0zzVKgyh-218">
          <mxGeometry width="100" height="100" relative="1" as="geometry">
            <Array as="points" />
          </mxGeometry>
        </mxCell>
        <mxCell id="wwfGKBPIN9AT0zzVKgyh-222" value="" style="html=1;jettySize=18;whiteSpace=wrap;fontSize=13;strokeColor=#3a414a;strokeOpacity=100;strokeWidth=2.3;rounded=1;arcSize=12;edgeStyle=orthogonalEdgeStyle;startArrow=none;endArrow=block;endFill=1;exitX=1.006;exitY=0.5;exitPerimeter=0;entryX=-0.004;entryY=0.5;entryPerimeter=0;lucidId=H~Wwwb2uKfCZ;fontColor=#FFFFFF;labelBorderColor=default;" edge="1" parent="1" source="wwfGKBPIN9AT0zzVKgyh-207" target="wwfGKBPIN9AT0zzVKgyh-220">
          <mxGeometry width="100" height="100" relative="1" as="geometry">
            <Array as="points" />
          </mxGeometry>
        </mxCell>
        <mxCell id="wwfGKBPIN9AT0zzVKgyh-223" value="" style="html=1;jettySize=18;whiteSpace=wrap;fontSize=13;strokeColor=#3a414a;strokeOpacity=100;strokeWidth=2.3;rounded=1;arcSize=12;edgeStyle=orthogonalEdgeStyle;startArrow=none;endArrow=block;endFill=1;exitX=1.006;exitY=0.5;exitPerimeter=0;entryX=-0.004;entryY=0.5;entryPerimeter=0;lucidId=X~WwsiyL9Adn;fontColor=#FFFFFF;labelBorderColor=default;" edge="1" parent="1" source="wwfGKBPIN9AT0zzVKgyh-207" target="wwfGKBPIN9AT0zzVKgyh-219">
          <mxGeometry width="100" height="100" relative="1" as="geometry">
            <Array as="points" />
          </mxGeometry>
        </mxCell>
        <mxCell id="wwfGKBPIN9AT0zzVKgyh-224" value="" style="html=1;jettySize=18;whiteSpace=wrap;fontSize=13;strokeColor=#FFFFFF;strokeOpacity=100;strokeWidth=2.3;rounded=1;arcSize=12;edgeStyle=orthogonalEdgeStyle;startArrow=none;endArrow=block;endFill=1;exitX=1.006;exitY=0.5;exitPerimeter=0;entryX=-0.004;entryY=0.5;entryPerimeter=0;lucidId=0~WwxIV1meO2;fontColor=#FFFFFF;labelBorderColor=default;" edge="1" parent="1" source="wwfGKBPIN9AT0zzVKgyh-208" target="wwfGKBPIN9AT0zzVKgyh-219">
          <mxGeometry width="100" height="100" relative="1" as="geometry">
            <Array as="points" />
          </mxGeometry>
        </mxCell>
        <mxCell id="wwfGKBPIN9AT0zzVKgyh-225" value="" style="html=1;jettySize=18;whiteSpace=wrap;fontSize=13;strokeColor=#FFFFFF;strokeOpacity=100;strokeWidth=2.3;rounded=1;arcSize=12;edgeStyle=orthogonalEdgeStyle;startArrow=none;endArrow=block;endFill=1;exitX=1.006;exitY=0.5;exitPerimeter=0;entryX=-0.004;entryY=0.5;entryPerimeter=0;lucidId=caXwZ3tZxYw-;fontColor=#FFFFFF;labelBorderColor=default;" edge="1" parent="1" source="wwfGKBPIN9AT0zzVKgyh-208" target="wwfGKBPIN9AT0zzVKgyh-218">
          <mxGeometry width="100" height="100" relative="1" as="geometry">
            <Array as="points" />
          </mxGeometry>
        </mxCell>
        <mxCell id="wwfGKBPIN9AT0zzVKgyh-226" value="" style="html=1;jettySize=18;whiteSpace=wrap;fontSize=13;strokeColor=#FFFFFF;strokeOpacity=100;strokeWidth=2.3;rounded=1;arcSize=12;edgeStyle=orthogonalEdgeStyle;startArrow=none;endArrow=block;endFill=1;exitX=1.006;exitY=0.5;exitPerimeter=0;entryX=-0.004;entryY=0.5;entryPerimeter=0;lucidId=iaXwv.EcjnFe;fontColor=#FFFFFF;labelBorderColor=default;" edge="1" parent="1" source="wwfGKBPIN9AT0zzVKgyh-208" target="wwfGKBPIN9AT0zzVKgyh-220">
          <mxGeometry width="100" height="100" relative="1" as="geometry">
            <Array as="points" />
          </mxGeometry>
        </mxCell>
        <mxCell id="wwfGKBPIN9AT0zzVKgyh-227" style="edgeStyle=orthogonalEdgeStyle;rounded=1;orthogonalLoop=1;jettySize=auto;html=1;entryX=0.5;entryY=0;entryDx=0;entryDy=0;strokeColor=#ffffff;strokeWidth=2.3;align=center;verticalAlign=middle;arcSize=12;fontFamily=Helvetica;fontSize=13;fontColor=#FFFFFF;labelBorderColor=default;labelBackgroundColor=default;startArrow=none;endArrow=block;endFill=1;" edge="1" parent="1" source="wwfGKBPIN9AT0zzVKgyh-228" target="wwfGKBPIN9AT0zzVKgyh-351">
          <mxGeometry relative="1" as="geometry">
            <Array as="points">
              <mxPoint x="1490" y="-289" />
              <mxPoint x="1490" y="314" />
              <mxPoint x="1395" y="314" />
            </Array>
          </mxGeometry>
        </mxCell>
        <mxCell id="wwfGKBPIN9AT0zzVKgyh-228" value="Setting Up Server-Side Scripting week 29 to 32" style="html=1;overflow=block;blockSpacing=1;whiteSpace=wrap;fontSize=16.7;spacing=9;strokeColor=#fff;rounded=1;absoluteArcSize=1;arcSize=9;fillColor=#unset;strokeWidth=2;lucidId=xaXwqu1xT6aE;fontColor=#FFFFFF;labelBorderColor=default;align=center;verticalAlign=middle;fontFamily=Helvetica;" vertex="1" parent="1">
          <mxGeometry x="1150" y="-356" width="240" height="134" as="geometry" />
        </mxCell>
        <mxCell id="wwfGKBPIN9AT0zzVKgyh-229" value="" style="html=1;jettySize=18;whiteSpace=wrap;fontSize=13;strokeColor=#ffffff;strokeOpacity=100;strokeWidth=2.3;rounded=1;arcSize=12;edgeStyle=orthogonalEdgeStyle;startArrow=none;endArrow=block;endFill=1;exitX=1.004;exitY=0.5;exitPerimeter=0;entryX=-0.003;entryY=0.5;entryPerimeter=0;lucidId=_aXw-rAT58jd;fontColor=#FFFFFF;labelBorderColor=default;" edge="1" parent="1" source="wwfGKBPIN9AT0zzVKgyh-219" target="wwfGKBPIN9AT0zzVKgyh-228">
          <mxGeometry width="100" height="100" relative="1" as="geometry">
            <Array as="points" />
          </mxGeometry>
        </mxCell>
        <mxCell id="wwfGKBPIN9AT0zzVKgyh-230" value="" style="html=1;jettySize=18;whiteSpace=wrap;fontSize=13;strokeColor=#ffffff;strokeOpacity=100;strokeWidth=2.3;rounded=1;arcSize=12;edgeStyle=orthogonalEdgeStyle;startArrow=none;endArrow=block;endFill=1;exitX=1.004;exitY=0.5;exitPerimeter=0;entryX=-0.003;entryY=0.5;entryPerimeter=0;lucidId=~aXwqGwUXMOK;fontColor=#FFFFFF;labelBorderColor=default;" edge="1" parent="1" source="wwfGKBPIN9AT0zzVKgyh-218" target="wwfGKBPIN9AT0zzVKgyh-228">
          <mxGeometry width="100" height="100" relative="1" as="geometry">
            <Array as="points" />
          </mxGeometry>
        </mxCell>
        <mxCell id="wwfGKBPIN9AT0zzVKgyh-231" value="" style="html=1;jettySize=18;whiteSpace=wrap;fontSize=13;strokeColor=#ffffff;strokeOpacity=100;strokeWidth=2.3;rounded=1;arcSize=12;edgeStyle=orthogonalEdgeStyle;startArrow=none;endArrow=block;endFill=1;exitX=1.004;exitY=0.5;exitPerimeter=0;entryX=-0.003;entryY=0.5;entryPerimeter=0;lucidId=bbXwTyQICqyS;fontColor=#FFFFFF;labelBorderColor=default;" edge="1" parent="1" source="wwfGKBPIN9AT0zzVKgyh-220" target="wwfGKBPIN9AT0zzVKgyh-228">
          <mxGeometry width="100" height="100" relative="1" as="geometry">
            <Array as="points" />
          </mxGeometry>
        </mxCell>
        <mxCell id="wwfGKBPIN9AT0zzVKgyh-232" value="Course Creation week 6 to 7" style="html=1;overflow=block;blockSpacing=1;whiteSpace=wrap;fontSize=16.7;spacing=9;strokeColor=#fff;rounded=1;absoluteArcSize=1;arcSize=9;fillColor=#unset;strokeWidth=2;lucidId=nbXwz~CWfo2K;fontColor=#FFFFFF;labelBorderColor=default;align=center;verticalAlign=middle;fontFamily=Helvetica;" vertex="1" parent="1">
          <mxGeometry x="-420" y="-30" width="120" height="90" as="geometry" />
        </mxCell>
        <mxCell id="wwfGKBPIN9AT0zzVKgyh-233" value="" style="html=1;jettySize=18;whiteSpace=wrap;fontSize=13;strokeColor=#ffffff;strokeOpacity=100;strokeWidth=2.3;rounded=1;arcSize=12;edgeStyle=orthogonalEdgeStyle;startArrow=none;endArrow=block;endFill=1;exitX=1.006;exitY=0.5;exitPerimeter=0;entryX=-0.006;entryY=0.5;entryPerimeter=0;lucidId=ZbXwPBj7xnwB;fontColor=#FFFFFF;labelBorderColor=default;" edge="1" parent="1" source="wwfGKBPIN9AT0zzVKgyh-194" target="wwfGKBPIN9AT0zzVKgyh-232">
          <mxGeometry width="100" height="100" relative="1" as="geometry">
            <Array as="points" />
          </mxGeometry>
        </mxCell>
        <mxCell id="wwfGKBPIN9AT0zzVKgyh-234" value="Course Description Writing week 8 to 8.5" style="html=1;overflow=block;blockSpacing=1;whiteSpace=wrap;fontSize=16.7;spacing=9;strokeColor=#fff;rounded=1;absoluteArcSize=1;arcSize=9;fillColor=#unset;strokeWidth=2;lucidId=HdXwfL1GC3cv;fontColor=#FFFFFF;labelBorderColor=default;align=center;verticalAlign=middle;fontFamily=Helvetica;" vertex="1" parent="1">
          <mxGeometry x="-225" y="-105" width="180" height="60" as="geometry" />
        </mxCell>
        <mxCell id="wwfGKBPIN9AT0zzVKgyh-235" value="Assignment week 8" style="html=1;overflow=block;blockSpacing=1;whiteSpace=wrap;fontSize=16.7;spacing=9;strokeColor=#fff;rounded=1;absoluteArcSize=1;arcSize=9;fillColor=#unset;strokeWidth=2;lucidId=ZdXwweveCj7J;fontColor=#FFFFFF;labelBorderColor=default;align=center;verticalAlign=middle;fontFamily=Helvetica;" vertex="1" parent="1">
          <mxGeometry x="-225" y="-30" width="180" height="60" as="geometry" />
        </mxCell>
        <mxCell id="wwfGKBPIN9AT0zzVKgyh-236" value="Quiz and Test Set Up week 8" style="html=1;overflow=block;blockSpacing=1;whiteSpace=wrap;fontSize=16.7;spacing=9;strokeColor=#fff;rounded=1;absoluteArcSize=1;arcSize=9;fillColor=#unset;strokeWidth=2;lucidId=0dXwEiZ8F8B8;fontColor=#FFFFFF;labelBorderColor=default;align=center;verticalAlign=middle;fontFamily=Helvetica;" vertex="1" parent="1">
          <mxGeometry x="-225" y="45" width="180" height="60" as="geometry" />
        </mxCell>
        <mxCell id="wwfGKBPIN9AT0zzVKgyh-237" value="Assignment Distribution week 8" style="html=1;overflow=block;blockSpacing=1;whiteSpace=wrap;fontSize=16.7;spacing=9;strokeColor=#fff;rounded=1;absoluteArcSize=1;arcSize=9;fillColor=#unset;strokeWidth=2;lucidId=0dXwlqodynDd;fontColor=#FFFFFF;labelBorderColor=default;align=center;verticalAlign=middle;fontFamily=Helvetica;" vertex="1" parent="1">
          <mxGeometry x="-225" y="120" width="180" height="60" as="geometry" />
        </mxCell>
        <mxCell id="wwfGKBPIN9AT0zzVKgyh-238" value="" style="html=1;jettySize=18;whiteSpace=wrap;fontSize=13;strokeColor=#ffffff;strokeOpacity=100;strokeWidth=2.3;rounded=1;arcSize=12;edgeStyle=orthogonalEdgeStyle;startArrow=none;endArrow=block;endFill=1;exitX=1.006;exitY=0.5;exitPerimeter=0;entryX=-0.004;entryY=0.5;entryPerimeter=0;lucidId=LfXwT70a8j6p;fontColor=#FFFFFF;labelBorderColor=default;" edge="1" parent="1" source="wwfGKBPIN9AT0zzVKgyh-232" target="wwfGKBPIN9AT0zzVKgyh-234">
          <mxGeometry width="100" height="100" relative="1" as="geometry">
            <Array as="points" />
          </mxGeometry>
        </mxCell>
        <mxCell id="wwfGKBPIN9AT0zzVKgyh-239" value="" style="html=1;jettySize=18;whiteSpace=wrap;fontSize=13;strokeColor=#ffffff;strokeOpacity=100;strokeWidth=2.3;rounded=1;arcSize=12;edgeStyle=orthogonalEdgeStyle;startArrow=none;endArrow=block;endFill=1;exitX=1.006;exitY=0.5;exitPerimeter=0;entryX=-0.004;entryY=0.5;entryPerimeter=0;lucidId=OfXwQFNfLlZv;fontColor=#FFFFFF;labelBorderColor=default;" edge="1" parent="1" source="wwfGKBPIN9AT0zzVKgyh-232" target="wwfGKBPIN9AT0zzVKgyh-235">
          <mxGeometry width="100" height="100" relative="1" as="geometry">
            <Array as="points" />
          </mxGeometry>
        </mxCell>
        <mxCell id="wwfGKBPIN9AT0zzVKgyh-240" value="" style="html=1;jettySize=18;whiteSpace=wrap;fontSize=13;strokeColor=#ffffff;strokeOpacity=100;strokeWidth=2.3;rounded=1;arcSize=12;edgeStyle=orthogonalEdgeStyle;startArrow=none;endArrow=block;endFill=1;exitX=1.006;exitY=0.5;exitPerimeter=0;entryX=-0.004;entryY=0.5;entryPerimeter=0;lucidId=QfXwIs5HDcie;fontColor=#FFFFFF;labelBorderColor=default;" edge="1" parent="1" source="wwfGKBPIN9AT0zzVKgyh-232" target="wwfGKBPIN9AT0zzVKgyh-236">
          <mxGeometry width="100" height="100" relative="1" as="geometry">
            <Array as="points" />
          </mxGeometry>
        </mxCell>
        <mxCell id="wwfGKBPIN9AT0zzVKgyh-241" value="" style="html=1;jettySize=18;whiteSpace=wrap;fontSize=13;strokeColor=#ffffff;strokeOpacity=100;strokeWidth=2.3;rounded=1;arcSize=12;edgeStyle=orthogonalEdgeStyle;startArrow=none;endArrow=block;endFill=1;exitX=1.006;exitY=0.5;exitPerimeter=0;entryX=-0.004;entryY=0.5;entryPerimeter=0;lucidId=TfXw6b0PjS4b;fontColor=#FFFFFF;labelBorderColor=default;" edge="1" parent="1" source="wwfGKBPIN9AT0zzVKgyh-232" target="wwfGKBPIN9AT0zzVKgyh-237">
          <mxGeometry width="100" height="100" relative="1" as="geometry">
            <Array as="points" />
          </mxGeometry>
        </mxCell>
        <mxCell id="wwfGKBPIN9AT0zzVKgyh-242" value="Course Content Upload week 9" style="html=1;overflow=block;blockSpacing=1;whiteSpace=wrap;fontSize=16.7;spacing=9;strokeColor=#fff;rounded=1;absoluteArcSize=1;arcSize=9;fillColor=#unset;strokeWidth=2;lucidId=agXwA_L-jVMt;fontColor=#FFFFFF;labelBorderColor=default;align=center;verticalAlign=middle;fontFamily=Helvetica;" vertex="1" parent="1">
          <mxGeometry x="120" y="-19" width="195" height="102" as="geometry" />
        </mxCell>
        <mxCell id="wwfGKBPIN9AT0zzVKgyh-243" value="" style="html=1;jettySize=18;whiteSpace=wrap;fontSize=13;strokeColor=#ffffff;strokeOpacity=100;strokeWidth=2.3;rounded=1;arcSize=12;edgeStyle=orthogonalEdgeStyle;startArrow=none;endArrow=block;endFill=1;exitX=1.004;exitY=0.5;exitPerimeter=0;entryX=-0.004;entryY=0.5;entryPerimeter=0;lucidId=ugXwbtHk9.Fa;fontColor=#FFFFFF;labelBorderColor=default;" edge="1" parent="1" source="wwfGKBPIN9AT0zzVKgyh-234" target="wwfGKBPIN9AT0zzVKgyh-242">
          <mxGeometry width="100" height="100" relative="1" as="geometry">
            <Array as="points" />
          </mxGeometry>
        </mxCell>
        <mxCell id="wwfGKBPIN9AT0zzVKgyh-244" value="" style="html=1;jettySize=18;whiteSpace=wrap;fontSize=13;strokeColor=#ffffff;strokeOpacity=100;strokeWidth=2.3;rounded=1;arcSize=12;edgeStyle=orthogonalEdgeStyle;startArrow=none;endArrow=block;endFill=1;exitX=1.004;exitY=0.5;exitPerimeter=0;entryX=-0.004;entryY=0.5;entryPerimeter=0;lucidId=wgXwgXA2iIJe;fontColor=#FFFFFF;labelBorderColor=default;" edge="1" parent="1" source="wwfGKBPIN9AT0zzVKgyh-235" target="wwfGKBPIN9AT0zzVKgyh-242">
          <mxGeometry width="100" height="100" relative="1" as="geometry">
            <Array as="points" />
          </mxGeometry>
        </mxCell>
        <mxCell id="wwfGKBPIN9AT0zzVKgyh-245" value="" style="html=1;jettySize=18;whiteSpace=wrap;fontSize=13;strokeColor=#ffffff;strokeOpacity=100;strokeWidth=2.3;rounded=1;arcSize=12;edgeStyle=orthogonalEdgeStyle;startArrow=none;endArrow=block;endFill=1;exitX=1.004;exitY=0.5;exitPerimeter=0;entryX=-0.004;entryY=0.5;entryPerimeter=0;lucidId=xgXwigSr5u_B;fontColor=#FFFFFF;labelBorderColor=default;" edge="1" parent="1" source="wwfGKBPIN9AT0zzVKgyh-236" target="wwfGKBPIN9AT0zzVKgyh-242">
          <mxGeometry width="100" height="100" relative="1" as="geometry">
            <Array as="points" />
          </mxGeometry>
        </mxCell>
        <mxCell id="wwfGKBPIN9AT0zzVKgyh-246" value="" style="html=1;jettySize=18;whiteSpace=wrap;fontSize=13;strokeColor=#ffffff;strokeOpacity=100;strokeWidth=2.3;rounded=1;arcSize=12;edgeStyle=orthogonalEdgeStyle;startArrow=none;endArrow=block;endFill=1;exitX=1.004;exitY=0.5;exitPerimeter=0;entryX=-0.004;entryY=0.5;entryPerimeter=0;lucidId=zgXw494s_LPo;fontColor=#FFFFFF;labelBorderColor=default;" edge="1" parent="1" source="wwfGKBPIN9AT0zzVKgyh-237" target="wwfGKBPIN9AT0zzVKgyh-242">
          <mxGeometry width="100" height="100" relative="1" as="geometry">
            <Array as="points" />
          </mxGeometry>
        </mxCell>
        <mxCell id="wwfGKBPIN9AT0zzVKgyh-247" style="edgeStyle=orthogonalEdgeStyle;rounded=1;orthogonalLoop=1;jettySize=auto;html=1;entryX=0;entryY=0.5;entryDx=0;entryDy=0;strokeColor=#ffffff;strokeWidth=2.3;align=center;verticalAlign=middle;arcSize=12;fontFamily=Helvetica;fontSize=13;fontColor=#FFFFFF;labelBorderColor=default;labelBackgroundColor=default;startArrow=none;endArrow=block;endFill=1;" edge="1" parent="1" source="wwfGKBPIN9AT0zzVKgyh-249" target="wwfGKBPIN9AT0zzVKgyh-287">
          <mxGeometry relative="1" as="geometry" />
        </mxCell>
        <mxCell id="wwfGKBPIN9AT0zzVKgyh-248" style="edgeStyle=orthogonalEdgeStyle;rounded=1;orthogonalLoop=1;jettySize=auto;html=1;entryX=0;entryY=0.5;entryDx=0;entryDy=0;strokeColor=#ffffff;strokeWidth=2.3;align=center;verticalAlign=middle;arcSize=12;fontFamily=Helvetica;fontSize=13;fontColor=#FFFFFF;labelBorderColor=default;labelBackgroundColor=default;startArrow=none;endArrow=block;endFill=1;" edge="1" parent="1" source="wwfGKBPIN9AT0zzVKgyh-249" target="wwfGKBPIN9AT0zzVKgyh-289">
          <mxGeometry relative="1" as="geometry" />
        </mxCell>
        <mxCell id="wwfGKBPIN9AT0zzVKgyh-249" value="Learner Management week 10" style="html=1;overflow=block;blockSpacing=1;whiteSpace=wrap;fontSize=16.7;spacing=9;strokeColor=#fff;rounded=1;absoluteArcSize=1;arcSize=9;fillColor=#unset;strokeWidth=2;lucidId=EgXwhM0OylRJ;fontColor=#FFFFFF;labelBorderColor=default;align=center;verticalAlign=middle;fontFamily=Helvetica;" vertex="1" parent="1">
          <mxGeometry x="450" y="-105" width="120" height="90" as="geometry" />
        </mxCell>
        <mxCell id="wwfGKBPIN9AT0zzVKgyh-250" style="edgeStyle=orthogonalEdgeStyle;rounded=1;orthogonalLoop=1;jettySize=auto;html=1;entryX=0;entryY=0.5;entryDx=0;entryDy=0;strokeColor=#ffffff;strokeWidth=2.3;align=center;verticalAlign=middle;arcSize=12;fontFamily=Helvetica;fontSize=13;fontColor=#FFFFFF;labelBorderColor=default;labelBackgroundColor=default;startArrow=none;endArrow=block;endFill=1;" edge="1" parent="1" source="wwfGKBPIN9AT0zzVKgyh-252" target="wwfGKBPIN9AT0zzVKgyh-287">
          <mxGeometry relative="1" as="geometry" />
        </mxCell>
        <mxCell id="wwfGKBPIN9AT0zzVKgyh-251" style="edgeStyle=orthogonalEdgeStyle;rounded=1;orthogonalLoop=1;jettySize=auto;html=1;entryX=0;entryY=0.5;entryDx=0;entryDy=0;strokeColor=#ffffff;strokeWidth=2.3;align=center;verticalAlign=middle;arcSize=12;fontFamily=Helvetica;fontSize=13;fontColor=#FFFFFF;labelBorderColor=default;labelBackgroundColor=default;startArrow=none;endArrow=block;endFill=1;" edge="1" parent="1" source="wwfGKBPIN9AT0zzVKgyh-252" target="wwfGKBPIN9AT0zzVKgyh-289">
          <mxGeometry relative="1" as="geometry" />
        </mxCell>
        <mxCell id="wwfGKBPIN9AT0zzVKgyh-252" value="Course Deletion week 10" style="html=1;overflow=block;blockSpacing=1;whiteSpace=wrap;fontSize=16.7;spacing=9;strokeColor=#fff;rounded=1;absoluteArcSize=1;arcSize=9;fillColor=#unset;strokeWidth=2;lucidId=UgXwEJfHbdwM;fontColor=#FFFFFF;labelBorderColor=default;align=center;verticalAlign=middle;fontFamily=Helvetica;" vertex="1" parent="1">
          <mxGeometry x="450" y="15" width="120" height="90" as="geometry" />
        </mxCell>
        <mxCell id="wwfGKBPIN9AT0zzVKgyh-253" value="" style="html=1;jettySize=18;whiteSpace=wrap;fontSize=13;strokeColor=#ffffff;strokeOpacity=100;strokeWidth=2.3;rounded=1;arcSize=12;edgeStyle=orthogonalEdgeStyle;startArrow=none;endArrow=block;endFill=1;exitX=1.004;exitY=0.5;exitPerimeter=0;entryX=-0.006;entryY=0.5;entryPerimeter=0;lucidId=fhXw00qEVeyT;fontColor=#FFFFFF;labelBorderColor=default;" edge="1" parent="1" source="wwfGKBPIN9AT0zzVKgyh-242" target="wwfGKBPIN9AT0zzVKgyh-249">
          <mxGeometry width="100" height="100" relative="1" as="geometry">
            <Array as="points" />
          </mxGeometry>
        </mxCell>
        <mxCell id="wwfGKBPIN9AT0zzVKgyh-254" value="" style="html=1;jettySize=18;whiteSpace=wrap;fontSize=13;strokeColor=#ffffff;strokeOpacity=100;strokeWidth=2.3;rounded=1;arcSize=12;edgeStyle=orthogonalEdgeStyle;startArrow=none;endArrow=block;endFill=1;exitX=1.004;exitY=0.5;exitPerimeter=0;entryX=-0.006;entryY=0.5;entryPerimeter=0;lucidId=ihXw_zmfKt7_;fontColor=#FFFFFF;labelBorderColor=default;" edge="1" parent="1" source="wwfGKBPIN9AT0zzVKgyh-242" target="wwfGKBPIN9AT0zzVKgyh-252">
          <mxGeometry width="100" height="100" relative="1" as="geometry">
            <Array as="points" />
          </mxGeometry>
        </mxCell>
        <mxCell id="wwfGKBPIN9AT0zzVKgyh-255" style="edgeStyle=orthogonalEdgeStyle;rounded=0;orthogonalLoop=1;jettySize=auto;html=1;fontFamily=Helvetica;fontSize=26.7;fontColor=#FFFFFF;labelBorderColor=none;" edge="1" parent="1" source="wwfGKBPIN9AT0zzVKgyh-261" target="wwfGKBPIN9AT0zzVKgyh-276">
          <mxGeometry relative="1" as="geometry" />
        </mxCell>
        <mxCell id="wwfGKBPIN9AT0zzVKgyh-256" style="edgeStyle=orthogonalEdgeStyle;rounded=0;orthogonalLoop=1;jettySize=auto;html=1;fontFamily=Helvetica;fontSize=26.7;fontColor=#FFFFFF;labelBorderColor=none;" edge="1" parent="1" source="wwfGKBPIN9AT0zzVKgyh-261" target="wwfGKBPIN9AT0zzVKgyh-276">
          <mxGeometry relative="1" as="geometry" />
        </mxCell>
        <mxCell id="wwfGKBPIN9AT0zzVKgyh-257" style="edgeStyle=orthogonalEdgeStyle;rounded=1;orthogonalLoop=1;jettySize=auto;html=1;entryX=0;entryY=0.5;entryDx=0;entryDy=0;strokeColor=#ffffff;strokeWidth=2.3;align=center;verticalAlign=middle;arcSize=12;fontFamily=Helvetica;fontSize=13;fontColor=#FFFFFF;labelBorderColor=default;labelBackgroundColor=default;startArrow=none;endArrow=block;endFill=1;" edge="1" parent="1" source="wwfGKBPIN9AT0zzVKgyh-261" target="wwfGKBPIN9AT0zzVKgyh-276">
          <mxGeometry relative="1" as="geometry" />
        </mxCell>
        <mxCell id="wwfGKBPIN9AT0zzVKgyh-258" style="edgeStyle=orthogonalEdgeStyle;rounded=1;orthogonalLoop=1;jettySize=auto;html=1;entryX=0;entryY=0.5;entryDx=0;entryDy=0;strokeColor=#ffffff;strokeWidth=2.3;align=center;verticalAlign=middle;arcSize=12;fontFamily=Helvetica;fontSize=13;fontColor=#FFFFFF;labelBorderColor=default;labelBackgroundColor=default;startArrow=none;endArrow=block;endFill=1;" edge="1" parent="1" source="wwfGKBPIN9AT0zzVKgyh-261" target="wwfGKBPIN9AT0zzVKgyh-278">
          <mxGeometry relative="1" as="geometry" />
        </mxCell>
        <mxCell id="wwfGKBPIN9AT0zzVKgyh-259" style="edgeStyle=orthogonalEdgeStyle;rounded=1;orthogonalLoop=1;jettySize=auto;html=1;entryX=0;entryY=0.5;entryDx=0;entryDy=0;strokeColor=#ffffff;strokeWidth=2.3;align=center;verticalAlign=middle;arcSize=12;fontFamily=Helvetica;fontSize=13;fontColor=#FFFFFF;labelBorderColor=default;labelBackgroundColor=default;startArrow=none;endArrow=block;endFill=1;" edge="1" parent="1" source="wwfGKBPIN9AT0zzVKgyh-261" target="wwfGKBPIN9AT0zzVKgyh-280">
          <mxGeometry relative="1" as="geometry" />
        </mxCell>
        <mxCell id="wwfGKBPIN9AT0zzVKgyh-260" style="edgeStyle=orthogonalEdgeStyle;rounded=1;orthogonalLoop=1;jettySize=auto;html=1;entryX=0;entryY=0.5;entryDx=0;entryDy=0;strokeColor=#ffffff;strokeWidth=2.3;align=center;verticalAlign=middle;arcSize=12;fontFamily=Helvetica;fontSize=13;fontColor=#FFFFFF;labelBorderColor=default;labelBackgroundColor=default;startArrow=none;endArrow=block;endFill=1;" edge="1" parent="1" source="wwfGKBPIN9AT0zzVKgyh-261" target="wwfGKBPIN9AT0zzVKgyh-282">
          <mxGeometry relative="1" as="geometry" />
        </mxCell>
        <mxCell id="wwfGKBPIN9AT0zzVKgyh-261" value="User Registration week 6" style="html=1;overflow=block;blockSpacing=1;whiteSpace=wrap;fontSize=16.7;spacing=9;strokeColor=#fff;rounded=1;absoluteArcSize=1;arcSize=9;fillColor=#unset;strokeWidth=2;lucidId=UhXw6~Vt_834;fontColor=#FFFFFF;labelBorderColor=default;align=center;verticalAlign=middle;fontFamily=Helvetica;" vertex="1" parent="1">
          <mxGeometry x="-390" y="195" width="225" height="45" as="geometry" />
        </mxCell>
        <mxCell id="wwfGKBPIN9AT0zzVKgyh-262" style="edgeStyle=orthogonalEdgeStyle;rounded=1;orthogonalLoop=1;jettySize=auto;html=1;entryX=0;entryY=0.5;entryDx=0;entryDy=0;strokeColor=#ffffff;strokeWidth=2.3;align=center;verticalAlign=middle;arcSize=12;fontFamily=Helvetica;fontSize=13;fontColor=#FFFFFF;labelBorderColor=default;labelBackgroundColor=default;startArrow=none;endArrow=block;endFill=1;" edge="1" parent="1" source="wwfGKBPIN9AT0zzVKgyh-266" target="wwfGKBPIN9AT0zzVKgyh-278">
          <mxGeometry relative="1" as="geometry" />
        </mxCell>
        <mxCell id="wwfGKBPIN9AT0zzVKgyh-263" style="edgeStyle=orthogonalEdgeStyle;rounded=1;orthogonalLoop=1;jettySize=auto;html=1;strokeColor=#ffffff;strokeWidth=2.3;align=center;verticalAlign=middle;arcSize=12;fontFamily=Helvetica;fontSize=13;fontColor=#FFFFFF;labelBorderColor=default;labelBackgroundColor=default;startArrow=none;endArrow=block;endFill=1;" edge="1" parent="1" source="wwfGKBPIN9AT0zzVKgyh-266" target="wwfGKBPIN9AT0zzVKgyh-280">
          <mxGeometry relative="1" as="geometry" />
        </mxCell>
        <mxCell id="wwfGKBPIN9AT0zzVKgyh-264" style="edgeStyle=orthogonalEdgeStyle;rounded=1;orthogonalLoop=1;jettySize=auto;html=1;entryX=0;entryY=0.5;entryDx=0;entryDy=0;strokeColor=#ffffff;strokeWidth=2.3;align=center;verticalAlign=middle;arcSize=12;fontFamily=Helvetica;fontSize=13;fontColor=#FFFFFF;labelBorderColor=default;labelBackgroundColor=default;startArrow=none;endArrow=block;endFill=1;" edge="1" parent="1" source="wwfGKBPIN9AT0zzVKgyh-266" target="wwfGKBPIN9AT0zzVKgyh-282">
          <mxGeometry relative="1" as="geometry" />
        </mxCell>
        <mxCell id="wwfGKBPIN9AT0zzVKgyh-265" style="edgeStyle=orthogonalEdgeStyle;rounded=1;orthogonalLoop=1;jettySize=auto;html=1;entryX=0;entryY=0.5;entryDx=0;entryDy=0;strokeColor=#ffffff;strokeWidth=2.3;align=center;verticalAlign=middle;arcSize=12;fontFamily=Helvetica;fontSize=13;fontColor=#FFFFFF;labelBorderColor=default;labelBackgroundColor=default;startArrow=none;endArrow=block;endFill=1;" edge="1" parent="1" source="wwfGKBPIN9AT0zzVKgyh-266" target="wwfGKBPIN9AT0zzVKgyh-276">
          <mxGeometry relative="1" as="geometry" />
        </mxCell>
        <mxCell id="wwfGKBPIN9AT0zzVKgyh-266" value="Account Verification week 6 to 7.5" style="html=1;overflow=block;blockSpacing=1;whiteSpace=wrap;fontSize=16.7;spacing=9;strokeColor=#fff;rounded=1;absoluteArcSize=1;arcSize=9;fillColor=#unset;strokeWidth=2;lucidId=3hXwF-RyQWHk;fontColor=#FFFFFF;labelBorderColor=default;align=center;verticalAlign=middle;fontFamily=Helvetica;" vertex="1" parent="1">
          <mxGeometry x="-390" y="249" width="225" height="58" as="geometry" />
        </mxCell>
        <mxCell id="wwfGKBPIN9AT0zzVKgyh-267" style="edgeStyle=orthogonalEdgeStyle;rounded=1;orthogonalLoop=1;jettySize=auto;html=1;entryX=0;entryY=0.5;entryDx=0;entryDy=0;strokeColor=#ffffff;strokeWidth=2.3;align=center;verticalAlign=middle;arcSize=12;fontFamily=Helvetica;fontSize=13;fontColor=#FFFFFF;labelBorderColor=default;labelBackgroundColor=default;startArrow=none;endArrow=block;endFill=1;" edge="1" parent="1" source="wwfGKBPIN9AT0zzVKgyh-271" target="wwfGKBPIN9AT0zzVKgyh-276">
          <mxGeometry relative="1" as="geometry" />
        </mxCell>
        <mxCell id="wwfGKBPIN9AT0zzVKgyh-268" style="edgeStyle=orthogonalEdgeStyle;rounded=1;orthogonalLoop=1;jettySize=auto;html=1;entryX=0;entryY=0.5;entryDx=0;entryDy=0;strokeColor=#ffffff;strokeWidth=2.3;align=center;verticalAlign=middle;arcSize=12;fontFamily=Helvetica;fontSize=13;fontColor=#FFFFFF;labelBorderColor=default;labelBackgroundColor=default;startArrow=none;endArrow=block;endFill=1;" edge="1" parent="1" source="wwfGKBPIN9AT0zzVKgyh-271" target="wwfGKBPIN9AT0zzVKgyh-278">
          <mxGeometry relative="1" as="geometry" />
        </mxCell>
        <mxCell id="wwfGKBPIN9AT0zzVKgyh-269" style="edgeStyle=orthogonalEdgeStyle;rounded=1;orthogonalLoop=1;jettySize=auto;html=1;entryX=0;entryY=0.5;entryDx=0;entryDy=0;strokeColor=#ffffff;strokeWidth=2.3;align=center;verticalAlign=middle;arcSize=12;fontFamily=Helvetica;fontSize=13;fontColor=#FFFFFF;labelBorderColor=default;labelBackgroundColor=default;startArrow=none;endArrow=block;endFill=1;" edge="1" parent="1" source="wwfGKBPIN9AT0zzVKgyh-271" target="wwfGKBPIN9AT0zzVKgyh-280">
          <mxGeometry relative="1" as="geometry" />
        </mxCell>
        <mxCell id="wwfGKBPIN9AT0zzVKgyh-270" style="edgeStyle=orthogonalEdgeStyle;rounded=1;orthogonalLoop=1;jettySize=auto;html=1;entryX=0;entryY=0.5;entryDx=0;entryDy=0;strokeColor=#ffffff;strokeWidth=2.3;align=center;verticalAlign=middle;arcSize=12;fontFamily=Helvetica;fontSize=13;fontColor=#FFFFFF;labelBorderColor=default;labelBackgroundColor=default;startArrow=none;endArrow=block;endFill=1;" edge="1" parent="1" source="wwfGKBPIN9AT0zzVKgyh-271" target="wwfGKBPIN9AT0zzVKgyh-282">
          <mxGeometry relative="1" as="geometry" />
        </mxCell>
        <mxCell id="wwfGKBPIN9AT0zzVKgyh-271" value="Multi-factor Authentication Setup week6" style="html=1;overflow=block;blockSpacing=1;whiteSpace=wrap;fontSize=16.7;spacing=9;strokeColor=#fff;rounded=1;absoluteArcSize=1;arcSize=9;fillColor=#unset;strokeWidth=2;lucidId=6hXwYlWiubw_;fontColor=#FFFFFF;labelBorderColor=default;align=center;verticalAlign=middle;fontFamily=Helvetica;" vertex="1" parent="1">
          <mxGeometry x="-390" y="315" width="225" height="58" as="geometry" />
        </mxCell>
        <mxCell id="wwfGKBPIN9AT0zzVKgyh-272" value="" style="html=1;jettySize=18;whiteSpace=wrap;fontSize=13;strokeColor=#ffffff;strokeOpacity=100;strokeWidth=2.3;rounded=1;arcSize=12;edgeStyle=orthogonalEdgeStyle;startArrow=none;endArrow=block;endFill=1;exitX=1.006;exitY=0.5;exitPerimeter=0;entryX=-0.003;entryY=0.5;entryPerimeter=0;lucidId=5iXwkR2r0KsJ;fontColor=#FFFFFF;labelBorderColor=default;" edge="1" parent="1" source="wwfGKBPIN9AT0zzVKgyh-195" target="wwfGKBPIN9AT0zzVKgyh-261">
          <mxGeometry width="100" height="100" relative="1" as="geometry">
            <Array as="points" />
          </mxGeometry>
        </mxCell>
        <mxCell id="wwfGKBPIN9AT0zzVKgyh-273" value="" style="html=1;jettySize=18;whiteSpace=wrap;fontSize=13;strokeColor=#ffffff;strokeOpacity=100;strokeWidth=2.3;rounded=1;arcSize=12;edgeStyle=orthogonalEdgeStyle;startArrow=none;endArrow=block;endFill=1;exitX=1.006;exitY=0.5;exitPerimeter=0;entryX=-0.003;entryY=0.5;entryPerimeter=0;lucidId=8iXwRTSM3o8p;fontColor=#FFFFFF;labelBorderColor=default;" edge="1" parent="1" source="wwfGKBPIN9AT0zzVKgyh-195" target="wwfGKBPIN9AT0zzVKgyh-266">
          <mxGeometry width="100" height="100" relative="1" as="geometry">
            <Array as="points" />
          </mxGeometry>
        </mxCell>
        <mxCell id="wwfGKBPIN9AT0zzVKgyh-274" value="" style="html=1;jettySize=18;whiteSpace=wrap;fontSize=13;strokeColor=#ffffff;strokeOpacity=100;strokeWidth=2.3;rounded=1;arcSize=12;edgeStyle=orthogonalEdgeStyle;startArrow=none;endArrow=block;endFill=1;exitX=1.006;exitY=0.5;exitPerimeter=0;entryX=-0.003;entryY=0.5;entryPerimeter=0;lucidId=_iXwDXbhE7wv;fontColor=#FFFFFF;labelBorderColor=default;" edge="1" parent="1" source="wwfGKBPIN9AT0zzVKgyh-195" target="wwfGKBPIN9AT0zzVKgyh-271">
          <mxGeometry width="100" height="100" relative="1" as="geometry">
            <Array as="points" />
          </mxGeometry>
        </mxCell>
        <mxCell id="wwfGKBPIN9AT0zzVKgyh-275" style="edgeStyle=orthogonalEdgeStyle;rounded=1;orthogonalLoop=1;jettySize=auto;html=1;entryX=0;entryY=0.5;entryDx=0;entryDy=0;strokeColor=#ffffff;strokeWidth=2.3;align=center;verticalAlign=middle;arcSize=12;fontFamily=Helvetica;fontSize=13;fontColor=#FFFFFF;labelBorderColor=default;labelBackgroundColor=default;startArrow=none;endArrow=block;endFill=1;" edge="1" parent="1" source="wwfGKBPIN9AT0zzVKgyh-276" target="wwfGKBPIN9AT0zzVKgyh-285">
          <mxGeometry relative="1" as="geometry" />
        </mxCell>
        <mxCell id="wwfGKBPIN9AT0zzVKgyh-276" value="User Preference Configuration week 7.5 to 8" style="overflow=block;blockSpacing=1;fontSize=16.7;spacing=9;strokeColor=#fff;rounded=1;absoluteArcSize=1;arcSize=9;fillColor=#unset;strokeWidth=2;lucidId=CjXwEdFr0lg.;fontColor=#FFFFFF;labelBorderColor=default;align=center;verticalAlign=top;fontFamily=Helvetica;whiteSpace=wrap;" vertex="1" parent="1">
          <mxGeometry x="30" y="169" width="260" height="51" as="geometry" />
        </mxCell>
        <mxCell id="wwfGKBPIN9AT0zzVKgyh-277" style="edgeStyle=orthogonalEdgeStyle;rounded=1;orthogonalLoop=1;jettySize=auto;html=1;entryX=0;entryY=0.5;entryDx=0;entryDy=0;strokeColor=#ffffff;strokeWidth=2.3;align=center;verticalAlign=middle;arcSize=12;fontFamily=Helvetica;fontSize=13;fontColor=#FFFFFF;labelBorderColor=default;labelBackgroundColor=default;startArrow=none;endArrow=block;endFill=1;" edge="1" parent="1" source="wwfGKBPIN9AT0zzVKgyh-278" target="wwfGKBPIN9AT0zzVKgyh-285">
          <mxGeometry relative="1" as="geometry" />
        </mxCell>
        <mxCell id="wwfGKBPIN9AT0zzVKgyh-278" value="Privacy Settings Update&#xa; week 7.5 to 8" style="overflow=block;blockSpacing=1;fontSize=16.7;spacing=9;strokeColor=#fff;rounded=1;absoluteArcSize=1;arcSize=9;fillColor=#unset;strokeWidth=2;lucidId=CjXwEdFr0lg.;fontColor=#FFFFFF;labelBorderColor=default;align=center;verticalAlign=top;fontFamily=Helvetica;whiteSpace=wrap;" vertex="1" parent="1">
          <mxGeometry x="30" y="233.5" width="260" height="51" as="geometry" />
        </mxCell>
        <mxCell id="wwfGKBPIN9AT0zzVKgyh-279" style="edgeStyle=orthogonalEdgeStyle;rounded=1;orthogonalLoop=1;jettySize=auto;html=1;entryX=0;entryY=0.5;entryDx=0;entryDy=0;strokeColor=#ffffff;strokeWidth=2.3;align=center;verticalAlign=middle;arcSize=12;fontFamily=Helvetica;fontSize=13;fontColor=#FFFFFF;labelBorderColor=default;labelBackgroundColor=default;startArrow=none;endArrow=block;endFill=1;" edge="1" parent="1" source="wwfGKBPIN9AT0zzVKgyh-280" target="wwfGKBPIN9AT0zzVKgyh-285">
          <mxGeometry relative="1" as="geometry" />
        </mxCell>
        <mxCell id="wwfGKBPIN9AT0zzVKgyh-280" value="User Login&#xa; week 7 to 8" style="overflow=block;blockSpacing=1;fontSize=16.7;spacing=9;strokeColor=#fff;rounded=1;absoluteArcSize=1;arcSize=9;fillColor=#unset;strokeWidth=2;lucidId=CjXwEdFr0lg.;fontColor=#FFFFFF;labelBorderColor=default;align=center;verticalAlign=top;fontFamily=Helvetica;whiteSpace=wrap;" vertex="1" parent="1">
          <mxGeometry x="30" y="300" width="260" height="51" as="geometry" />
        </mxCell>
        <mxCell id="wwfGKBPIN9AT0zzVKgyh-281" style="edgeStyle=orthogonalEdgeStyle;rounded=1;orthogonalLoop=1;jettySize=auto;html=1;entryX=0;entryY=0.5;entryDx=0;entryDy=0;strokeColor=#ffffff;strokeWidth=2.3;align=center;verticalAlign=middle;arcSize=12;fontFamily=Helvetica;fontSize=13;fontColor=#FFFFFF;labelBorderColor=default;labelBackgroundColor=default;startArrow=none;endArrow=block;endFill=1;" edge="1" parent="1" source="wwfGKBPIN9AT0zzVKgyh-282" target="wwfGKBPIN9AT0zzVKgyh-285">
          <mxGeometry relative="1" as="geometry" />
        </mxCell>
        <mxCell id="wwfGKBPIN9AT0zzVKgyh-282" value="Profile Setup&#xa; week 7.5 to 8" style="overflow=block;blockSpacing=1;fontSize=16.7;spacing=9;strokeColor=#fff;rounded=1;absoluteArcSize=1;arcSize=9;fillColor=#unset;strokeWidth=2;lucidId=CjXwEdFr0lg.;fontColor=#FFFFFF;labelBorderColor=default;align=center;verticalAlign=top;fontFamily=Helvetica;whiteSpace=wrap;" vertex="1" parent="1">
          <mxGeometry x="30" y="360" width="260" height="51" as="geometry" />
        </mxCell>
        <mxCell id="wwfGKBPIN9AT0zzVKgyh-283" style="edgeStyle=orthogonalEdgeStyle;rounded=1;orthogonalLoop=1;jettySize=auto;html=1;entryX=0;entryY=0.5;entryDx=0;entryDy=0;strokeColor=#ffffff;strokeWidth=2.3;align=center;verticalAlign=middle;arcSize=12;fontFamily=Helvetica;fontSize=13;fontColor=#FFFFFF;labelBorderColor=default;labelBackgroundColor=default;startArrow=none;endArrow=block;endFill=1;" edge="1" parent="1" source="wwfGKBPIN9AT0zzVKgyh-285" target="wwfGKBPIN9AT0zzVKgyh-287">
          <mxGeometry relative="1" as="geometry" />
        </mxCell>
        <mxCell id="wwfGKBPIN9AT0zzVKgyh-284" style="edgeStyle=orthogonalEdgeStyle;rounded=1;orthogonalLoop=1;jettySize=auto;html=1;entryX=0;entryY=0.5;entryDx=0;entryDy=0;strokeColor=#ffffff;strokeWidth=2.3;align=center;verticalAlign=middle;arcSize=12;fontFamily=Helvetica;fontSize=13;fontColor=#FFFFFF;labelBorderColor=default;labelBackgroundColor=default;startArrow=none;endArrow=block;endFill=1;" edge="1" parent="1" source="wwfGKBPIN9AT0zzVKgyh-285" target="wwfGKBPIN9AT0zzVKgyh-289">
          <mxGeometry relative="1" as="geometry" />
        </mxCell>
        <mxCell id="wwfGKBPIN9AT0zzVKgyh-285" value="Email Notifications Setup&lt;div&gt;week 9&lt;/div&gt;" style="html=1;overflow=block;blockSpacing=1;whiteSpace=wrap;fontSize=16.7;spacing=9;strokeColor=#fff;rounded=1;absoluteArcSize=1;arcSize=9;fillColor=#unset;strokeWidth=2;lucidId=UgXwEJfHbdwM;fontColor=#FFFFFF;labelBorderColor=default;align=center;verticalAlign=middle;fontFamily=Helvetica;" vertex="1" parent="1">
          <mxGeometry x="370" y="249" width="120" height="90" as="geometry" />
        </mxCell>
        <mxCell id="wwfGKBPIN9AT0zzVKgyh-286" style="edgeStyle=orthogonalEdgeStyle;rounded=1;orthogonalLoop=1;jettySize=auto;html=1;strokeColor=#ffffff;strokeWidth=2.3;align=center;verticalAlign=middle;arcSize=12;fontFamily=Helvetica;fontSize=13;fontColor=#FFFFFF;labelBorderColor=default;labelBackgroundColor=default;startArrow=none;endArrow=block;endFill=1;" edge="1" parent="1" source="wwfGKBPIN9AT0zzVKgyh-287" target="wwfGKBPIN9AT0zzVKgyh-291">
          <mxGeometry relative="1" as="geometry" />
        </mxCell>
        <mxCell id="wwfGKBPIN9AT0zzVKgyh-287" value="Course Browsing and Selection&lt;br&gt;&lt;div&gt;week 11 to 12&lt;/div&gt;" style="html=1;overflow=block;blockSpacing=1;whiteSpace=wrap;fontSize=16.7;spacing=9;strokeColor=#fff;rounded=1;absoluteArcSize=1;arcSize=9;fillColor=#unset;strokeWidth=2;lucidId=UgXwEJfHbdwM;fontColor=#FFFFFF;labelBorderColor=default;align=center;verticalAlign=middle;fontFamily=Helvetica;" vertex="1" parent="1">
          <mxGeometry x="660" y="175" width="120" height="120" as="geometry" />
        </mxCell>
        <mxCell id="wwfGKBPIN9AT0zzVKgyh-288" style="edgeStyle=orthogonalEdgeStyle;rounded=1;orthogonalLoop=1;jettySize=auto;html=1;strokeColor=#ffffff;strokeWidth=2.3;align=center;verticalAlign=middle;arcSize=12;fontFamily=Helvetica;fontSize=13;fontColor=#FFFFFF;labelBorderColor=default;labelBackgroundColor=default;startArrow=none;endArrow=block;endFill=1;" edge="1" parent="1" source="wwfGKBPIN9AT0zzVKgyh-289" target="wwfGKBPIN9AT0zzVKgyh-295">
          <mxGeometry relative="1" as="geometry" />
        </mxCell>
        <mxCell id="wwfGKBPIN9AT0zzVKgyh-289" value="Payment Integration&amp;nbsp;&lt;br&gt;&lt;div&gt;week 11 to 14&lt;/div&gt;" style="html=1;overflow=block;blockSpacing=1;whiteSpace=wrap;fontSize=16.7;spacing=9;strokeColor=#fff;rounded=1;absoluteArcSize=1;arcSize=9;fillColor=#unset;strokeWidth=2;lucidId=UgXwEJfHbdwM;fontColor=#FFFFFF;labelBorderColor=default;align=center;verticalAlign=middle;fontFamily=Helvetica;" vertex="1" parent="1">
          <mxGeometry x="660" y="316" width="290" height="52" as="geometry" />
        </mxCell>
        <mxCell id="wwfGKBPIN9AT0zzVKgyh-290" style="edgeStyle=orthogonalEdgeStyle;rounded=1;orthogonalLoop=1;jettySize=auto;html=1;strokeColor=#ffffff;strokeWidth=2.3;align=center;verticalAlign=middle;arcSize=12;fontFamily=Helvetica;fontSize=13;fontColor=#FFFFFF;labelBorderColor=default;labelBackgroundColor=default;startArrow=none;endArrow=block;endFill=1;" edge="1" parent="1" source="wwfGKBPIN9AT0zzVKgyh-291" target="wwfGKBPIN9AT0zzVKgyh-293">
          <mxGeometry relative="1" as="geometry" />
        </mxCell>
        <mxCell id="wwfGKBPIN9AT0zzVKgyh-291" value="Course Enrollment&amp;nbsp;&lt;div&gt;13&lt;/div&gt;" style="html=1;overflow=block;blockSpacing=1;whiteSpace=wrap;fontSize=16.7;spacing=9;strokeColor=#fff;rounded=1;absoluteArcSize=1;arcSize=9;fillColor=#unset;strokeWidth=2;lucidId=UgXwEJfHbdwM;fontColor=#FFFFFF;labelBorderColor=default;align=center;verticalAlign=middle;fontFamily=Helvetica;" vertex="1" parent="1">
          <mxGeometry x="830" y="175" width="120" height="120" as="geometry" />
        </mxCell>
        <mxCell id="wwfGKBPIN9AT0zzVKgyh-292" style="edgeStyle=orthogonalEdgeStyle;rounded=1;orthogonalLoop=1;jettySize=auto;html=1;strokeColor=#ffffff;strokeWidth=2.3;align=center;verticalAlign=middle;arcSize=12;fontFamily=Helvetica;fontSize=13;fontColor=#FFFFFF;labelBorderColor=default;labelBackgroundColor=default;startArrow=none;endArrow=block;endFill=1;" edge="1" parent="1" source="wwfGKBPIN9AT0zzVKgyh-293" target="wwfGKBPIN9AT0zzVKgyh-297">
          <mxGeometry relative="1" as="geometry" />
        </mxCell>
        <mxCell id="wwfGKBPIN9AT0zzVKgyh-293" value="Tutorial Navigation week 14" style="html=1;overflow=block;blockSpacing=1;whiteSpace=wrap;fontSize=16.7;spacing=9;strokeColor=#fff;rounded=1;absoluteArcSize=1;arcSize=9;fillColor=#unset;strokeWidth=2;lucidId=UgXwEJfHbdwM;fontColor=#FFFFFF;labelBorderColor=default;align=center;verticalAlign=middle;fontFamily=Helvetica;" vertex="1" parent="1">
          <mxGeometry x="1000" y="175" width="120" height="120" as="geometry" />
        </mxCell>
        <mxCell id="wwfGKBPIN9AT0zzVKgyh-294" style="edgeStyle=orthogonalEdgeStyle;rounded=1;orthogonalLoop=1;jettySize=auto;html=1;entryX=0.5;entryY=0;entryDx=0;entryDy=0;strokeColor=#ffffff;strokeWidth=2.3;align=center;verticalAlign=middle;arcSize=12;fontFamily=Helvetica;fontSize=13;fontColor=#FFFFFF;labelBorderColor=default;labelBackgroundColor=default;startArrow=none;endArrow=block;endFill=1;" edge="1" parent="1" source="wwfGKBPIN9AT0zzVKgyh-295" target="wwfGKBPIN9AT0zzVKgyh-301">
          <mxGeometry relative="1" as="geometry">
            <Array as="points">
              <mxPoint x="1165" y="420" />
              <mxPoint x="-322" y="420" />
            </Array>
          </mxGeometry>
        </mxCell>
        <mxCell id="wwfGKBPIN9AT0zzVKgyh-295" value="Accessibility Options Setup&lt;br&gt;&lt;div&gt;week 14 to 15&lt;/div&gt;" style="html=1;overflow=block;blockSpacing=1;whiteSpace=wrap;fontSize=16.7;spacing=9;strokeColor=#fff;rounded=1;absoluteArcSize=1;arcSize=9;fillColor=#unset;strokeWidth=2;lucidId=UgXwEJfHbdwM;fontColor=#FFFFFF;labelBorderColor=default;align=center;verticalAlign=middle;fontFamily=Helvetica;" vertex="1" parent="1">
          <mxGeometry x="1010" y="316" width="310" height="52" as="geometry" />
        </mxCell>
        <mxCell id="wwfGKBPIN9AT0zzVKgyh-296" style="edgeStyle=orthogonalEdgeStyle;rounded=1;orthogonalLoop=1;jettySize=auto;html=1;entryX=0.5;entryY=0;entryDx=0;entryDy=0;strokeColor=#ffffff;strokeWidth=2.3;align=center;verticalAlign=middle;arcSize=12;fontFamily=Helvetica;fontSize=13;fontColor=#FFFFFF;labelBorderColor=default;labelBackgroundColor=default;startArrow=none;endArrow=block;endFill=1;" edge="1" parent="1" source="wwfGKBPIN9AT0zzVKgyh-297" target="wwfGKBPIN9AT0zzVKgyh-301">
          <mxGeometry relative="1" as="geometry">
            <Array as="points">
              <mxPoint x="1360" y="235" />
              <mxPoint x="1360" y="420" />
              <mxPoint x="-322" y="420" />
            </Array>
          </mxGeometry>
        </mxCell>
        <mxCell id="wwfGKBPIN9AT0zzVKgyh-297" value="&lt;div&gt;Account Recovery Options Setup&lt;/div&gt;&lt;div&gt;week 15&lt;/div&gt;" style="html=1;overflow=block;blockSpacing=1;whiteSpace=wrap;fontSize=16.7;spacing=9;strokeColor=#fff;rounded=1;absoluteArcSize=1;arcSize=9;fillColor=#unset;strokeWidth=2;lucidId=UgXwEJfHbdwM;fontColor=#FFFFFF;labelBorderColor=default;align=center;verticalAlign=middle;fontFamily=Helvetica;" vertex="1" parent="1">
          <mxGeometry x="1180" y="175" width="120" height="120" as="geometry" />
        </mxCell>
        <mxCell id="wwfGKBPIN9AT0zzVKgyh-298" style="edgeStyle=orthogonalEdgeStyle;rounded=1;orthogonalLoop=1;jettySize=auto;html=1;entryX=0;entryY=0.5;entryDx=0;entryDy=0;strokeColor=#ffffff;strokeWidth=2.3;align=center;verticalAlign=middle;arcSize=12;fontFamily=Helvetica;fontSize=13;fontColor=#FFFFFF;labelBorderColor=default;labelBackgroundColor=default;startArrow=none;endArrow=block;endFill=1;" edge="1" parent="1" source="wwfGKBPIN9AT0zzVKgyh-301" target="wwfGKBPIN9AT0zzVKgyh-304">
          <mxGeometry relative="1" as="geometry" />
        </mxCell>
        <mxCell id="wwfGKBPIN9AT0zzVKgyh-299" style="edgeStyle=orthogonalEdgeStyle;rounded=1;orthogonalLoop=1;jettySize=auto;html=1;entryX=0;entryY=0.5;entryDx=0;entryDy=0;strokeColor=#ffffff;strokeWidth=2.3;align=center;verticalAlign=middle;arcSize=12;fontFamily=Helvetica;fontSize=13;fontColor=#FFFFFF;labelBorderColor=default;labelBackgroundColor=default;startArrow=none;endArrow=block;endFill=1;" edge="1" parent="1" source="wwfGKBPIN9AT0zzVKgyh-301" target="wwfGKBPIN9AT0zzVKgyh-307">
          <mxGeometry relative="1" as="geometry" />
        </mxCell>
        <mxCell id="wwfGKBPIN9AT0zzVKgyh-300" style="edgeStyle=orthogonalEdgeStyle;rounded=1;orthogonalLoop=1;jettySize=auto;html=1;entryX=0;entryY=0.5;entryDx=0;entryDy=0;strokeColor=#ffffff;strokeWidth=2.3;align=center;verticalAlign=middle;arcSize=12;fontFamily=Helvetica;fontSize=13;fontColor=#FFFFFF;labelBorderColor=default;labelBackgroundColor=default;startArrow=none;endArrow=block;endFill=1;" edge="1" parent="1" source="wwfGKBPIN9AT0zzVKgyh-301" target="wwfGKBPIN9AT0zzVKgyh-310">
          <mxGeometry relative="1" as="geometry" />
        </mxCell>
        <mxCell id="wwfGKBPIN9AT0zzVKgyh-301" value="Accessing Course Content week 16 to 17" style="html=1;overflow=block;blockSpacing=1;whiteSpace=wrap;fontSize=16.7;spacing=9;strokeColor=#fff;rounded=1;absoluteArcSize=1;arcSize=9;fillColor=#unset;strokeWidth=2;lucidId=6hXwYlWiubw_;fontColor=#FFFFFF;labelBorderColor=default;align=center;verticalAlign=middle;fontFamily=Helvetica;" vertex="1" parent="1">
          <mxGeometry x="-435" y="514" width="225" height="58" as="geometry" />
        </mxCell>
        <mxCell id="wwfGKBPIN9AT0zzVKgyh-302" style="edgeStyle=orthogonalEdgeStyle;rounded=1;orthogonalLoop=1;jettySize=auto;html=1;entryX=0;entryY=0.5;entryDx=0;entryDy=0;strokeColor=#ffffff;strokeWidth=2.3;align=center;verticalAlign=middle;arcSize=12;fontFamily=Helvetica;fontSize=13;fontColor=#FFFFFF;labelBorderColor=default;labelBackgroundColor=default;startArrow=none;endArrow=block;endFill=1;" edge="1" parent="1" source="wwfGKBPIN9AT0zzVKgyh-304" target="wwfGKBPIN9AT0zzVKgyh-312">
          <mxGeometry relative="1" as="geometry" />
        </mxCell>
        <mxCell id="wwfGKBPIN9AT0zzVKgyh-303" style="edgeStyle=orthogonalEdgeStyle;rounded=1;orthogonalLoop=1;jettySize=auto;html=1;entryX=0;entryY=0.5;entryDx=0;entryDy=0;strokeColor=#ffffff;strokeWidth=2.3;align=center;verticalAlign=middle;arcSize=12;fontFamily=Helvetica;fontSize=13;fontColor=#FFFFFF;labelBorderColor=default;labelBackgroundColor=default;startArrow=none;endArrow=block;endFill=1;" edge="1" parent="1" source="wwfGKBPIN9AT0zzVKgyh-304" target="wwfGKBPIN9AT0zzVKgyh-314">
          <mxGeometry relative="1" as="geometry" />
        </mxCell>
        <mxCell id="wwfGKBPIN9AT0zzVKgyh-304" value="Participating in Assignments week18" style="html=1;overflow=block;blockSpacing=1;whiteSpace=wrap;fontSize=16.7;spacing=9;strokeColor=#fff;rounded=1;absoluteArcSize=1;arcSize=9;fillColor=#unset;strokeWidth=2;lucidId=6hXwYlWiubw_;fontColor=#FFFFFF;labelBorderColor=default;align=center;verticalAlign=middle;fontFamily=Helvetica;" vertex="1" parent="1">
          <mxGeometry x="-161" y="454" width="225" height="50" as="geometry" />
        </mxCell>
        <mxCell id="wwfGKBPIN9AT0zzVKgyh-305" style="edgeStyle=orthogonalEdgeStyle;rounded=1;orthogonalLoop=1;jettySize=auto;html=1;entryX=0;entryY=0.5;entryDx=0;entryDy=0;strokeColor=#ffffff;strokeWidth=2.3;align=center;verticalAlign=middle;arcSize=12;fontFamily=Helvetica;fontSize=13;fontColor=#FFFFFF;labelBorderColor=default;labelBackgroundColor=default;startArrow=none;endArrow=block;endFill=1;" edge="1" parent="1" source="wwfGKBPIN9AT0zzVKgyh-307" target="wwfGKBPIN9AT0zzVKgyh-312">
          <mxGeometry relative="1" as="geometry" />
        </mxCell>
        <mxCell id="wwfGKBPIN9AT0zzVKgyh-306" style="edgeStyle=orthogonalEdgeStyle;rounded=1;orthogonalLoop=1;jettySize=auto;html=1;entryX=0;entryY=0.5;entryDx=0;entryDy=0;strokeColor=#ffffff;strokeWidth=2.3;align=center;verticalAlign=middle;arcSize=12;fontFamily=Helvetica;fontSize=13;fontColor=#FFFFFF;labelBorderColor=default;labelBackgroundColor=default;startArrow=none;endArrow=block;endFill=1;" edge="1" parent="1" source="wwfGKBPIN9AT0zzVKgyh-307" target="wwfGKBPIN9AT0zzVKgyh-314">
          <mxGeometry relative="1" as="geometry" />
        </mxCell>
        <mxCell id="wwfGKBPIN9AT0zzVKgyh-307" value="Attempting Quizzes week 18" style="html=1;overflow=block;blockSpacing=1;whiteSpace=wrap;fontSize=16.7;spacing=9;strokeColor=#fff;rounded=1;absoluteArcSize=1;arcSize=9;fillColor=#unset;strokeWidth=2;lucidId=6hXwYlWiubw_;fontColor=#FFFFFF;labelBorderColor=default;align=center;verticalAlign=middle;fontFamily=Helvetica;" vertex="1" parent="1">
          <mxGeometry x="-161" y="514" width="225" height="50" as="geometry" />
        </mxCell>
        <mxCell id="wwfGKBPIN9AT0zzVKgyh-308" style="edgeStyle=orthogonalEdgeStyle;rounded=1;orthogonalLoop=1;jettySize=auto;html=1;entryX=0;entryY=0.5;entryDx=0;entryDy=0;strokeColor=#ffffff;strokeWidth=2.3;align=center;verticalAlign=middle;arcSize=12;fontFamily=Helvetica;fontSize=13;fontColor=#FFFFFF;labelBorderColor=default;labelBackgroundColor=default;startArrow=none;endArrow=block;endFill=1;" edge="1" parent="1" source="wwfGKBPIN9AT0zzVKgyh-310" target="wwfGKBPIN9AT0zzVKgyh-312">
          <mxGeometry relative="1" as="geometry" />
        </mxCell>
        <mxCell id="wwfGKBPIN9AT0zzVKgyh-309" value="" style="edgeStyle=orthogonalEdgeStyle;rounded=1;orthogonalLoop=1;jettySize=auto;html=1;strokeColor=#ffffff;strokeWidth=2.3;align=center;verticalAlign=middle;arcSize=12;fontFamily=Helvetica;fontSize=13;fontColor=#FFFFFF;labelBorderColor=default;labelBackgroundColor=default;startArrow=none;endArrow=block;endFill=1;" edge="1" parent="1" source="wwfGKBPIN9AT0zzVKgyh-310" target="wwfGKBPIN9AT0zzVKgyh-314">
          <mxGeometry relative="1" as="geometry" />
        </mxCell>
        <mxCell id="wwfGKBPIN9AT0zzVKgyh-310" value="Taking Exams week 18" style="html=1;overflow=block;blockSpacing=1;whiteSpace=wrap;fontSize=16.7;spacing=9;strokeColor=#fff;rounded=1;absoluteArcSize=1;arcSize=9;fillColor=#unset;strokeWidth=2;lucidId=6hXwYlWiubw_;fontColor=#FFFFFF;labelBorderColor=default;align=center;verticalAlign=middle;fontFamily=Helvetica;" vertex="1" parent="1">
          <mxGeometry x="-159" y="574" width="225" height="50" as="geometry" />
        </mxCell>
        <mxCell id="wwfGKBPIN9AT0zzVKgyh-311" style="edgeStyle=orthogonalEdgeStyle;rounded=1;orthogonalLoop=1;jettySize=auto;html=1;strokeColor=#ffffff;strokeWidth=2.3;align=center;verticalAlign=middle;arcSize=12;fontFamily=Helvetica;fontSize=13;fontColor=#FFFFFF;labelBorderColor=default;labelBackgroundColor=default;startArrow=none;endArrow=block;endFill=1;" edge="1" parent="1" source="wwfGKBPIN9AT0zzVKgyh-312" target="wwfGKBPIN9AT0zzVKgyh-318">
          <mxGeometry relative="1" as="geometry" />
        </mxCell>
        <mxCell id="wwfGKBPIN9AT0zzVKgyh-312" value="Submitting Completed Work week 19" style="html=1;overflow=block;blockSpacing=1;whiteSpace=wrap;fontSize=16.7;spacing=9;strokeColor=#fff;rounded=1;absoluteArcSize=1;arcSize=9;fillColor=#unset;strokeWidth=2;lucidId=6hXwYlWiubw_;fontColor=#FFFFFF;labelBorderColor=default;align=center;verticalAlign=middle;fontFamily=Helvetica;" vertex="1" parent="1">
          <mxGeometry x="120" y="474" width="350" height="50" as="geometry" />
        </mxCell>
        <mxCell id="wwfGKBPIN9AT0zzVKgyh-313" style="edgeStyle=orthogonalEdgeStyle;rounded=1;orthogonalLoop=1;jettySize=auto;html=1;strokeColor=#ffffff;strokeWidth=2.3;align=center;verticalAlign=middle;arcSize=12;fontFamily=Helvetica;fontSize=13;fontColor=#FFFFFF;labelBorderColor=default;labelBackgroundColor=default;startArrow=none;endArrow=block;endFill=1;" edge="1" parent="1" source="wwfGKBPIN9AT0zzVKgyh-314" target="wwfGKBPIN9AT0zzVKgyh-316">
          <mxGeometry relative="1" as="geometry" />
        </mxCell>
        <mxCell id="wwfGKBPIN9AT0zzVKgyh-314" value="Receiving Grades week18 to 18.5" style="html=1;overflow=block;blockSpacing=1;whiteSpace=wrap;fontSize=16.7;spacing=9;strokeColor=#fff;rounded=1;absoluteArcSize=1;arcSize=9;fillColor=#unset;strokeWidth=2;lucidId=6hXwYlWiubw_;fontColor=#FFFFFF;labelBorderColor=default;align=center;verticalAlign=middle;fontFamily=Helvetica;" vertex="1" parent="1">
          <mxGeometry x="120" y="534" width="156" height="100" as="geometry" />
        </mxCell>
        <mxCell id="wwfGKBPIN9AT0zzVKgyh-315" style="edgeStyle=orthogonalEdgeStyle;rounded=1;orthogonalLoop=1;jettySize=auto;html=1;entryX=0;entryY=0.5;entryDx=0;entryDy=0;strokeColor=#ffffff;strokeWidth=2.3;align=center;verticalAlign=middle;arcSize=12;fontFamily=Helvetica;fontSize=13;fontColor=#FFFFFF;labelBorderColor=default;labelBackgroundColor=default;startArrow=none;endArrow=block;endFill=1;" edge="1" parent="1" source="wwfGKBPIN9AT0zzVKgyh-316" target="wwfGKBPIN9AT0zzVKgyh-318">
          <mxGeometry relative="1" as="geometry" />
        </mxCell>
        <mxCell id="wwfGKBPIN9AT0zzVKgyh-316" value="&lt;div&gt;Reviewing Feedback&lt;/div&gt;&lt;div&gt;week 18.5 to 19&lt;/div&gt;" style="html=1;overflow=block;blockSpacing=1;whiteSpace=wrap;fontSize=16.7;spacing=9;strokeColor=#fff;rounded=1;absoluteArcSize=1;arcSize=9;fillColor=#unset;strokeWidth=2;lucidId=6hXwYlWiubw_;fontColor=#FFFFFF;labelBorderColor=default;align=center;verticalAlign=middle;fontFamily=Helvetica;" vertex="1" parent="1">
          <mxGeometry x="315" y="534" width="156" height="100" as="geometry" />
        </mxCell>
        <mxCell id="wwfGKBPIN9AT0zzVKgyh-317" style="edgeStyle=orthogonalEdgeStyle;rounded=1;orthogonalLoop=1;jettySize=auto;html=1;strokeColor=#ffffff;strokeWidth=2.3;align=center;verticalAlign=middle;arcSize=12;fontFamily=Helvetica;fontSize=13;fontColor=#FFFFFF;labelBorderColor=default;labelBackgroundColor=default;startArrow=none;endArrow=block;endFill=1;" edge="1" parent="1" source="wwfGKBPIN9AT0zzVKgyh-318" target="wwfGKBPIN9AT0zzVKgyh-320">
          <mxGeometry relative="1" as="geometry" />
        </mxCell>
        <mxCell id="wwfGKBPIN9AT0zzVKgyh-318" value="Discussion and Interaction&amp;nbsp;&lt;div&gt;week 20&lt;/div&gt;" style="html=1;overflow=block;blockSpacing=1;whiteSpace=wrap;fontSize=16.7;spacing=9;strokeColor=#fff;rounded=1;absoluteArcSize=1;arcSize=9;fillColor=#unset;strokeWidth=2;lucidId=6hXwYlWiubw_;fontColor=#FFFFFF;labelBorderColor=default;align=center;verticalAlign=middle;fontFamily=Helvetica;" vertex="1" parent="1">
          <mxGeometry x="542" y="493" width="156" height="100" as="geometry" />
        </mxCell>
        <mxCell id="wwfGKBPIN9AT0zzVKgyh-319" style="edgeStyle=orthogonalEdgeStyle;rounded=1;orthogonalLoop=1;jettySize=auto;html=1;entryX=0.5;entryY=0;entryDx=0;entryDy=0;strokeColor=#ffffff;strokeWidth=2.3;align=center;verticalAlign=middle;arcSize=12;fontFamily=Helvetica;fontSize=13;fontColor=#FFFFFF;labelBorderColor=default;labelBackgroundColor=default;startArrow=none;endArrow=block;endFill=1;" edge="1" parent="1" source="wwfGKBPIN9AT0zzVKgyh-320" target="wwfGKBPIN9AT0zzVKgyh-204">
          <mxGeometry relative="1" as="geometry">
            <Array as="points">
              <mxPoint x="838" y="640" />
              <mxPoint x="-570" y="640" />
            </Array>
          </mxGeometry>
        </mxCell>
        <mxCell id="wwfGKBPIN9AT0zzVKgyh-320" value="payment Method week 21 to 22" style="html=1;overflow=block;blockSpacing=1;whiteSpace=wrap;fontSize=16.7;spacing=9;strokeColor=#fff;rounded=1;absoluteArcSize=1;arcSize=9;fillColor=#unset;strokeWidth=2;lucidId=6hXwYlWiubw_;fontColor=#FFFFFF;labelBorderColor=default;align=center;verticalAlign=middle;fontFamily=Helvetica;" vertex="1" parent="1">
          <mxGeometry x="760" y="493" width="156" height="100" as="geometry" />
        </mxCell>
        <mxCell id="wwfGKBPIN9AT0zzVKgyh-321" style="edgeStyle=orthogonalEdgeStyle;rounded=1;orthogonalLoop=1;jettySize=auto;html=1;entryX=0;entryY=0.5;entryDx=0;entryDy=0;strokeColor=#ffffff;strokeWidth=2.3;align=center;verticalAlign=middle;arcSize=12;fontFamily=Helvetica;fontSize=13;fontColor=#FFFFFF;labelBorderColor=default;labelBackgroundColor=default;startArrow=none;endArrow=block;endFill=1;" edge="1" parent="1" source="wwfGKBPIN9AT0zzVKgyh-322" target="wwfGKBPIN9AT0zzVKgyh-328">
          <mxGeometry relative="1" as="geometry" />
        </mxCell>
        <mxCell id="wwfGKBPIN9AT0zzVKgyh-322" value="Collecting Student Submissions&amp;nbsp;&lt;div&gt;week 23&lt;/div&gt;" style="html=1;overflow=block;blockSpacing=1;whiteSpace=wrap;fontSize=16.7;spacing=9;strokeColor=#fff;rounded=1;absoluteArcSize=1;arcSize=9;fillColor=#unset;strokeWidth=2;lucidId=6hXwYlWiubw_;fontColor=#FFFFFF;labelBorderColor=default;align=center;verticalAlign=middle;fontFamily=Helvetica;" vertex="1" parent="1">
          <mxGeometry x="-270" y="662" width="270" height="56" as="geometry" />
        </mxCell>
        <mxCell id="wwfGKBPIN9AT0zzVKgyh-323" style="edgeStyle=orthogonalEdgeStyle;rounded=1;orthogonalLoop=1;jettySize=auto;html=1;entryX=0;entryY=0.5;entryDx=0;entryDy=0;strokeColor=#ffffff;strokeWidth=2.3;align=center;verticalAlign=middle;arcSize=12;fontFamily=Helvetica;fontSize=13;fontColor=#FFFFFF;labelBorderColor=default;labelBackgroundColor=default;startArrow=none;endArrow=block;endFill=1;" edge="1" parent="1" source="wwfGKBPIN9AT0zzVKgyh-324" target="wwfGKBPIN9AT0zzVKgyh-328">
          <mxGeometry relative="1" as="geometry" />
        </mxCell>
        <mxCell id="wwfGKBPIN9AT0zzVKgyh-324" value="&lt;div&gt;Grading Assignments&amp;nbsp;&lt;/div&gt;&lt;div&gt;week 23&lt;/div&gt;" style="html=1;overflow=block;blockSpacing=1;whiteSpace=wrap;fontSize=16.7;spacing=9;strokeColor=#fff;rounded=1;absoluteArcSize=1;arcSize=9;fillColor=#unset;strokeWidth=2;lucidId=6hXwYlWiubw_;fontColor=#FFFFFF;labelBorderColor=default;align=center;verticalAlign=middle;fontFamily=Helvetica;" vertex="1" parent="1">
          <mxGeometry x="-270" y="754" width="270" height="56" as="geometry" />
        </mxCell>
        <mxCell id="wwfGKBPIN9AT0zzVKgyh-325" style="edgeStyle=orthogonalEdgeStyle;rounded=1;orthogonalLoop=1;jettySize=auto;html=1;entryX=0;entryY=0.5;entryDx=0;entryDy=0;strokeColor=#ffffff;strokeWidth=2.3;align=center;verticalAlign=middle;arcSize=12;fontFamily=Helvetica;fontSize=13;fontColor=#FFFFFF;labelBorderColor=default;labelBackgroundColor=default;startArrow=none;endArrow=block;endFill=1;" edge="1" parent="1" source="wwfGKBPIN9AT0zzVKgyh-328" target="wwfGKBPIN9AT0zzVKgyh-330">
          <mxGeometry relative="1" as="geometry" />
        </mxCell>
        <mxCell id="wwfGKBPIN9AT0zzVKgyh-326" style="edgeStyle=orthogonalEdgeStyle;rounded=1;orthogonalLoop=1;jettySize=auto;html=1;entryX=0;entryY=0.5;entryDx=0;entryDy=0;strokeColor=#ffffff;strokeWidth=2.3;align=center;verticalAlign=middle;arcSize=12;fontFamily=Helvetica;fontSize=13;fontColor=#FFFFFF;labelBorderColor=default;labelBackgroundColor=default;startArrow=none;endArrow=block;endFill=1;" edge="1" parent="1" source="wwfGKBPIN9AT0zzVKgyh-328" target="wwfGKBPIN9AT0zzVKgyh-332">
          <mxGeometry relative="1" as="geometry" />
        </mxCell>
        <mxCell id="wwfGKBPIN9AT0zzVKgyh-327" style="edgeStyle=orthogonalEdgeStyle;rounded=1;orthogonalLoop=1;jettySize=auto;html=1;entryX=0;entryY=0.5;entryDx=0;entryDy=0;strokeColor=#ffffff;strokeWidth=2.3;align=center;verticalAlign=middle;arcSize=12;fontFamily=Helvetica;fontSize=13;fontColor=#FFFFFF;labelBorderColor=default;labelBackgroundColor=default;startArrow=none;endArrow=block;endFill=1;" edge="1" parent="1" source="wwfGKBPIN9AT0zzVKgyh-328" target="wwfGKBPIN9AT0zzVKgyh-334">
          <mxGeometry relative="1" as="geometry" />
        </mxCell>
        <mxCell id="wwfGKBPIN9AT0zzVKgyh-328" value="Grading Quizzes&amp;nbsp;&lt;div&gt;week 24&lt;/div&gt;" style="html=1;overflow=block;blockSpacing=1;whiteSpace=wrap;fontSize=16.7;spacing=9;strokeColor=#fff;rounded=1;absoluteArcSize=1;arcSize=9;fillColor=#unset;strokeWidth=2;lucidId=6hXwYlWiubw_;fontColor=#FFFFFF;labelBorderColor=default;align=center;verticalAlign=middle;fontFamily=Helvetica;" vertex="1" parent="1">
          <mxGeometry x="70" y="688" width="156" height="100" as="geometry" />
        </mxCell>
        <mxCell id="wwfGKBPIN9AT0zzVKgyh-329" style="edgeStyle=orthogonalEdgeStyle;rounded=1;orthogonalLoop=1;jettySize=auto;html=1;entryX=0;entryY=0.5;entryDx=0;entryDy=0;strokeColor=#ffffff;strokeWidth=2.3;align=center;verticalAlign=middle;arcSize=12;fontFamily=Helvetica;fontSize=13;fontColor=#FFFFFF;labelBorderColor=default;labelBackgroundColor=default;startArrow=none;endArrow=block;endFill=1;" edge="1" parent="1" source="wwfGKBPIN9AT0zzVKgyh-330" target="wwfGKBPIN9AT0zzVKgyh-336">
          <mxGeometry relative="1" as="geometry" />
        </mxCell>
        <mxCell id="wwfGKBPIN9AT0zzVKgyh-330" value="&lt;div&gt;Grading Exams&lt;span style=&quot;background-color: initial;&quot;&gt;&amp;nbsp;&lt;/span&gt;&lt;/div&gt;&lt;div&gt;week 25&lt;/div&gt;" style="html=1;overflow=block;blockSpacing=1;whiteSpace=wrap;fontSize=16.7;spacing=9;strokeColor=#fff;rounded=1;absoluteArcSize=1;arcSize=9;fillColor=#unset;strokeWidth=2;lucidId=6hXwYlWiubw_;fontColor=#FFFFFF;labelBorderColor=default;align=center;verticalAlign=middle;fontFamily=Helvetica;" vertex="1" parent="1">
          <mxGeometry x="322.5" y="662" width="225" height="50" as="geometry" />
        </mxCell>
        <mxCell id="wwfGKBPIN9AT0zzVKgyh-331" style="edgeStyle=orthogonalEdgeStyle;rounded=1;orthogonalLoop=1;jettySize=auto;html=1;strokeColor=#ffffff;strokeWidth=2.3;align=center;verticalAlign=middle;arcSize=12;fontFamily=Helvetica;fontSize=13;fontColor=#FFFFFF;labelBorderColor=default;labelBackgroundColor=default;startArrow=none;endArrow=block;endFill=1;" edge="1" parent="1" source="wwfGKBPIN9AT0zzVKgyh-332" target="wwfGKBPIN9AT0zzVKgyh-336">
          <mxGeometry relative="1" as="geometry" />
        </mxCell>
        <mxCell id="wwfGKBPIN9AT0zzVKgyh-332" value="Providing Feedback on Submissions week 25" style="html=1;overflow=block;blockSpacing=1;whiteSpace=wrap;fontSize=16.7;spacing=9;strokeColor=#fff;rounded=1;absoluteArcSize=1;arcSize=9;fillColor=#unset;strokeWidth=2;lucidId=6hXwYlWiubw_;fontColor=#FFFFFF;labelBorderColor=default;align=center;verticalAlign=middle;fontFamily=Helvetica;" vertex="1" parent="1">
          <mxGeometry x="322.5" y="718" width="225" height="50" as="geometry" />
        </mxCell>
        <mxCell id="wwfGKBPIN9AT0zzVKgyh-333" style="edgeStyle=orthogonalEdgeStyle;rounded=1;orthogonalLoop=1;jettySize=auto;html=1;strokeColor=#ffffff;strokeWidth=2.3;align=center;verticalAlign=middle;arcSize=12;fontFamily=Helvetica;fontSize=13;fontColor=#FFFFFF;labelBorderColor=default;labelBackgroundColor=default;startArrow=none;endArrow=block;endFill=1;" edge="1" parent="1" source="wwfGKBPIN9AT0zzVKgyh-334" target="wwfGKBPIN9AT0zzVKgyh-336">
          <mxGeometry relative="1" as="geometry" />
        </mxCell>
        <mxCell id="wwfGKBPIN9AT0zzVKgyh-334" value="Updating Grade Records&amp;nbsp;&lt;div&gt;week 25&lt;/div&gt;" style="html=1;overflow=block;blockSpacing=1;whiteSpace=wrap;fontSize=16.7;spacing=9;strokeColor=#fff;rounded=1;absoluteArcSize=1;arcSize=9;fillColor=#unset;strokeWidth=2;lucidId=6hXwYlWiubw_;fontColor=#FFFFFF;labelBorderColor=default;align=center;verticalAlign=middle;fontFamily=Helvetica;" vertex="1" parent="1">
          <mxGeometry x="325" y="778" width="225" height="50" as="geometry" />
        </mxCell>
        <mxCell id="wwfGKBPIN9AT0zzVKgyh-335" style="edgeStyle=orthogonalEdgeStyle;rounded=1;orthogonalLoop=1;jettySize=auto;html=1;entryX=0;entryY=0.5;entryDx=0;entryDy=0;strokeColor=#ffffff;strokeWidth=2.3;align=center;verticalAlign=middle;arcSize=12;fontFamily=Helvetica;fontSize=13;fontColor=#FFFFFF;labelBorderColor=default;labelBackgroundColor=default;startArrow=none;endArrow=block;endFill=1;" edge="1" parent="1" source="wwfGKBPIN9AT0zzVKgyh-336" target="wwfGKBPIN9AT0zzVKgyh-351">
          <mxGeometry relative="1" as="geometry" />
        </mxCell>
        <mxCell id="wwfGKBPIN9AT0zzVKgyh-336" value="Sharing Grades with Students&amp;nbsp;&lt;br&gt;&lt;div&gt;week 26&lt;/div&gt;" style="html=1;overflow=block;blockSpacing=1;whiteSpace=wrap;fontSize=16.7;spacing=9;strokeColor=#fff;rounded=1;absoluteArcSize=1;arcSize=9;fillColor=#unset;strokeWidth=2;lucidId=6hXwYlWiubw_;fontColor=#FFFFFF;labelBorderColor=default;align=center;verticalAlign=middle;fontFamily=Helvetica;" vertex="1" parent="1">
          <mxGeometry x="650" y="693" width="156" height="100" as="geometry" />
        </mxCell>
        <mxCell id="wwfGKBPIN9AT0zzVKgyh-337" style="edgeStyle=orthogonalEdgeStyle;rounded=1;orthogonalLoop=1;jettySize=auto;html=1;entryX=0;entryY=0.5;entryDx=0;entryDy=0;strokeColor=#ffffff;strokeWidth=2.3;align=center;verticalAlign=middle;arcSize=12;fontFamily=Helvetica;fontSize=13;fontColor=#FFFFFF;labelBorderColor=default;labelBackgroundColor=default;startArrow=none;endArrow=block;endFill=1;" edge="1" parent="1" source="wwfGKBPIN9AT0zzVKgyh-339" target="wwfGKBPIN9AT0zzVKgyh-345">
          <mxGeometry relative="1" as="geometry" />
        </mxCell>
        <mxCell id="wwfGKBPIN9AT0zzVKgyh-338" style="edgeStyle=orthogonalEdgeStyle;rounded=1;orthogonalLoop=1;jettySize=auto;html=1;entryX=0;entryY=0.5;entryDx=0;entryDy=0;strokeColor=#ffffff;strokeWidth=2.3;align=center;verticalAlign=middle;arcSize=12;fontFamily=Helvetica;fontSize=13;fontColor=#FFFFFF;labelBorderColor=default;labelBackgroundColor=default;startArrow=none;endArrow=block;endFill=1;" edge="1" parent="1" source="wwfGKBPIN9AT0zzVKgyh-339" target="wwfGKBPIN9AT0zzVKgyh-349">
          <mxGeometry relative="1" as="geometry" />
        </mxCell>
        <mxCell id="wwfGKBPIN9AT0zzVKgyh-339" value="&lt;div&gt;Initial Code Review&lt;/div&gt;&lt;div&gt;week 27 to 28&lt;/div&gt;" style="html=1;overflow=block;blockSpacing=1;whiteSpace=wrap;fontSize=16.7;spacing=9;strokeColor=#fff;rounded=1;absoluteArcSize=1;arcSize=9;fillColor=#unset;strokeWidth=2;lucidId=6hXwYlWiubw_;fontColor=#FFFFFF;labelBorderColor=default;align=center;verticalAlign=middle;fontFamily=Helvetica;" vertex="1" parent="1">
          <mxGeometry x="246" y="840" width="270" height="56" as="geometry" />
        </mxCell>
        <mxCell id="wwfGKBPIN9AT0zzVKgyh-340" style="edgeStyle=orthogonalEdgeStyle;rounded=1;orthogonalLoop=1;jettySize=auto;html=1;entryX=0;entryY=0.5;entryDx=0;entryDy=0;strokeColor=#ffffff;strokeWidth=2.3;align=center;verticalAlign=middle;arcSize=12;fontFamily=Helvetica;fontSize=13;fontColor=#FFFFFF;labelBorderColor=default;labelBackgroundColor=default;startArrow=none;endArrow=block;endFill=1;" edge="1" parent="1" source="wwfGKBPIN9AT0zzVKgyh-343" target="wwfGKBPIN9AT0zzVKgyh-345">
          <mxGeometry relative="1" as="geometry" />
        </mxCell>
        <mxCell id="wwfGKBPIN9AT0zzVKgyh-341" value="" style="edgeStyle=orthogonalEdgeStyle;rounded=1;orthogonalLoop=1;jettySize=auto;html=1;strokeColor=#ffffff;strokeWidth=2.3;align=center;verticalAlign=middle;arcSize=12;fontFamily=Helvetica;fontSize=13;fontColor=#FFFFFF;labelBorderColor=default;labelBackgroundColor=default;startArrow=none;endArrow=block;endFill=1;" edge="1" parent="1" source="wwfGKBPIN9AT0zzVKgyh-343" target="wwfGKBPIN9AT0zzVKgyh-349">
          <mxGeometry relative="1" as="geometry" />
        </mxCell>
        <mxCell id="wwfGKBPIN9AT0zzVKgyh-342" style="edgeStyle=orthogonalEdgeStyle;rounded=1;orthogonalLoop=1;jettySize=auto;html=1;entryX=0;entryY=0.5;entryDx=0;entryDy=0;strokeColor=#ffffff;strokeWidth=2.3;align=center;verticalAlign=middle;arcSize=12;fontFamily=Helvetica;fontSize=13;fontColor=#FFFFFF;labelBorderColor=default;labelBackgroundColor=default;startArrow=none;endArrow=block;endFill=1;" edge="1" parent="1" source="wwfGKBPIN9AT0zzVKgyh-343" target="wwfGKBPIN9AT0zzVKgyh-349">
          <mxGeometry relative="1" as="geometry" />
        </mxCell>
        <mxCell id="wwfGKBPIN9AT0zzVKgyh-343" value="Unit Testing week 0 to 28" style="html=1;overflow=block;blockSpacing=1;whiteSpace=wrap;fontSize=16.7;spacing=9;strokeColor=#fff;rounded=1;absoluteArcSize=1;arcSize=9;fillColor=#unset;strokeWidth=2;lucidId=6hXwYlWiubw_;fontColor=#FFFFFF;labelBorderColor=default;align=center;verticalAlign=middle;fontFamily=Helvetica;" vertex="1" parent="1">
          <mxGeometry x="-435" y="944" width="955" height="31" as="geometry" />
        </mxCell>
        <mxCell id="wwfGKBPIN9AT0zzVKgyh-344" style="edgeStyle=orthogonalEdgeStyle;rounded=1;orthogonalLoop=1;jettySize=auto;html=1;entryX=0;entryY=0.5;entryDx=0;entryDy=0;strokeColor=#ffffff;strokeWidth=2.3;align=center;verticalAlign=middle;arcSize=12;fontFamily=Helvetica;fontSize=13;fontColor=#FFFFFF;labelBorderColor=default;labelBackgroundColor=default;startArrow=none;endArrow=block;endFill=1;" edge="1" parent="1" source="wwfGKBPIN9AT0zzVKgyh-345" target="wwfGKBPIN9AT0zzVKgyh-347">
          <mxGeometry relative="1" as="geometry" />
        </mxCell>
        <mxCell id="wwfGKBPIN9AT0zzVKgyh-345" value="integration Testing week 29 to 30" style="html=1;overflow=block;blockSpacing=1;whiteSpace=wrap;fontSize=16.7;spacing=9;strokeColor=#fff;rounded=1;absoluteArcSize=1;arcSize=9;fillColor=#unset;strokeWidth=2;lucidId=6hXwYlWiubw_;fontColor=#FFFFFF;labelBorderColor=default;align=center;verticalAlign=middle;fontFamily=Helvetica;" vertex="1" parent="1">
          <mxGeometry x="600" y="840" width="270" height="56" as="geometry" />
        </mxCell>
        <mxCell id="wwfGKBPIN9AT0zzVKgyh-346" style="edgeStyle=orthogonalEdgeStyle;rounded=1;orthogonalLoop=1;jettySize=auto;html=1;entryX=0;entryY=0.5;entryDx=0;entryDy=0;strokeColor=#ffffff;strokeWidth=2.3;align=center;verticalAlign=middle;arcSize=12;fontFamily=Helvetica;fontSize=13;fontColor=#FFFFFF;labelBorderColor=default;labelBackgroundColor=default;startArrow=none;endArrow=block;endFill=1;" edge="1" parent="1" source="wwfGKBPIN9AT0zzVKgyh-347" target="wwfGKBPIN9AT0zzVKgyh-351">
          <mxGeometry relative="1" as="geometry" />
        </mxCell>
        <mxCell id="wwfGKBPIN9AT0zzVKgyh-347" value="System Testing week 31 to 32" style="html=1;overflow=block;blockSpacing=1;whiteSpace=wrap;fontSize=16.7;spacing=9;strokeColor=#fff;rounded=1;absoluteArcSize=1;arcSize=9;fillColor=#unset;strokeWidth=2;lucidId=6hXwYlWiubw_;fontColor=#FFFFFF;labelBorderColor=default;align=center;verticalAlign=middle;fontFamily=Helvetica;" vertex="1" parent="1">
          <mxGeometry x="930" y="840" width="270" height="56" as="geometry" />
        </mxCell>
        <mxCell id="wwfGKBPIN9AT0zzVKgyh-348" style="edgeStyle=orthogonalEdgeStyle;rounded=1;orthogonalLoop=1;jettySize=auto;html=1;entryX=0;entryY=0.5;entryDx=0;entryDy=0;strokeColor=#ffffff;strokeWidth=2.3;align=center;verticalAlign=middle;arcSize=12;fontFamily=Helvetica;fontSize=13;fontColor=#FFFFFF;labelBorderColor=default;labelBackgroundColor=default;startArrow=none;endArrow=block;endFill=1;" edge="1" parent="1" source="wwfGKBPIN9AT0zzVKgyh-349" target="wwfGKBPIN9AT0zzVKgyh-351">
          <mxGeometry relative="1" as="geometry" />
        </mxCell>
        <mxCell id="wwfGKBPIN9AT0zzVKgyh-349" value="Debugging and error fixing&lt;div&gt;&amp;nbsp;week 29 to 32&lt;/div&gt;" style="html=1;overflow=block;blockSpacing=1;whiteSpace=wrap;fontSize=16.7;spacing=9;strokeColor=#fff;rounded=1;absoluteArcSize=1;arcSize=9;fillColor=#unset;strokeWidth=2;lucidId=6hXwYlWiubw_;fontColor=#FFFFFF;labelBorderColor=default;align=center;verticalAlign=middle;fontFamily=Helvetica;" vertex="1" parent="1">
          <mxGeometry x="600" y="919" width="600" height="56" as="geometry" />
        </mxCell>
        <mxCell id="wwfGKBPIN9AT0zzVKgyh-350" value="" style="edgeStyle=orthogonalEdgeStyle;rounded=1;orthogonalLoop=1;jettySize=auto;html=1;strokeColor=#ffffff;strokeWidth=2.3;align=center;verticalAlign=middle;arcSize=12;fontFamily=Helvetica;fontSize=13;fontColor=#FFFFFF;labelBorderColor=default;labelBackgroundColor=default;startArrow=none;endArrow=block;endFill=1;" edge="1" parent="1" source="wwfGKBPIN9AT0zzVKgyh-351" target="wwfGKBPIN9AT0zzVKgyh-353">
          <mxGeometry relative="1" as="geometry" />
        </mxCell>
        <mxCell id="wwfGKBPIN9AT0zzVKgyh-351" value="Deployment operation week 33" style="html=1;overflow=block;blockSpacing=1;whiteSpace=wrap;fontSize=16.7;spacing=9;strokeColor=#fff;rounded=1;absoluteArcSize=1;arcSize=9;fillColor=#unset;strokeWidth=2;lucidId=6hXwYlWiubw_;fontColor=#FFFFFF;labelBorderColor=default;align=center;verticalAlign=middle;fontFamily=Helvetica;" vertex="1" parent="1">
          <mxGeometry x="1135" y="554" width="210" height="90" as="geometry" />
        </mxCell>
        <mxCell id="wwfGKBPIN9AT0zzVKgyh-352" value="" style="edgeStyle=orthogonalEdgeStyle;rounded=1;orthogonalLoop=1;jettySize=auto;html=1;strokeColor=#ffffff;strokeWidth=2.3;align=center;verticalAlign=middle;arcSize=12;fontFamily=Helvetica;fontSize=13;fontColor=#FFFFFF;labelBorderColor=default;labelBackgroundColor=default;startArrow=none;endArrow=block;endFill=1;" edge="1" parent="1" source="wwfGKBPIN9AT0zzVKgyh-353" target="wwfGKBPIN9AT0zzVKgyh-355">
          <mxGeometry relative="1" as="geometry" />
        </mxCell>
        <mxCell id="wwfGKBPIN9AT0zzVKgyh-353" value="User Acceptance Testing week 34" style="whiteSpace=wrap;html=1;fontSize=16.7;fillColor=#unset;strokeColor=#fff;fontColor=#FFFFFF;spacing=9;rounded=1;arcSize=9;strokeWidth=2;labelBorderColor=default;" vertex="1" parent="1">
          <mxGeometry x="1112.5" y="718" width="255" height="85" as="geometry" />
        </mxCell>
        <mxCell id="wwfGKBPIN9AT0zzVKgyh-354" value="" style="edgeStyle=orthogonalEdgeStyle;rounded=1;orthogonalLoop=1;jettySize=auto;html=1;strokeColor=#ffffff;strokeWidth=2.3;align=center;verticalAlign=middle;arcSize=12;fontFamily=Helvetica;fontSize=13;fontColor=#FFFFFF;labelBorderColor=default;labelBackgroundColor=default;startArrow=none;endArrow=block;endFill=1;" edge="1" parent="1" source="wwfGKBPIN9AT0zzVKgyh-355" target="wwfGKBPIN9AT0zzVKgyh-356">
          <mxGeometry relative="1" as="geometry" />
        </mxCell>
        <mxCell id="wwfGKBPIN9AT0zzVKgyh-355" value="Live Deployment week 35" style="whiteSpace=wrap;html=1;fontSize=16.7;fillColor=#unset;strokeColor=#fff;fontColor=#FFFFFF;spacing=9;rounded=1;arcSize=9;strokeWidth=2;labelBorderColor=default;" vertex="1" parent="1">
          <mxGeometry x="1440" y="690.5" width="147.5" height="140" as="geometry" />
        </mxCell>
        <mxCell id="wwfGKBPIN9AT0zzVKgyh-356" value="FINISH" style="whiteSpace=wrap;html=1;fontSize=26.7;fillColor=#unset;strokeColor=#FFFFFF;fontColor=#FFFFFF;spacing=9;rounded=1;arcSize=9;strokeWidth=3;labelBorderColor=none;shadow=0;glass=0;align=center;verticalAlign=middle;fontFamily=Helvetica;gradientColor=none;" vertex="1" parent="1">
          <mxGeometry x="1453.75" y="915" width="120" height="60" as="geometry" />
        </mxCell>
      </root>
    </mxGraphModel>
  </diagram>
</mxfile>
